<?xml version="1.0" standalone="no"?>
<!DOCTYPE svg PUBLIC "-//W3C//DTD SVG 1.1//EN" "http://www.w3.org/Graphics/SVG/1.1/DTD/svg11.dtd" >
<!--
2013-9-30: Created.
-->
<svg>
<metadata>
Created by iconfont
</metadata>
<defs>

<font id="iconfont" horiz-adv-x="1024" >
  <font-face
    font-family="iconfont"
    font-weight="500"
    font-stretch="normal"
    units-per-em="1024"
    ascent="896"
    descent="-128"
  />
    <missing-glyph />
    
    <glyph glyph-name="x" unicode="x" horiz-adv-x="1001"
d="M281 543q-27 -1 -53 -1h-83q-18 0 -36.5 -6t-32.5 -18.5t-23 -32t-9 -45.5v-76h912v41q0 16 -0.5 30t-0.5 18q0 13 -5 29t-17 29.5t-31.5 22.5t-49.5 9h-133v-97h-438v97zM955 310v-52q0 -23 0.5 -52t0.5 -58t-10.5 -47.5t-26 -30t-33 -16t-31.5 -4.5q-14 -1 -29.5 -0.5
t-29.5 0.5h-32l-45 128h-439l-44 -128h-29h-34q-20 0 -45 1q-25 0 -41 9.5t-25.5 23t-13.5 29.5t-4 30v167h911zM163 247q-12 0 -21 -8.5t-9 -21.5t9 -21.5t21 -8.5q13 0 22 8.5t9 21.5t-9 21.5t-22 8.5zM316 123q-8 -26 -14 -48q-5 -19 -10.5 -37t-7.5 -25t-3 -15t1 -14.5
t9.5 -10.5t21.5 -4h37h67h81h80h64h36q23 0 34 12t2 38q-5 13 -9.5 30.5t-9.5 34.5q-5 19 -11 39h-368zM336 498v228q0 11 2.5 23t10 21.5t20.5 15.5t34 6h188q31 0 51.5 -14.5t20.5 -52.5v-227h-327z" />
    

    
    <glyph glyph-name="check" unicode="&#58949;" d="M887.904 597.792c-12.864 12.064-33.152 11.488-45.216-1.408L415.936 142.016l-233.12 229.696C170.208 384.128 149.952 384 137.536 371.392c-12.416-12.576-12.256-32.864 0.352-45.248l256.48-252.672c0.096-0.096 0.224-0.128 0.32-0.224 0.096-0.096 0.128-0.224 0.224-0.32 2.016-1.92 4.448-3.008 6.784-4.288 1.152-0.672 2.144-1.664 3.36-2.144 3.776-1.472 7.776-2.24 11.744-2.24 4.192 0 8.384 0.832 12.288 2.496 1.312 0.544 2.336 1.664 3.552 2.368 2.4 1.408 4.896 2.592 6.944 4.672 0.096 0.096 0.128 0.256 0.224 0.352 0.064 0.096 0.192 0.128 0.288 0.224l449.184 478.208C901.44 565.408 900.768 585.664 887.904 597.792z"  horiz-adv-x="1024" />

    
    <glyph glyph-name="close" unicode="&#58950;" d="M557.312 382.752l265.28 263.904c12.544 12.48 12.608 32.704 0.128 45.248-12.512 12.576-32.704 12.608-45.248 0.128l-265.344-263.936-263.04 263.84C236.64 704.416 216.384 704.48 203.84 692 191.328 679.52 191.296 659.264 203.776 646.72l262.976-263.776L201.6 119.2c-12.544-12.48-12.608-32.704-0.128-45.248 6.24-6.272 14.464-9.44 22.688-9.44 8.16 0 16.32 3.104 22.56 9.312l265.216 263.808 265.44-266.24c6.24-6.272 14.432-9.408 22.656-9.408 8.192 0 16.352 3.136 22.592 9.344 12.512 12.48 12.544 32.704 0.064 45.248L557.312 382.752z"  horiz-adv-x="1024" />

    
    <glyph glyph-name="moreandroid" unicode="&#59045;" d="M417.696 672c0 52.928 43.072 96 96 96s96-43.072 96-96-43.072-96-96-96S417.696 619.072 417.696 672zM417.696 384c0 52.928 43.072 96 96 96s96-43.072 96-96-43.072-96-96-96S417.696 331.072 417.696 384zM417.696 96c0 52.928 43.072 96 96 96s96-43.072 96-96-43.072-96-96-96S417.696 43.072 417.696 96z"  horiz-adv-x="1024" />

    
    <glyph glyph-name="82" unicode="&#58990;" d="M923.414 733l-251.902-0.017 0.016-33.585h228.109l-243.294-243.293c-138.227 125.697-352.757 122.188-486.227-11.283-137.488-137.487-137.488-361.218 0-498.706s361.218-137.488 498.706 0c133.503 133.487 136.979 348.018 11.266 486.243l243.326 243.311-0.016-228.158h33.585l0.017 251.886v33.585l-33.586 0.017zM645.076-30.138c-124.401-124.402-326.813-124.402-451.215 0-124.401 124.401-124.401 326.813 0 451.215 124.402 124.401 326.813 124.401 451.215 0 124.403-124.401 124.403-326.813 0-451.215z"  horiz-adv-x="1024" />

    
    <glyph glyph-name="81" unicode="&#58996;" d="M813.452 431.549c0 166.216-135.236 301.451-301.452 301.451s-301.452-135.235-301.452-301.451c0-161.366 127.554-293.153 287.083-300.723v-115.567h-143.534v-28.71h143.534v-143.549h28.71v143.549h143.563v28.71h-143.563v115.567c159.544 7.556 287.111 139.343 287.111 300.723zM239.258 431.549c0 150.389 122.352 272.742 272.742 272.742s272.742-122.353 272.742-272.742c0-150.39-122.353-272.742-272.742-272.742s-272.742 122.352-272.742 272.742z"  horiz-adv-x="1024" />

    
    <glyph glyph-name="wo" unicode="&#58880;" d="M808.854477 520.366807c0 163.997098-134.543276 296.918433-300.536844 296.918433-165.995615 0-300.536844-132.921335-300.536844-296.918433 0-94.696756 45.01831-178.827875 114.873284-233.189993-125.261888-63.085804-213.430974-188.69357-223.198431-334.665129l44.950771 0c10.544147 136.692219 99.246375 257.717619 223.043912 305.83143 39.333844-18.691711 94.296643-34.896788 140.867308-34.896788 46.571688 0 90.499154 10.767228 129.836067 29.455869l30.833239 17.869996 24.970718 16.403598C763.838214 341.538933 808.854477 425.670052 808.854477 520.366807zM508.316609 271.815965c-138.957819 0-251.590062 111.277386-251.590062 248.570285 0 137.251967 112.632243 248.550843 251.590062 248.550843 138.957819 0 251.613598-111.298875 251.613598-248.550843C759.930207 383.095397 652.85554 271.815965 508.316609 271.815965zM762.570337 243.559411l-0.221034-0.312108c-4.907777 4.683672-11.453866 7.633864-18.779715 7.633864-15.117302 0-27.347858-5.746888-27.347858-20.863167 0-10.431583 6.037507-19.178805 14.603603-23.786753l-0.177032-0.268106c82.176604-58.731636 123.620505-147.655921 131.789559-253.452479l54.738695 0C909.319609 70.029192 850.562391 174.668391 762.570337 243.559411z"  horiz-adv-x="1024" />

    
    <glyph glyph-name="app" unicode="&#58947;" d="M878.159424 330.59365l-327.396585 0c-11.307533 0-20.466124-9.168824-20.466124-20.466124l0-327.396585c0-11.307533 9.15859-20.466124 20.466124-20.466124l327.396585 0c11.2973 0 20.466124 9.15859 20.466124 20.466124l0 327.396585C898.625548 321.424826 889.456724 330.59365 878.159424 330.59365zM857.6933 3.197064l-286.464337 0 0 286.464337 286.464337 0L857.6933 3.197064zM430.606225 330.59365l-327.396585 0c-11.2973 0-20.466124-9.168824-20.466124-20.466124l0-327.396585c0-11.307533 9.168824-20.466124 20.466124-20.466124l327.396585 0c11.307533 0 20.466124 9.15859 20.466124 20.466124l0 327.396585C451.072349 321.424826 441.913758 330.59365 430.606225 330.59365zM410.140101 3.197064l-286.464337 0 0 286.464337 286.464337 0L410.140101 3.197064zM430.606225 780.398122l-327.396585 0c-11.2973 0-20.466124-9.15859-20.466124-20.466124l0-327.386352c0-11.307533 9.168824-20.466124 20.466124-20.466124l327.396585 0c11.307533 0 20.466124 9.15859 20.466124 20.466124l0 327.386352C451.072349 771.239532 441.913758 780.398122 430.606225 780.398122zM410.140101 453.01177l-286.464337 0 0 286.454104 286.464337 0L410.140101 453.01177zM965.529307 618.255255l-214.433814 214.433814c-3.837398 3.837398-9.046027 5.996574-14.46955 5.996574-5.433756 0-10.632151-2.159176-14.479783-5.996574l-214.433814-214.433814c-7.992021-7.992021-7.992021-20.957311 0-28.949332l214.433814-214.433814c4.001127-3.990894 9.240455-5.996574 14.479783-5.996574 5.229095 0 10.468422 2.00568 14.46955 5.996574l214.433814 214.433814c3.837398 3.837398 5.996574 9.046027 5.996574 14.46955C971.525881 609.209228 969.366705 614.417857 965.529307 618.255255zM736.625944 418.290991l-185.494715 185.484482 185.494715 185.494715 185.484482-185.494715L736.625944 418.290991z"  horiz-adv-x="1024" />

    
    <glyph glyph-name="deliver" unicode="&#58897;" d="M266.560008 264.585283c-67.661006 0-122.714879-55.04364-122.714879-122.714879 0-67.661006 55.053873-122.714879 122.714879-122.714879s122.714879 55.053873 122.714879 122.714879C389.274888 209.541643 334.221014 264.585283 266.560008 264.585283zM266.560008 60.067306c-45.107337 0-81.803097 36.69576-81.803097 81.803097s36.69576 81.813331 81.803097 81.813331 81.813331-36.705993 81.813331-81.813331S311.667346 60.067306 266.560008 60.067306zM798.315958 19.159618c-67.663052 0-122.711809 55.048757-122.711809 122.712833s55.048757 122.712833 122.711809 122.712833c67.664076 0 122.712833-55.048757 122.712833-122.712833S865.980034 19.159618 798.315958 19.159618zM798.315958 223.680665c-45.108361 0-81.807191-36.69883-81.807191-81.808214s36.69883-81.808214 81.807191-81.808214c45.109384 0 81.808214 36.69883 81.808214 81.808214S843.425342 223.680665 798.315958 223.680665zM593.823564 613.328036 593.823564 162.295596 593.792864 162.295596 593.792864 612.27403ZM1023.284709 379.430938l0-237.560534c0-11.2973-9.148357-20.445658-20.445658-20.445658l-40.901549 0c-11.2973 0-20.455891 9.148357-20.455891 20.445658s9.15859 20.455891 20.455891 20.455891l20.445658 0 0 211.251332-135.976928 218.240513-211.701586 0 0-449.947735c0-11.2973-9.15859-20.445658-20.455891-20.445658-0.23536 0-0.470721 0-0.706081 0.020466l-162.265664 0c-11.276834 0-20.425192 9.148357-20.425192 20.425192 0 11.287067 9.148357 20.425192 20.425192 20.425192l142.546553 0 0 572.71378L41.565674 735.009376l0-572.71378 51.79976 0c11.276834 0 20.425192-9.138124 20.425192-20.425192 0-11.276834-9.148357-20.425192-20.425192-20.425192l-72.224951 0c-11.287067 0-20.425192 9.148357-20.425192 20.425192l0 613.564163c0 11.276834 9.138124 20.425192 20.425192 20.425192l593.108273 0c11.276834 0 20.425192-9.148357 20.425192-20.425192l0-122.714879 223.090984 0c7.060813 0 13.620206-3.64297 17.355273-9.629311l145.07412-232.843092C1022.220471 386.993171 1023.284709 383.24787 1023.284709 379.430938zM818.275545 394.749832 727.620849 394.54517 727.201294 502.770034 817.968553 502.770034Z"  horiz-adv-x="1024" />

    
    <glyph glyph-name="mark" unicode="&#58951;" d="M944.981319 748.184443l0-413.93759c0-7.367805-3.949962-14.152325-10.345626-17.795295-3.755534-2.13871-93.335758-52.352345-208.80563-52.352345-111.100354 0-181.892677 20.537755-244.355287 38.660508-51.001581 14.797008-95.054913 27.578102-153.035442 27.578102-20.701484 0-40.97318-0.818645-60.262502-2.425236-11.266601-0.941442-21.151739 7.429203-22.093181 18.695804-0.931209 11.266601 7.429203 21.151739 18.695804 22.093181 20.414959 1.698688 41.832757 2.568499 63.659879 2.568499 63.803141 0 112.686479-14.183024 164.445306-29.194926 62.759369-18.21485 127.657448-37.043684 232.945423-37.043684 83.276658 0 152.800082 29.40982 178.219008 41.699728l0 368.963283c-37.83163-16.260335-102.095259-37.647435-178.219008-37.647435-86.663802 0-147.908678 26.125007-207.127408 51.380204-57.827033 24.661679-112.440885 47.962362-190.263321 47.962362-77.218686 0-123.420961-7.592932-148.573827-13.96813-14.612813-3.704368-24.02723-7.429203-29.645181-10.120498l0-750.216473c0-11.2973-9.168824-20.466124-20.466124-20.466124-11.307533 0-20.466124 9.168824-20.466124 20.466124l0 761.657037c0 5.577019 2.27174 10.908444 6.293333 14.766308 6.764054 6.487761 48.770773 38.814004 212.857922 38.814004 86.193081 0 147.263995-26.053376 206.318996-51.247174 57.990762-24.733311 112.768343-48.095391 191.071733-48.095391 94.348831 0 168.477133 36.132942 188.95349 47.205115 6.334265 3.428076 14.019295 3.27458 20.210297-0.419556C941.195086 762.070708 944.981319 755.398752 944.981319 748.184443z"  horiz-adv-x="1024" />

    
    <glyph glyph-name="menu" unicode="&#58952;" d="M916.238694 605.277686 138.030703 605.277686c-11.30344 0-20.466124 9.162684-20.466124 20.466124s9.162684 20.466124 20.466124 20.466124L916.238694 646.209934c11.30344 0 20.466124-9.162684 20.466124-20.466124S927.542134 605.277686 916.238694 605.277686zM936.702772 400.47523c0-11.307533-9.15859-20.466124-20.466124-20.466124l-778.203898 0c-11.307533 0-20.466124 9.15859-20.466124 20.466124 0 11.2973 9.15859 20.466124 20.466124 20.466124l778.203898 0C927.544181 420.941354 936.702772 411.77253 936.702772 400.47523zM916.238694 154.736433 138.030703 154.736433c-11.30344 0-20.466124 9.162684-20.466124 20.466124s9.162684 20.466124 20.466124 20.466124L916.238694 195.668681c11.30344 0 20.466124-9.162684 20.466124-20.466124S927.542134 154.736433 916.238694 154.736433z"  horiz-adv-x="1024" />

    
    <glyph glyph-name="pic" unicode="&#59048;" d="M475.224371 320.207494 440.035586 316.135275 667.59114 171.619147 683.870889 161.280194 699.396883 172.75395 1012.285773 403.979757 1024 412.636606 1024 427.354839 1024 687.295869C1024 767.194039 960.311036 832 881.771738 832L28.444444 832 0 832 0 803.096774 0 80.570423C0 0.738618 63.696326-64 142.228263-64L995.555556-64 1024-64 1024-35.096774 1024 225.032258C1024 240.99507 1011.264988 253.935484 995.555556 253.935484 979.846123 253.935484 967.11111 240.99507 967.11111 225.032258L967.11111-35.096774 995.555556-6.193549 142.228263-6.193549C95.11813-6.193549 56.888889 32.661254 56.888889 80.570423L56.888889 803.096774 28.444444 774.193548 881.771738 774.193548C928.874507 774.193548 967.11111 735.286338 967.11111 687.295869L967.11111 427.354839 978.825338 450.72992 665.93645 219.504113 697.742193 220.638918 470.186637 365.155049 450.998204 377.34125 434.997852 361.082829 207.442296 129.857022C196.334049 118.569611 196.334049 100.269099 207.442296 88.981687 218.550543 77.694276 236.56057 77.694276 247.668815 88.981687L475.224371 320.207494ZM341.333333 557.419356C341.333333 613.289193 296.760794 658.580645 241.777777 658.580645 186.794763 658.580645 142.222222 613.289193 142.222222 557.419356 142.222222 501.549517 186.794763 456.258065 241.777777 456.258065 296.760794 456.258065 341.333333 501.549517 341.333333 557.419356ZM199.111111 557.419356C199.111111 581.363571 218.213628 600.774193 241.777777 600.774193 265.341926 600.774193 284.444444 581.363571 284.444444 557.419356 284.444444 533.475138 265.341926 514.064516 241.777777 514.064516 218.213628 514.064516 199.111111 533.475138 199.111111 557.419356Z"  horiz-adv-x="1024" />

    
    <glyph glyph-name="zhuiocn02" unicode="&#58894;" d="M588.664054 704.868915l308.466444-308.647569c7.316639-7.316639 9.505491-18.320251 5.545296-27.879977-3.959172-9.559727-13.287631-15.792685-23.635303-15.792685l-84.934414 0 0-216.262462c0-33.803897-13.759375-53.508681-25.302269-64.086597-21.028942-19.269879-47.996131-21.650089-60.032258-21.650089-1.936095 0-52.81181 0.12382-52.81181 0.12382-14.128789 0-25.582655 11.452843-25.582655 25.582655L630.377084 255.329479l-118.703519 0L511.673565 76.257034c0-14.129812-11.453866-25.582655-25.582655-25.582655L313.014016 50.674379c-6.509251-0.232291-34.827203 0.086981-56.985876 20.893866-11.286044 10.597359-24.740474 30.429033-24.740474 64.719001L231.287667 352.549707l-84.934414 0c-10.354835 0-19.687388 6.242168-23.642466 15.811104s-1.7519 20.578688 5.582135 27.89021l323.364759 322.341452C505.560334 772.495128 531.458167 764.899126 588.664054 704.868915z"  horiz-adv-x="1024" />

    
    <glyph glyph-name="queren" unicode="&#58896;" d="M512-37.875C279.00781268-37.875 90.125 151.00781268000003 90.125 384S279.00781268 805.875 512 805.875s421.875-188.88281269 421.875-421.875S744.99218732-37.875 512-37.875zM512 758.99999991C304.88281213 758.99999991 137.00000009 591.11718787 137.00000009 384s167.88281287-374.99999991 374.99999991-374.99999991 374.99999991 167.88281287 374.99999991 374.99999991S719.11718787 758.99999991 512 758.99999991zM315.96875027 384l33.14062464 33.14062463 116.015625-116.015625 232.03125 232.00781287 33.14062463-33.14062463L465.12499991 234.84375036999995 315.96875027 384z"  horiz-adv-x="1024" />

    
    <glyph glyph-name="laba" unicode="&#58884;" d="M872.802928 140.00594 872.864326 140.00594 872.864326 140.375354ZM744.055658 703.200926c-4.814656 2.889817-9.601682 5.251607-15.442714 5.251607-14.262842 0-25.758664-11.559267-25.758664-25.805736 0-10.285251 6.088672-18.519796 14.6957-23.195282 94.679359-55.247278 158.344355-157.787676 158.344355-275.30416 0-117.424386-63.605643-219.931015-158.159136-275.18034-8.29492-4.538363-15.442714-13.050224-15.442714-23.583115 0-14.261818 11.559267-25.820062 25.791409-25.820062 5.716188 0 10.252505 2.202155 15.22475 5.063319 109.871363 64.133669 183.764304 183.143157 183.764304 319.520197C927.074995 520.214335 853.495186 638.989485 744.055658 703.200926zM773.946432 384.132006c0 79.96524-43.344181 149.739373-107.821681 187.289594-2.920516 1.52268-9.785877 4.520967-14.603603 4.520967-14.325263 0-25.914206-11.589966-25.914206-25.89988 0-9.616008 5.096065-18.176988 12.865006-22.666232 49.839105-28.307719 83.45983-81.829703 83.45983-143.244448 0-62.472843-34.801621-116.817566-86.070284-144.750755-7.457856-4.538363-12.397355-12.803607-12.397355-22.188348 0-14.325263 11.588943-25.943882 25.882484-25.943882 6.090718-0.031722 13.33061 3.542686 13.33061 3.542686C729.048873 231.828228 773.946432 302.705486 773.946432 384.132006zM541.3694 771.327536c-10.846022 5.219885-23.740704 3.790326-33.215496-3.712555-0.435928-0.358157-46.423309-36.914748-97.195669-74.296123-88.308255-65.081251-114.036219-75.925227-119.257128-77.649498l-110.6194 0c-0.63752 0-1.243317-0.062422-1.879813-0.093121l-56.504922 0c-14.231119 0-25.775037-11.543917-25.775037-25.775037l0-411.697573c0-14.261818 11.512195-25.761734 25.775037-25.761734l189.511191-0.027629c5.096065-1.865487 29.395494-13.0799 107.761306-76.999698 45.613874-37.162388 86.505189-73.485665 86.940095-73.829496 5.841032-5.218862 13.298887-7.92039 20.820188-7.92039 4.349051 0 8.729825 0.930185 12.862959 2.764973 11.277858 5.064342 18.517749 16.252149 18.517749 28.619828 0 0 0.031722 97.257068 0.031722 132.212184 0.808412 2.484587 1.213641 5.127787 1.213641 7.863085 0 2.792603-1.245364 578.026786-1.245364 578.026786C559.110459 755.107109 552.214399 766.075929 541.3694 771.327536zM508.308423 169.529347c0-1.494027-0.467651-94.617961-0.467651-94.617961-13.889335 11.745509-29.332049 24.64019-45.240367 37.507242-104.59008 84.702124-130.505309 91.816149-148.030451 91.816149-0.372483 0-0.683569-0.091074-1.025353-0.091074s-0.652869 0.091074-1.025353 0.091074L170.394297 204.234777c-18.037818 0-22.248723 5.128811-22.248723 23.246447L148.145573 543.440315c0 12.32163 1.461281 20.057825 16.298198 20.057825l128.065747 0c17.090237 0 43.315528 6.991228 157.787676 90.839915 20.383236 14.914688 40.330544 29.938869 57.544601 43.113937 0 0 0.373507-445.207781 0.467651-521.368368C507.779374 173.971519 508.308423 171.765271 508.308423 169.529347z"  horiz-adv-x="1024" />

    
    <glyph glyph-name="31rexiao" unicode="&#58885;" d="M872.802928 140.00594 872.864326 140.00594 872.864326 140.375354ZM511.734452 796.899958c-231.771691 0-413.331793-184.874591-413.331793-420.869467 0-14.544251 2.728134-57.820893 7.814989-82.745563l-0.072655 0c0.132006-0.528026 0.249687-0.937348 0.366344-1.467421 0.630357-2.871397 1.289366-5.336542 1.978051-7.622608 1.803066-7.008624 3.63683-13.781888 5.5279-20.173458l1.202385-4.632507c0.176009-0.997724 0.688685-1.817392 0.967024-2.755764 26.595728-86.674035 59.201333-118.987998 59.201333-118.987998l0.059352 0c0.116657-0.9967 0.116657-2.081405 0.306992-2.962471 1.671059-19.820418 6.186909-72.364121-16.09763-118.369921-1.802042-4.369517-2.696412-8.91402-2.638083-13.166881-1.203408-7.007601 0.410346-14.044878 4.618181-19.908422 4.441149-6.274914 11.171434-10.438747 18.823718-11.727089 1.086751-0.179079 2.201132-0.23536 3.152806-0.295735 0.792039-0.058328 1.568728-0.115634 2.346441-0.115634 3.092431 0 6.098905 0.528026 8.371668 1.406023 26.609031 5.572926 85.252663 31.141254 117.960599 53.894468 60.871369-33.455973 129.777739-51.137681 199.444425-51.137681 228.212632 0 413.876192 184.28619 413.876192 410.826739C925.610644 612.598418 739.947084 796.899958 511.734452 796.899958zM511.734452 29.360957c-67.965951 0-136.285966 20.055778-194.020902 56.4425-10.906397 4.337795-25.832342 2.229784-35.610032-6.008854-18.253736-16.978696-38.191834-30.525224-59.303664-40.436968 4.471848 35.657104 8.854669 58.349943 7.051603 77.496002 0.542352 3.081175 0.484024 24.425296-8.252964 41.403992-38.426171 51.809993-52.309366 98.491175-56.927547 119.192659l-0.265036 1.700735c-1.084705 4.750187-2.521426 13.223163-4.002151 23.341614-3.635807 24.715915-7.565303 59.229986-7.565303 73.537853 0 202.27489 158.512177 366.842992 353.325118 366.842992l5.511527-0.057305c201.588251-3.049452 359.484398-159.76061 359.484398-356.728634C871.159498 189.398884 709.919187 29.360957 511.734452 29.360957zM401.178497 476.941785c-15.510252-0.747014-23.369244-8.635681-23.369244-23.414269l0-57.733912-84.768639 0 0 57.821917c-0.762363 14.719236-8.209986 22.578228-22.401196 23.326265-14.764262-0.747014-22.240537-8.635681-22.240537-23.414269l0-160.124907c0-14.133905 7.505951-21.22951 22.328541-21.22951 14.045901 0 21.551852 7.096628 22.314215 21.22951l0 59.930951 84.768639 0 0-59.930951c0-14.133905 7.887644-21.22951 23.428595-21.22951 14.015202 0 21.522176 7.096628 22.342868 21.22951L423.58174 453.615521C422.759001 468.334757 415.311379 476.194772 401.178497 476.941785zM534.914384 478.055143c-60.550051-5.15951-93.507674-40.317241-97.875145-104.663758 3.664459-64.948221 36.622082-99.341542 97.93245-102.301967l0.118704 0c60.576657 2.961448 93.535303 37.353746 97.962126 102.508675C627.864356 437.767578 594.965062 472.895633 534.914384 478.055143zM535.090393 310.292278c-33.016974 1.407046-49.760311 22.10853-51.225685 63.128783 1.407046 40.376593 18.179035 61.078077 51.166333 63.262836 32.253588-2.185782 49.349965-22.916942 52.251038-63.11548C585.113693 332.400808 567.99071 311.699324 535.090393 310.292278zM755.471662 474.785679 651.203924 474.785679c-11.081383-0.805342-17.065677-7.564279-17.85567-20.231787 0.789992-14.029528 6.831592-21.169135 17.974373-21.169135l29.143761 0 0-139.981125c0-14.133905 7.504928-21.22951 22.342868-21.22951 13.95585 0 21.87624 7.096628 23.457248 21.22951L726.266503 433.384757l29.204136 0c12.552897 0 19.352767 7.139607 20.144806 21.435195C774.063089 467.250052 767.317455 473.980337 755.471662 474.785679z"  horiz-adv-x="1024" />

    
    <glyph glyph-name="browse" unicode="&#59110;" d="M1012.444444 395.326985 1010.920636 397.866667C865.193651 615.161905 701.536508 725.333333 524.419049 725.333333 226.48889 725.333333 13.180952 398.501587 11.580952 395.326985 1.549206 375.847618 1.549206 355.2 11.580952 335.644444L13.866667 331.987302C175.568254 116.495238 338.514285 11.733333 512 11.733333 588.393651 11.733333 658.082539 32.736508 719.847618 64.431746 752.101587 80.965079 788.190477 102.298413 809.828572 121.346031 814.349205 125.358731 816.761905 132.317461 816.761905 139.174603 816.761905 153.219049 805.384128 164.571428 791.365079 164.571428 785.777777 164.571428 780.901587 162.387302 776.71111 159.365079 776.71111 159.365079 716.469841 118.628572 682.844444 102.755556 631.11111 78.273015 573.841269 62.552382 512 62.552382 356.114285 62.552382 206.958731 160.025397 56.025397 360.457143 54.323809 364.546031 54.526984 367.796826 56.533333 371.682539 58.260317 374.704762 256.812698 674.539683 524.419049 674.539683 683.174603 674.539683 832.304762 572.419048 967.796826 370.996826 968.380951 369.67619 968.71111 368.558731 968.914285 367.746031L966.679364 364.393651C949.942857 338.996826 879.009523 252.469841 871.314285 244.038095 863.619049 235.606349 860.419049 232.253969 860.419049 223.746031 860.419049 209.701587 871.796826 198.349205 885.815872 198.349205 893.079364 198.349205 898.793651 200.990477 904.177777 206.374603 909.561905 211.733333 990.907936 308.850795 1009.092064 336.431746L1009.879364 337.625397C1022.247618 351.92381 1023.339682 374.120636 1012.444444 395.326985L1012.444444 395.326985ZM393.498413 371.606349C393.498413 309.460318 448.88889 254.958731 512 254.958731 576.203174 254.958731 630.47619 308.393651 630.47619 371.606349 630.47619 434.819049 576.203174 488.203174 512 488.203174 448.88889 488.203174 393.498413 433.726985 393.498413 371.606349L393.498413 371.606349ZM579.682539 371.606349C579.682539 337.142857 547.403174 305.752382 512 305.752382 476.546031 305.752382 444.292064 337.142857 444.292064 371.606349 444.292064 406.044444 476.571428 437.409523 512 437.409523 547.428572 437.409523 579.682539 406.044444 579.682539 371.606349L579.682539 371.606349Z"  horiz-adv-x="1024" />

    
    <glyph glyph-name="huidingbu" unicode="&#58892;" d="M825.568 256.672l-287.392 289.28C531.808 552.352 523.488 555.424 515.2 555.36 514.08 555.456 513.12 556 512 556c-4.672 0-9.024-1.088-13.024-2.88-4.032-1.536-7.872-3.872-11.136-7.136l-259.328-258.88c-12.512-12.48-12.544-32.736-0.032-45.248 6.24-6.272 14.432-9.408 22.656-9.408 8.192 0 16.352 3.136 22.624 9.344L480 447.712 480-116c0-17.696 14.336-32 32-32s32 14.304 32 32L544 449.28l236.192-237.728c6.24-6.272 14.496-9.44 22.688-9.44s16.32 3.104 22.56 9.312C838.016 223.872 838.048 244.16 825.568 256.672zM864 620 160 620C142.336 620 128 634.336 128 652s14.336 32 32 32l704 0c17.696 0 32-14.336 32-32S881.696 620 864 620z"  horiz-adv-x="1024" />

    
    <glyph glyph-name="fenlei" unicode="&#59502;" d="M404.53852014160157 801.1508173828125L166.41416906738283 801.0596165771485C126.55957601928708 800.5671343688965 94.34758065795893 768.190977722168 94.34758065795893 728.1904645385742l0-237.21234713745113c0.07296047973632813-39.945793029785165 32.230235687255856-72.26722952270508 72.06658840942383-72.77795205688477l238.12435107421874-0.07296047973632813c40.201154296874996 0.05472015380859375 72.77795205688477 32.74095822143554 72.85091253662111 72.96035284423829l0 237.12114633178712C477.38943267822265 768.4463389892578 444.77615509033205 801.0960972290038 404.53852014160157 801.1508173828125zM404.42907983398436 454.5891409606934l-237.12114633178712 0c-20.13705697631836 0-36.48017642211914 16.34311862182617-36.48017642211914 36.48017642211914l0 237.12114633178712c0 20.13705697631836 16.34311862182617 36.48017642211914 36.48017642211914 36.48017642211914l237.12114633178712 0c20.13705697631836 0 36.48017642211914-16.34311862182617 36.48017642211914-36.48017642211914l0-237.12114633178712C440.9092562561035 470.93226040649415 424.58437713623044 454.5891409606934 404.42907983398436 454.5891409606934zM860.5407250061035 801.1508173828125L622.4163739318848 801.0596165771485c-39.87283255004883-0.49248220825195316-72.06658840942383-32.8868791809082-72.06658840942383-72.86915203857421l0-237.21234713745113c0.07296047973632813-39.945793029785165 32.230235687255856-72.26722952270508 72.06658840942383-72.77795205688477l238.12435107421874-0.07296047973632813c40.201154296874996 0.05472015380859375 72.77795205688477 32.74095822143554 72.85091253662111 72.96035284423829l0 237.12114633178712C933.3916375427247 768.4463389892578 900.7783599548338 801.0960972290038 860.5407250061035 801.1508173828125zM860.4312846984863 454.5891409606934l-237.12114633178712 0c-20.13705697631836 0-36.48017642211914 16.34311862182617-36.48017642211914 36.48017642211914l0 237.12114633178712c0 20.13705697631836 16.34311862182617 36.48017642211914 36.48017642211914 36.48017642211914l237.12114633178712 0c20.13705697631836 0 36.48017642211914-16.34311862182617 36.48017642211914-36.48017642211914l0-237.12114633178712C896.9114611206055 470.93226040649415 880.5865820007325 454.5891409606934 860.4312846984863 454.5891409606934zM404.53852014160157 345.14861251831053L166.41416906738283 345.0574117126464c-39.87283255004883-0.49248220825195316-72.06658840942383-32.8868791809082-72.06658840942383-72.86915203857421l0-237.21234713745113c0.07296047973632813-39.945793029785165 32.230235687255856-72.26722952270508 72.06658840942383-72.77795205688477l238.12435107421874-0.07296047973632813c40.201154296874996 0.05472015380859375 72.77795205688477 32.74095822143554 72.85091253662111 72.96035284423829l0 237.12114633178712C477.38943267822265 312.4441341247559 444.77615509033205 345.09389154052735 404.53852014160157 345.14861251831053zM404.42907983398436-1.4130639038085064l-237.12114633178712 0c-20.13705697631836 0-36.48017642211914 16.34311862182617-36.48017642211914 36.48017642211914l0 237.12114633178712c0 20.13705697631836 16.34311862182617 36.48017642211914 36.48017642211914 36.48017642211914l237.12114633178712 0c20.13705697631836 0 36.48017642211914-16.34311862182617 36.48017642211914-36.48017642211914l0-237.12114633178712C440.9092562561035 14.93005554199226 424.58437713623044-1.4130639038085064 404.42907983398436-1.4130639038085064zM860.5407250061035 345.14861251831053l-238.12435107421874-0.07296047973632813c-39.87283255004883-0.49248220825195316-72.06658840942383-32.8868791809082-72.06658840942383-72.86915203857421l0-237.21234713745113c0.07296047973632813-39.945793029785165 32.230235687255856-72.26722952270508 72.06658840942383-72.77795205688477l238.12435107421874-0.07296047973632813c40.201154296874996 0.05472015380859375 72.77795205688477 32.74095822143554 72.85091253662111 72.96035284423829l0 237.12114633178712C933.3916375427247 312.4441341247559 900.7783599548338 345.09389154052735 860.5407250061035 345.14861251831053zM860.4312846984863-1.4130639038085064l-237.12114633178712 0c-20.13705697631836 0-36.48017642211914 16.34311862182617-36.48017642211914 36.48017642211914l0 237.12114633178712c0 20.13705697631836 16.34311862182617 36.48017642211914 36.48017642211914 36.48017642211914l237.12114633178712 0c20.13705697631836 0 36.48017642211914-16.34311862182617 36.48017642211914-36.48017642211914l0-237.12114633178712C896.9114611206055 14.93005554199226 880.5865820007325-1.4130639038085064 860.4312846984863-1.4130639038085064z"  horiz-adv-x="1024" />

    
    <glyph glyph-name="0092" unicode="&#58899;" d="M483.37756982 283.93663382L177.12199004 590.19221361 89.62039971 502.69061448 439.6267707 152.68424348999997 483.37756982 108.93345227999998 1095.88871357 721.44459955 1008.38712237 808.94619251 483.37756982 283.93663382 483.37756982 283.93663382ZM886.99998448-44.66664996999998L886.99998448 30.333348849999993 136.99999883 30.333348849999993 136.99999883-44.66664996999998 886.99998448-44.66664996999998Z"  horiz-adv-x="1195" />

    
    <glyph glyph-name="xiangshang" unicode="&#58931;" d="M512.59799776 636.90923041l367.46159341-440.9477468L145.13956612 195.96148439l367.46238364 440.94774679L512.59799776 636.90923041zM512.59799776 636.90923041"  horiz-adv-x="1024" />

    
    <glyph glyph-name="jianhao" unicode="&#59177;" d="M863.74455 351.99914 163.424056 351.99914c-17.664722 0-32.00086 14.336138-32.00086 32.00086s14.336138 32.00086 32.00086 32.00086l700.320495 0c17.695686 0 31.99914-14.336138 31.99914-32.00086S881.440237 351.99914 863.74455 351.99914z"  horiz-adv-x="1024" />

    
    <glyph glyph-name="icon1" unicode="&#58980;" d="M935.503457 350.945163c-26.108634-26.108634-380.139833-380.13881-380.139833-380.13881l-148.747789-33.056883L439.667601 86.501352c0 0 356.49839 356.497367 380.139833 380.13881 23.641443 23.641443 49.583279 0 49.583279 0l66.112744-66.110697C935.503457 400.528442 961.609021 377.052774 935.503457 350.945163zM456.199113 69.971887 439.667601-29.192623l99.171674 16.527418 8.262174 8.262174-82.637092 82.640162L456.199113 69.971887zM563.628868 12.124388l264.442788 264.443811L745.431493 359.209384 480.990752 94.765573 563.628868 12.124388zM761.960958 375.738849l82.639139-82.640162 16.527418 16.527418-82.639139 82.640162L761.960958 375.738849zM836.33383 450.11172l-41.319058-41.319058 82.640162-82.639139 41.318034 41.318034L836.33383 450.11172zM472.723461 400.525372c-118.662587 0-214.859509 96.199992-214.859509 214.862579 0 118.665657 96.196922 214.862579 214.859509 214.862579 118.665657 0 214.860533-96.196922 214.860533-214.862579C687.583994 496.725364 591.389118 400.525372 472.723461 400.525372zM472.723461 797.193647c-100.405781 0-181.803649-81.397868-181.803649-181.805696s81.397868-181.805696 181.803649-181.805696c100.410897 0 181.808766 81.397868 181.808766 181.805696S573.134359 797.193647 472.723461 797.193647zM624.394836 337.335191l-25.761734-25.759687c-39.258119 14.546298-81.561597 22.840194-125.909641 22.840194-195.232496 0-354.071108-153.992233-362.774327-347.07988L76.893274-12.664182c8.731872 211.347522 182.337815 380.136763 395.830187 380.136763C526.482853 367.471558 577.689095 356.724797 624.394836 337.335191zM868.556719-12.665205l-33.05586 0c-2.321882 51.509141-15.600303 100.07423-37.131689 143.837966l24.479531 24.479531C849.584622 104.973052 866.050642 48.019922 868.556719-12.665205z"  horiz-adv-x="1024" />

    
    <glyph glyph-name="daituikuan" unicode="&#58992;" d="M425.20710913 317.07118826C420.00763818 317.07118826 415.44149637 320.36789831 413.84421335 325.27412905000006L413.22824865 327.16521917 413.20786765 328.94353025 413.20862323 415.25403589 323.16297559 415.25403589 321.18599847 415.8836522C316.21525135 417.46702981 312.875 421.99459231 312.875 427.15027972 312.875 432.30447162 316.20694814 436.82008649 321.16561993 438.38628589L322.95161622 438.95092273 413.20862323 439.00395127 413.20862323 487.45380743 323.1569375 487.45380743 321.18901917 488.08118252C316.2295951 489.66306876 312.89839923 494.18166724 312.89839923 499.32615271 312.89839923 504.46764798 316.23185937 508.98624646 321.19279214 510.5711196L323.08145236 511.17459366 324.89915271 511.19475879 413.20786765 511.19401309 413.20786765 541.27295819 322.58852685 628.9532342800001 321.57701563 630.5657377699999C318.80139866 634.9909807399999 319.29054788 640.77628198 322.76667593 644.63539096 324.86367483 646.9917853 328.21524924 648.37499973 331.76912754 648.37499973 334.73874274 648.37499973 337.46529367 647.44215171 339.46869071 645.74599585L425.58831604 562.11752508 507.26257363 641.80323697C509.47129114 643.67565583 512.30578851 644.70410385 515.26634494 644.70410385 518.7719103 644.70410385 522.02082736 643.31939475 524.18047964 640.90623843 526.3182381 638.51324725 527.38787414 635.4555359799999 527.18708142 632.3022263400001 527.06102154 630.36557373 526.48355624 628.5409577600001 525.47053302 626.89110928L524.60621908 625.4847395300001 523.13197855 623.97978369 437.20635144 540.6082381 437.20635144 511.19177188 525.61320093 511.19177188C532.17443741 511.19177188 537.51279916 505.90015668 537.51279916 499.39486478 537.51279916 494.23843167 534.17934231 489.71012018 529.21916265 488.12674173L527.20746326 487.4844288 525.52714502 487.45231604 437.20635144 487.45231604 437.20635144 438.99424155 525.61320093 438.99424155C532.17443741 438.99424155 537.51279916 433.70113083 537.51279916 427.19583893 537.51279916 422.04015152 534.17934231 417.51184332 529.21916265 415.92846488L527.20746326 415.28615195 525.52714502 415.25403589 437.20257846 415.25403589 437.20257846 327.22721173 436.56698504 325.27412905000006C434.96970532 320.36789831 430.4043158 317.07118826 425.20710913 317.07118826L425.20710913 317.07118826ZM758.61267548 475.65342151C762.13262579 388.20170938 731.37195541 304.97461231 671.99845526 241.30432763 612.62597353 177.63513637999995 531.74787894 141.14431750000006 444.26314685 138.55482322 356.77735266 135.96529678000002 273.15761603 167.58655013999999 208.80678601 227.59466977 145.76657 286.38062246000004 108.52710675 365.89686007 103.94779206 451.49642148 99.38016049 536.88492837 127.73599587 619.10707718 183.79174827 683.01484699L196.701616 697.73227688 148.43737082 696.69036347C144.91114346 696.61573609 141.53659994 697.9080043 138.94187671 700.32762305 136.2886315 702.8018144499999 134.76311997 706.15551223 134.64905881 709.76876121 134.53097171 713.33674265 135.81004892 716.71396573 138.2499292 719.2905755300001 140.69647873 721.8732226 144.01375272 723.33753919 147.58885001 723.41255301L235.64072053 725.31080594C239.17866892 725.38472058 242.55461072 724.09727261 245.13995217 721.6864020099999 246.35798029 719.8336745 246.61180072 719.4284808699999 246.87491889 719.02993836L248.39263067 717.2827488099999C251.36954629 714.3709082299999 252.72377576 711.23310004 252.85773837 707.86477012L256.19496243 622.0223578499999C256.47079864 614.6666063299999 250.69425872 608.49305813 243.31786252 608.2731285899999 239.78497168 608.1791765400001 236.37731097 609.47577804 233.75166973 611.92422931 231.11167651 614.38606192 229.57776208 617.7108299500001 229.43496729 621.28551608L226.82059967 688.53239191 212.78832938 673.93842883C211.50142359 672.6834644200001 210.990603 672.18658878 210.49906094 671.65947491 98.27503338 551.3139383299999 105.92884537 361.12933721 227.56070932 247.70578966999994 349.19477741 134.28018549 539.45165921 139.91007935000005 651.67568677 260.25561511 763.90124609 380.60279305999995 756.24730227 570.7905763599999 634.61323337 684.21618054 569.01804102 745.38468713 480.41786566 774.27499447 391.53174146 763.4785936000001 385.43416373 762.0079356900001 380.5699013 763.12385605 377.12112673 766.33988993 371.29514175 771.77270966 370.92846894 780.88388965 376.30383127 786.64826028 377.53395779 787.96740903 379.14448125 789.02373788 381.21987637 789.87021524 384.34703306 790.73773032 386.23874444 790.90686017 388.28241653 790.67999524 486.70890933 801.76781369 582.62252182 770.29161695 653.36410302 704.32402515 717.71493223 644.31590634 755.09272516 563.10513281 758.61267548 475.65342151ZM788.43561579-37.874976100000026C708.24006714-37.874976100000026 642.93150837 27.330023900000015 642.93150837 107.54252169999995 642.93150837 187.7550228 708.24006714 252.96002280000005 788.43561579 252.96002280000005 868.6311636 252.96002280000005 933.875 187.7550228 933.875 107.54252169999995 933.875 27.330023900000015 868.6311636-37.874976100000026 788.43561579-37.874976100000026L788.43561579-37.874976100000026ZM776.00822061 109.71381097999995L776.00822061 182.06252170000005C776.00822061 188.98408640000002 781.57465854 194.54721029999996 788.50034146 194.54721029999996 795.36130118 194.54721029999996 801.05719046 188.98408640000002 801.05719046 182.06252170000005L801.05719046 120.02721029999998 848.825 120.02721029999998C855.68595972 120.02721029999998 861.31712414 114.33470920000002 861.31712414 107.54252169999995 861.31712414 100.62096029999998 855.7506854 95.05783640000004 848.825 95.05783640000004L788.3061636 95.05783640000004C781.44520389 95.05783640000004 775.81404028 100.62096029999998 775.81404028 107.54252169999995 775.81404028 108.28126521000002 775.88065616 109.00699483999995 776.00822061 109.71381097999995ZM788.43561579 227.92596030000004C722.02671225 227.92596030000004 668.04520389 173.8472114 668.04520389 107.54252169999995 668.04520389 41.23783530000003 722.02671225-12.840913600000022 788.43561579-12.840913600000022 854.77979611-12.840913600000022 908.82602685 41.23783530000003 908.82602685 107.54252169999995 908.82602685 173.8472114 854.77979611 227.92596030000004 788.43561579 227.92596030000004Z"  horiz-adv-x="1025" />

    
    <glyph glyph-name="erweima" unicode="&#58946;" d="M384 832l-249.6 0c-51.2 0-89.6-41.6-89.6-89.6l0-227.2c0-51.2 41.6-89.6 89.6-89.6l249.6 0c51.2 0 89.6 41.6 89.6 89.6l0 227.2C473.6 790.4 435.2 832 384 832zM428.8 515.2c0-25.6-19.2-44.8-44.8-44.8l-249.6 0c-25.6 0-44.8 19.2-44.8 44.8l0 227.2c0 25.6 19.2 44.8 44.8 44.8l249.6 0c25.6 0 44.8-19.2 44.8-44.8L428.8 515.2zM192 704l134.4 0 0-134.4-134.4 0 0 134.4ZM377.6 352l-243.2 0c-48 0-86.4-38.4-86.4-89.6l0-220.8c0-48 38.4-89.6 86.4-89.6l243.2 0c48 0 86.4 38.4 86.4 89.6l0 220.8C467.2 313.6 425.6 352 377.6 352zM422.4 44.8c0-25.6-19.2-44.8-44.8-44.8l-243.2 0c-25.6 0-44.8 19.2-44.8 44.8l0 220.8c0 25.6 19.2 44.8 44.8 44.8l243.2 0c25.6 0 44.8-19.2 44.8-44.8L422.4 44.8zM192 227.2l131.2 0 0-131.2-131.2 0 0 131.2ZM633.6 425.6l249.6 0c51.2 0 89.6 41.6 89.6 89.6l0 227.2c0 51.2-41.6 89.6-89.6 89.6l-249.6 0c-51.2 0-89.6-41.6-89.6-89.6l0-227.2C544 464 585.6 425.6 633.6 425.6zM588.8 742.4c0 25.6 19.2 44.8 44.8 44.8l249.6 0c25.6 0 44.8-19.2 44.8-44.8l0-227.2c0-25.6-19.2-44.8-44.8-44.8l-249.6 0c-25.6 0-44.8 19.2-44.8 44.8L588.8 742.4zM700.8 704l134.4 0 0-134.4-134.4 0 0 134.4ZM572.8 179.2l137.6 0c12.8 0 22.4 9.6 22.4 22.4l0 137.6c0 12.8-9.6 22.4-22.4 22.4l-137.6 0c-12.8 0-22.4-9.6-22.4-22.4l0-137.6C550.4 188.8 560 179.2 572.8 179.2zM886.4 332.8l0-38.4c0-12.8 12.8-25.6 25.6-25.6l38.4 0c12.8 0 25.6 12.8 25.6 25.6l0 38.4c0 12.8-12.8 25.6-25.6 25.6l-38.4 0C899.2 358.4 886.4 348.8 886.4 332.8zM582.4-48l48 0c12.8 0 22.4 9.6 22.4 22.4l0 48c0 12.8-9.6 22.4-22.4 22.4l-48 0c-12.8 0-22.4-9.6-22.4-22.4l0-48C560-38.4 569.6-48 582.4-48zM944 192l-99.2 0c-16 0-28.8-12.8-28.8-28.8l0-44.8-48 0c-19.2 0-32-12.8-32-32l0-99.2c0-16 12.8-28.8 28.8-28.8l179.2-3.2c16 0 28.8 12.8 28.8 28.8l0 179.2C972.8 179.2 960 192 944 192z"  horiz-adv-x="1024" />

    
    <glyph glyph-name="saoyisao" unicode="&#58953;" d="M864 848l-697.6 0c-48 0-83.2-41.6-83.2-89.6l0-208c0-12.8 9.6-25.6 22.4-25.6s22.4 9.6 22.4 25.6l0 208c0 22.4 16 41.6 38.4 41.6l697.6 0c22.4 0 38.4-19.2 38.4-41.6l0-208c0-12.8 9.6-25.6 22.4-25.6s22.4 9.6 22.4 25.6l0 208C947.2 806.4 908.8 848 864 848zM924.8 214.4c-12.8 0-22.4-9.6-22.4-25.6l0-179.2c0-22.4-16-41.6-38.4-41.6l-697.6 0c-22.4 0-38.4 19.2-38.4 41.6L128 192c0 12.8-9.6 25.6-22.4 25.6s-22.4-9.6-22.4-25.6l0-179.2c0-51.2 38.4-89.6 83.2-89.6l697.6 0c48 0 83.2 41.6 83.2 89.6L947.2 192C947.2 204.8 937.6 214.4 924.8 214.4zM921.6 352c12.8 0 22.4 9.6 22.4 22.4 0 12.8-9.6 22.4-22.4 22.4l-819.2 0c-12.8 0-22.4-9.6-22.4-22.4 0-12.8 9.6-22.4 22.4-22.4L921.6 352z"  horiz-adv-x="1024" />

    
    <glyph glyph-name="shijian" unicode="&#58957;" d="M512 832c-256 0-460.8-208-460.8-460.8s208-460.8 460.8-460.8 460.8 208 460.8 460.8S768 832 512 832zM512-44.8c-227.2 0-412.8 185.6-412.8 412.8s185.6 412.8 412.8 412.8 412.8-185.6 412.8-412.8S742.4-44.8 512-44.8zM809.6 352l-278.4 0 0 281.6c0 12.8-9.6 22.4-22.4 22.4-12.8 0-22.4-9.6-22.4-22.4l0-307.2c0-12.8 9.6-22.4 22.4-22.4 0 0 3.2 0 3.2 0l297.6 0c12.8 0 22.4 9.6 22.4 22.4C832 342.4 822.4 352 809.6 352z"  horiz-adv-x="1024" />

    
    <glyph glyph-name="sousuo" unicode="&#58961;" d="M966.4-28.8l-230.4 227.2c60.8 67.2 96 156.8 96 256 0 217.6-176 390.4-390.4 390.4-217.6 0-390.4-176-390.4-390.4 0-217.6 176-390.4 390.4-390.4 99.2 0 188.8 35.2 256 96l230.4-227.2c9.6-9.6 28.8-9.6 38.4 0C979.2-54.4 979.2-38.4 966.4-28.8zM102.4 454.4c0 185.6 150.4 339.2 339.2 339.2s339.2-150.4 339.2-339.2c0-89.6-35.2-172.8-92.8-233.6-3.2 0-3.2-3.2-6.4-3.2-3.2-3.2-3.2-3.2-3.2-6.4-60.8-57.6-144-92.8-233.6-92.8C256 115.2 102.4 268.8 102.4 454.4z"  horiz-adv-x="1024" />

    
    <glyph glyph-name="xiangshangjiantou" unicode="&#58973;" d="M966.4 227.2l-435.2 432c-9.6 9.6-25.6 9.6-35.2 0l-441.6-432c-9.6-9.6-9.6-25.6 0-35.2 9.6-9.6 25.6-9.6 35.2 0l425.6 416 416-416c9.6-9.6 25.6-9.6 35.2 0S976 217.6 966.4 227.2z"  horiz-adv-x="1024" />

    
    <glyph glyph-name="xiangxiajiantou" unicode="&#58974;" d="M966.4 572.8c-9.6 9.6-25.6 9.6-35.2 0l-416-416-425.6 416c-9.6 9.6-25.6 9.6-35.2 0-9.6-9.6-9.6-25.6 0-35.2l441.6-432c9.6-9.6 25.6-9.6 35.2 0l435.2 432C976 550.4 976 563.2 966.4 572.8z"  horiz-adv-x="1024" />

    
    <glyph glyph-name="xiangyoujiantou" unicode="&#58975;" d="M761.6 406.4l-432 435.2c-9.6 9.6-25.6 9.6-35.2 0-9.6-9.6-9.6-25.6 0-35.2l416-416-416-425.6c-9.6-9.6-9.6-25.6 0-35.2s25.6-9.6 35.2 0l432 441.6C771.2 380.8 771.2 396.8 761.6 406.4z"  horiz-adv-x="1024" />

    
    <glyph glyph-name="xiangzuojiantou" unicode="&#58976;" d="M729.6-35.2l-416 425.6 416 416c9.6 9.6 9.6 25.6 0 35.2-9.6 9.6-25.6 9.6-35.2 0l-432-435.2c-9.6-9.6-9.6-25.6 0-35.2l432-441.6c9.6-9.6 25.6-9.6 35.2 0C739.2-60.8 739.2-44.8 729.6-35.2z"  horiz-adv-x="1024" />

    
    <glyph glyph-name="yijianfankui" unicode="&#58978;" d="M873.6 620.8c-16 0-25.6-12.8-25.6-25.6l0-550.4c0-28.8-22.4-51.2-51.2-51.2l-643.2 0c-28.8 0-51.2 22.4-51.2 51.2l0 646.4c0 28.8 22.4 51.2 51.2 51.2l521.6 0c16 0 25.6 12.8 25.6 25.6 0 12.8-12.8 25.6-25.6 25.6l-521.6 0c-57.6 0-105.6-48-105.6-102.4l0-646.4c0-57.6 48-102.4 105.6-102.4l643.2 0c57.6 0 105.6 44.8 105.6 102.4l0 550.4C899.2 611.2 889.6 620.8 873.6 620.8zM483.2 534.4l-278.4 0c-16 0-25.6-12.8-25.6-25.6 0-12.8 12.8-25.6 25.6-25.6l278.4 0c16 0 25.6 12.8 25.6 25.6C508.8 524.8 496 534.4 483.2 534.4zM179.2 329.6c0-12.8 12.8-25.6 25.6-25.6l460.8 0c16 0 25.6 12.8 25.6 25.6 0 12.8-12.8 25.6-25.6 25.6l-460.8 0C192 355.2 179.2 342.4 179.2 329.6zM969.6 838.4c-9.6 9.6-25.6 9.6-38.4 0l-326.4-323.2c-9.6-9.6-9.6-25.6 0-35.2s25.6-9.6 38.4 0l326.4 323.2C979.2 812.8 979.2 828.8 969.6 838.4z"  horiz-adv-x="1024" />

    
    <glyph glyph-name="daishouhuo" unicode="&#58993;" d="M927.71 297.496c10.214 0 19.54 0 29.445 0 0-2.047 0-3.868 0-5.69 0-62.758 0.001-125.517-0.002-188.274 0-7.196-0.986-8.17-8.324-8.171-35.643-0.002-71.289-0.244-106.925 0.206-7.931 0.1-11.634-4.304-15.371-9.614-3.186-4.526-6.8-8.917-9.048-13.899-4.395-9.738-12.405-16.217-20.292-22.301-7.286-5.619-14.111-12.6-23.72-14.713-0.33-0.073-0.792-0.074-0.955-0.289-6.908-9.168-17.569-6.258-26.673-8.488-7.355-1.802-14.272-5.715-22.191-4.428-6.622 1.077-13.193 2.456-19.793 3.668-4.319 0.793-8.652 1.511-12.972 2.297-1.325 0.241-2.752 0.353-3.922 0.941-11.357 5.707-22.781 11.295-32.388 19.89-3.269 2.925-7.237 5.129-10.238 8.279-4.305 4.517-8.049 9.574-11.971 14.45-2.233 2.777-4.471 5.568-6.459 8.519-1.288 1.912-2.608 4.023-3.076 6.223-1.117 5.26-5.028 9.016-10.498 9.213-3.407 0.122-6.82 0.048-10.231 0.049-74.866 0.002-149.733-0.127-224.598 0.182-8.309 0.034-12.81-4.218-15.847-10.317-7.647-15.357-18.817-27.756-31.874-38.351-6.373-5.172-14.348-8.352-21.52-12.567-2.738-1.609-5.029-4.382-7.93-5.221-4.985-1.441-10.294-1.742-15.455-2.599-2.826-0.47-5.801-0.668-8.409-1.727-10.228-4.157-20.289-3.815-30.725-0.53-6.057 1.906-12.603 2.201-18.835 3.631-3.174 0.729-6.208 2.221-9.176 3.64-1.634 0.782-2.862 2.766-4.506 3.118-10.989 2.354-17.763 10.991-26.391 16.922-11.822 8.126-17.405 21.396-27.399 30.911-0.659 0.627-1.004 1.745-1.181 2.692-1.373 7.35-4.608 10.188-11.978 10.2-19.783 0.031-39.565-0.007-59.348 0.031-10 0.019-15.493 5.401-15.533 15.662-0.025 6.254 0.904 12.512 0.911 18.768 0.073 63.952 0.045 127.904 0.045 191.856 0 8.237-0.177 16.478 0.112 24.705 0.082 2.346 0.96 5.098 2.422 6.89 6.323 7.754 13.04 15.186 19.535 22.801 9.329 10.938 18.592 21.931 27.881 32.904 10.917 12.895 21.761 25.852 32.763 38.673 11.826 13.781 23.852 27.391 35.694 41.159 8.924 10.375 17.716 20.863 26.522 31.34 2.75 3.27 6.13 4.303 10.376 4.266 20.292-0.175 40.587-0.13 60.882-0.063 2.52 0.008 5.224 0.141 7.515 1.046 3.8 1.498 5.304 4.568 5.289 8.877-0.139 40.587-0.111 81.176-0.121 121.764-0.003 11.171 8.479 20.239 19.59 20.273 41.952 0.126 83.905 0.052 125.857 0.041 0.814 0 1.627-0.137 2.661-0.23 0-11.115 0-21.941 0-33.51-2.194 0-4.174-0.001-6.154 0-29.844 0.015-59.688 0.077-89.532-0.014-3.354-0.01-6.849-0.435-10.024-1.457-4.556-1.466-7.112-5.013-7.554-9.873-0.123-1.353-0.024-2.727-0.024-4.091-0.003-128.245-0.003-256.49-0.011-384.734 0-6.896-3.76-13.199-8.812-13.764-4.37-0.489-8.948-0.628-13.253 0.122-10.61 1.848-12.565 4.206-12.589 15.353-0.119 54.913-0.083 109.826-0.097 164.739-0.006 24.217 0.007 48.433-0.008 72.65-0.004 6.693-1.973 8.884-8.668 9.076-14.115 0.403-28.24 0.509-42.353 0.974-8.063 0.266-11.983-5.735-16.546-10.548-7.841-8.271-15.463-16.764-22.867-25.429-4.353-5.095-8.096-10.708-12.134-16.073-1.215-1.614-2.43-3.235-3.757-4.755-10.484-12.022-21.079-23.948-31.476-36.045-12.387-14.413-24.569-29.005-36.926-43.444-5.848-6.834-12.224-13.244-17.684-20.365-1.945-2.539-2.628-6.61-2.637-9.984-0.152-59.518-0.003-119.036-0.189-178.554-0.046-14.576 0.585-18.366 17.494-17.52 9.356 0.469 18.755 0.079 28.135 0.077 7.226-0.002 14.525 0.596 21.645-0.276 3.197-0.392 7.019-3.079 8.828-5.853 3.62-5.552 5.817-12.01 9.061-17.838 1.781-3.199 4.437-5.925 6.804-8.778 4.533-5.465 8.504-11.638 13.887-16.091 5.94-4.913 11.184-11.351 19.529-12.846 1.266-0.227 2.783-0.951 3.513-1.94 2.848-3.863 7.216-4.778 11.237-4.855 10.786-0.205 21.586 0.372 32.379 0.649 0.509 0.013 1.105-0.032 1.509 0.206 6.982 4.106 14.461 7.59 20.77 12.558 7.703 6.067 14.577 13.234 21.47 20.258 2.232 2.275 3.106 5.823 5.104 8.398 4.782 6.161 7.017 13.661 10.776 20.155 4.781 8.256 14.606 7.814 23.42 6.98 2.181-0.207 4.355-0.691 6.534-0.692 82.199-0.037 164.399-0.033 246.598-0.035 7.736 0 15.478 0.149 23.208-0.072 4.999-0.143 8.697-3.877 9.537-8.851 0.196-1.162 0.27-2.5 0.899-3.413 6.685-9.695 12.888-19.81 20.424-28.802 5.522-6.587 12.151-12.85 19.521-17.129 8.999-5.225 17.574-12.481 29.613-10.722 8.604 1.258 17.443 0.907 26.177 1.281 0.338 0.014 0.728 0.012 1.002 0.174 6.691 3.955 13.901 7.266 19.918 12.07 7.802 6.228 15.4 13.038 21.686 20.739 5.531 6.776 10.547 14.668 13.218 22.902 3.039 9.367 9.082 11.832 17.883 12.635 7.699 0.701 15.568-0.719 23.363-0.758 25.41-0.125 50.82-0.056 76.23-0.04 6.311 0.004 9.245 2.946 9.32 9.334 0.337 28.606 0.748 57.21 0.943 85.815 0.153 22.51 0.031 45.022 0.031 67.533-0.001 1.833-0.001 3.668-0.001 5.863zM954.736 572.357c1.736-9.797 3.479-19.592 5.192-29.392 0.174-0.998 0.212-2.029 0.214-3.045 0.017-6.883 0.188-13.773-0.088-20.644-0.096-2.397-1.652-4.706-1.944-7.128-0.55-4.533-0.346-9.168-1.036-13.671-0.966-6.314-2.426-12.554-3.746-18.809-0.714-3.385-2.03-6.705-2.293-10.114-0.906-11.718-5.856-22.255-10.729-32.421-7.78-16.232-16.397-32.276-28.684-45.718-8.841-9.672-18.676-18.428-27.711-27.932-12.172-12.806-27.715-20.766-42.414-29.866-5.851-3.623-12.886-5.339-19.397-7.885-5.487-2.145-10.882-4.626-16.521-6.254-8.123-2.344-16.369-4.385-24.682-5.9-4.747-0.866-9.752-0.212-14.6-0.671-2.616-0.248-5.118-1.884-7.722-2.037-4.605-0.271-9.249 0.169-13.877 0.202-3.739 0.027-7.492-0.334-11.215-0.119-5.14 0.297-10.259 0.966-15.385 1.489-1.01 0.103-2.131 0.626-3.003 0.345-11.03-3.554-21.283 1.539-31.296 4.025-13.504 3.352-26.372 9.491-39.257 15.026-8.749 3.759-17.432 7.95-25.463 13.027-7.518 4.753-14.494 10.541-21.068 16.572-8.857 8.126-17.459 16.596-25.519 25.506-11.553 12.772-21.702 26.591-28.492 42.643-4.029 9.526-8.859 18.725-12.619 28.349-2.523 6.456-4.479 13.298-5.486 20.145-1.604 10.901-0.984 22.251-3.593 32.847-2.302 9.351-0.536 18.457-1.469 27.636-0.573 5.634 1.336 11.503 1.972 17.284 1.069 9.731 0.926 19.749 3.298 29.14 2.611 10.336 7.365 20.151 11.414 30.1 3.19 7.835 5.945 16 10.27 23.191 9.501 15.797 20.377 30.578 33.426 43.851 11.561 11.759 23.592 22.945 37.294 31.912 10.8 7.069 22.075 13.719 34.704 17.558 6.907 2.099 13.464 5.325 20.318 7.632 7.526 2.533 15.279 4.297 23.006 6.133 8.262 1.964 16.155 0.926 24.183 1.533 9.801 0.74 19.57 2.177 29.377 2.441 4.858 0.131 9.735-1.963 14.662-2.57 9.357-1.151 18.955-1.086 28.085-3.15 9.27-2.096 18.116-6.099 27.107-9.375 3.698-1.347 7.194-3.317 10.952-4.417 15.546-4.549 28.169-14.241 40.81-23.61 18.171-13.465 33.551-29.677 47.309-47.832 8.519-11.241 14.554-23.612 20.946-35.77 5.173-9.838 9.697-20.385 11.01-31.937 0.698-6.138 3.136-12.078 4.788-18.107-0.342-0.068-0.685-0.137-1.027-0.207zM740.316 719.204c-0.061 0.483-0.124 0.965-0.185 1.448-9.907-1.548-19.848-2.905-29.706-4.716-6.059-1.113-11.973-2.994-17.983-4.399-5.034-1.177-10.411-1.442-15.108-3.385-9.541-3.948-18.906-8.422-28.018-13.288-16.028-8.557-30.129-19.913-43.041-32.538-11.729-11.468-21.814-24.462-29.544-39.023-4.974-9.371-9.648-18.949-13.692-28.75-2.585-6.265-3.86-13.083-5.575-19.691-2.592-9.991-6.693-19.94-7.149-30.042-0.543-12.077-3.605-24.741 2.448-36.547 0.424-0.826 0.422-2.103 0.138-3.022-1.845-5.963 1.187-11.296 3.028-16.307 3.709-10.099 5.308-20.701 9.692-30.79 5.118-11.779 11.9-22.433 17.973-33.519 3.918-7.152 9.937-13.175 15.159-19.586 11.586-14.221 26.5-24.576 41.421-34.795 6.622-4.535 13.896-8.23 21.179-11.661 7.749-3.65 15.713-6.989 23.856-9.613 6.803-2.191 14.002-3.152 21.026-4.659 6.549-1.405 13.059-3.751 19.654-4.015 12.27-0.49 24.542-1.829 36.807 2.355 9.841 3.356 20.344 5.055 30.689 6.577 12.232 1.798 22.765 7.626 33.252 13.255 9.267 4.974 17.596 11.685 26.398 17.539 18.258 12.141 31.916 28.677 44.297 46.399 2.59 3.707 4.675 7.803 6.697 11.867 4.335 8.718 8.865 17.372 12.567 26.36 2.783 6.756 3.702 14.308 6.695 20.943 4.871 10.797 5.816 22.293 6.48 33.633 0.632 10.818 2.013 21.89-1.773 32.69-1.521 4.338-1.316 9.254-2.246 13.835-0.586 2.888-1.924 5.615-2.745 8.466-2.262 7.849-3.394 16.217-6.854 23.486-6.573 13.81-13.096 27.992-22.078 40.231-18.16 24.748-40.405 45.066-68.359 59.244-13.684 6.94-27.531 12.255-42.238 15.833-9.07 2.206-18.142 4.523-27.338 6.035-5.146 0.846-10.543 0.152-15.826 0.152zM713.611 589.5550000000001c0 26.247-0.01 52.495 0.007 78.741 0.004 6.358 0.673 6.989 7.051 7.007 5.283 0.014 10.574-0.166 15.849 0.053 4.419 0.184 6.121-1.67 6.076-6.017-0.126-12.1-0.041-24.201-0.04-36.303 0.001-30.849-0.005-61.698 0.005-92.547 0.002-6.529 1.507-8.102 8.085-8.11 26.589-0.037 53.176-0.011 79.765-0.021 7.273-0.003 7.867-0.611 7.876-7.857 0.006-4.943-0.148-9.891 0.043-14.827 0.181-4.664-1.989-6.383-6.449-6.365-18.577 0.077-37.155 0.029-55.732 0.028-18.407-0.001-36.814-0.014-55.222 0.008-6.475 0.008-7.304 0.86-7.308 7.468-0.015 26.247-0.006 52.494-0.006 78.741z"  horiz-adv-x="1024" />

    
    <glyph glyph-name="yunxing" unicode="&#58901;" d="M515.5184375 111.84421874999998c-147.38625 0-267.2915625 119.90953125-267.2915625 267.2915625s119.9053125 267.28734375 267.2915625 267.28734375 267.2915625-119.9053125 267.2915625-267.28734375S662.9046875 111.84421874999998 515.5184375 111.84421874999998zM515.5184375 583.14609375c-112.49296875 0-204.0103125-91.51734375-204.0103125-204.00609375 0-112.49296875 91.51734375-204.0103125 204.0103125-204.0103125 112.49296875 0 204.0103125 91.51734375 204.0103125 204.0103125C719.52875 491.62875 628.01140625 583.14609375 515.5184375 583.14609375zM385.28140625-31.601718750000032c-123.5671875 39.62671875-225.03234375 135.70453125-271.4259375 257.0146875-3.3665625 8.81296875-6.47578125 17.8284375-9.2390625 26.80171875l32.25234375 9.94359375c2.548125-8.26875 5.416875-16.5796875 8.51765625-24.6965625 42.76546875-111.830625 136.30359375-200.40328125 250.20984375-236.92921875L385.28140625-31.601718750000032zM639.22484375-34.677187499999945l-9.5175 32.383125c124.4784375 36.5934375 223.5009375 131.89921875 264.88265625 254.94328125l31.9865625-10.76203125C881.6890625 108.41015625 774.26703125 5.021250000000009 639.22484375-34.677187499999945zM897.4671875 497.64046875c-39.5634375 127.56234375-139.6575 226.2009375-267.7640625 263.8490625l9.5175 32.383125c138.9740625-40.85015625 247.5646875-147.8503125 290.4778125-286.23375L897.4671875 497.64046875zM136.16421875 494.73796875L103.8528125 504.4875c40.111875 132.94125 142.56421875 239.06390625 274.07109375 283.8796875l10.884375-31.944375C267.5825 715.10859375 173.13734375 617.28421875 136.16421875 494.73796875z"  horiz-adv-x="1024" />

    
    <glyph glyph-name="xueli" unicode="&#58881;" d="M502.213611 260.902404c-9.69378 0-19.166525 2.068102-25.326828 5.5279L53.409932 504.017444c-5.940292 3.338025-9.621125 9.619078-9.621125 16.437367 0 6.815219 3.681856 13.105482 9.621125 16.437367l423.524946 237.586117c12.099572 6.859221 38.334073 6.90834 50.630121-0.061398l423.414429-237.524718c5.940292-3.331885 9.621125-9.621125 9.621125-16.437367 0-6.817266-3.681856-13.099343-9.621125-16.437367L527.492344 266.412908C521.38116 262.964366 511.907391 260.902404 502.213611 260.902404zM495.343133 299.297876c0.195451 0 2.944052-0.699941 6.871501-0.699941 4.072759 0 6.797823 0.741897 7.509021 1.030469L903.246287 520.453788 509.061576 741.579001l0 0c-0.171915 0-2.921539 0.705058-6.846942 0.705058-4.099365 0-6.79987-0.735757-7.511067-1.02433L101.156376 520.453788 495.343133 299.297876 495.343133 299.297876zM502.336408-11.631666c-84.041068 0-162.759921 13.020548-221.659379 36.678364-50.677193 20.35663-81.084737 46.934962-81.317027 71.108524 0 0.833995-0.062422 1.632173-0.159636 2.405793l-0.159636 2.40477L199.04073 445.479213l37.696554 0 0-343.42156c0.157589-1.483794 0.257873-2.980891 0.293689-4.491291 1.939165-4.307096 15.754822-20.700461 57.697073-37.536918 54.530964-21.902846 128.267339-33.965579 207.609385-33.965579 79.368652 0 153.090701 12.062733 207.597105 33.965579 42.089607 16.897855 55.856146 33.340339 57.697073 37.561477l0.073678 1.681292-0.050142 346.18858 37.696554 0 0-347.404268-18.897396-1.730411 18.847254-0.184195c-0.243547-24.173562-30.651091-50.751894-81.329307-71.096245C665.119865 1.387859 586.390779-11.631666 502.336408-11.631666zM980.21017 428.109614M936.428014 88.718857c-10.407024 0-18.8493 8.429996-18.8493 18.847254L917.578714 399.328104c0 10.413164 8.442276 18.848277 18.8493 18.848277s18.8493-8.435113 18.8493-18.848277l0-291.761993C955.277314 97.149876 946.835038 88.718857 936.428014 88.718857z"  horiz-adv-x="1024" />

    
    <glyph glyph-name="yuyindaohangcaidan" unicode="&#59138;" d="M512.661 104.868c-164.755 0-290.196 127.55-292.211 290.611-0.007 1.267-0.015 132.955-0.015 134.145 0 8.99 4.938 16.073 13.918 16.073 8.98 0 13.485-7.085 13.485-16.073 0-1.195 0.007-131.635 0.012-133.86 1.795-145.23 117.768-263.496 264.808-263.496 146.428 0 267.513 117.74 269.913 262.481 0.03 3.445 0.04 133.303 0.04 134.873 0 8.99 5.03 16.09 14.01 16.09s13.39-7.103 13.39-16.09c0-1.332-0.005-133.635-0.04-135.478-2.69-162.3-133.24-289.276-297.313-289.276L512.661 104.868zM512.661-12.312c-8.98 0-11.143 2.155-11.143 11.14l0 114.14c0 8.99 2.162 11.14 11.143 11.14 8.98 0 16.26-2.155 16.26-11.14l0-114.14C528.921-10.157 521.641-12.312 512.661-12.312zM656.962-12.312 373.486-12.312c-8.98 0-16.068 4.62-16.068 13.605 0 8.99 7.088 13.8 16.068 13.8l283.476 0c8.98 0 16.2-5.935 16.2-14.925C673.162-8.817 665.942-12.312 656.962-12.312zM512.661 234.458c-93.62 0-159.543 70.33-159.543 163.055L353.118 622.374c0 92.735 65.923 163.058 159.543 163.058 93.625 0 164.67-70.323 164.67-163.058l0-224.861C677.332 304.788 606.287 234.458 512.661 234.458zM512.661 758.025c-75.688 0-132.14-60.855-132.14-135.653l0-224.858c0-74.795 56.453-135.655 132.14-135.655 75.685 0 137.265 60.86 137.265 135.655L649.926 622.372C649.927 697.172 588.352 758.025 512.661 758.025z"  horiz-adv-x="1024" />

    
    <glyph glyph-name="baocun" unicode="&#58902;" d="M804.8075-30.385312500000055L219.1934375-30.385312500000055c-31.0584375 0-60.6084375 10.051875-83.205 28.3040625-24.6271875 19.891875-38.7534375 49.0059375-38.7534375 90.0525l0 585.3375c0 43.629375 11.34 74.968125 38.7553125 96.76875 22.7353125 18.07875 52.145625 28.303125 83.2040625 28.303125L804.809375 798.380625c31.0584375 0 60.6075-10.051875 83.205-28.3040625 24.6271875-19.891875 38.7534375-43.554375 38.7534375-87.1734375l0-597.81c0-42.1471875-14.1253125-67.2834375-38.754375-87.1753125C865.4121875-20.333437499999945 835.865-30.385312500000055 804.8075-30.385312500000055zM199.9915625 755.233125c-26.641875 0-59.6090625-29.57625-59.6090625-59.8453125l0-613.179375c0-30.55875 37.7671875-69.4453125 64.4090625-69.4453125l609.6159375 0c34.08375 0 69.2090625 36.598125 69.2090625 61.7671875L883.6165625 692.50875c0 25.554375-32.4 62.7234375-64.4090625 62.7234375L199.9915625 755.233125 199.9915625 755.233125zM633.584 638.424m-68.4912 0a13.3771875 13.3771875 0 1 1 136.9824 0 13.3771875 13.3771875 0 1 1-136.9824 0ZM717.08 472.3392L306.8912 472.3392c-46.8912 0-85.0512 38.1312-85.0512 85.0512L221.84 752.8704c0 12.4224 10.08 22.5024 22.5024 22.5024 12.4176 0 22.5024-10.08 22.5024-22.5024l0-195.5088c0-22.08 17.9712-40.0512 40.0512-40.0512l410.1888 0c22.08 0 40.08 17.9712 40.08 40.0512L757.1648 750.4992c0 12.4176 10.08 22.5024 22.5024 22.5024 12.4224 0 22.5024-10.08 22.5024-22.5024l0-193.1088C802.16 510.4704 764 472.3392 717.08 472.3392z"  horiz-adv-x="1024" />

    
    <glyph glyph-name="danju" unicode="&#59004;" d="M881.2186 722.1934 774.903808 722.1934c-11.5579 0-20.9111-9.3624-20.9111-20.9111 0-11.5476 9.3532-20.9121 20.9111-20.9121l106.314752 0 0-703.151104L143.43168-22.780904 143.43168 680.370176l108.030976 0c11.5589 0 20.9111 9.3645 20.9111 20.9121 0 11.5487-9.3532 20.9111-20.9111 20.9111L143.43168 722.193376c-23.0554 0-41.8222-18.7566-41.8222-41.8232l0-703.151104c0-23.0564 18.7668-41.8232 41.8222-41.8232l737.78688 0c23.0554 0 41.8232 18.7668 41.8232 41.8232L923.04176 680.370176C923.0418 703.4368 904.2739 722.1934 881.2186 722.1934zM346.3393 679.0636 678.310912 679.0636c11.5589 0 20.9121 9.3624 20.9121 20.9121 0 11.5476-9.3532 20.9101-20.9121 20.9101l-64.123904 0c0.3072 2.818 0.7363 5.5951 0.7363 8.4961 0 56.5678-46.0298 102.5966-102.5966 102.5966-56.5678 0-102.5976-46.0288-102.5976-102.5966 0-2.901 0.4291-5.6781 0.7352-8.4961l-64.123904 0c-11.5589 0-20.9111-9.3624-20.9111-20.9101C325.4272 688.426 334.7804 679.0636 346.3393 679.0636zM451.5512 729.3819c0 33.5114 27.262 60.7744 60.7744 60.7744 33.5114 0 60.7744-27.263 60.7744-60.7744 0-2.942-0.6738-5.6781-1.1233-8.4961L452.673536 720.8858C452.224 723.7038 451.5512 726.441 451.5512 729.3819zM302.1066 474.5226l420.436992 0c11.5589 0 20.9111 9.3635 20.9111 20.9111s-9.3522 20.9121-20.9111 20.9121L302.106624 516.3458c-11.5589 0-20.9111-9.3645-20.9111-20.9121S290.5487 474.5226 302.1066 474.5226zM302.1066 294.8137l420.436992 0c11.5589 0 20.9111 9.3532 20.9111 20.9111s-9.3522 20.9121-20.9111 20.9121L302.106624 336.6369c-11.5589 0-20.9111-9.3542-20.9111-20.9121S290.5487 294.8137 302.1066 294.8137zM302.1066 115.1048l420.436992 0c11.5589 0 20.9111 9.3522 20.9111 20.9121 0 11.5579-9.3522 20.9101-20.9111 20.9101L302.106624 156.927c-11.5589 0-20.9111-9.3522-20.9111-20.9101C281.1955 124.457 290.5487 115.1048 302.1066 115.1048z"  horiz-adv-x="1024" />

    
    <glyph glyph-name="jiesuan" unicode="&#59010;" d="M260.125 307.12l546.277 0 0-50.089-546.277 0 0 50.089zM258.793 114.963l546.272 0 1.266-53.712-546.206 0-1.331 53.712zM553.801 503.666l252.6 0 0-50.914-252.6 0 0 50.914zM608.075 700.338l198.326 0 0-51.863-198.326 0 0 51.863zM851.983-96l-662.768 0c-43.677 0-79.163 37.266-79.163 82.977l0 794.046c0 45.712 35.486 82.977 79.163 82.977l662.768 0c43.677 0 79.162-37.266 79.162-82.977l0-793.985c0-45.773-35.55-83.038-79.162-83.038l0 0 0 0 0 0zM178.994 813.785c-8.952 0-16.444-9.398-16.444-20.444l0-818.68c0-11.113 7.555-20.444 16.444-20.444l683.271 0c8.952 0 16.442 9.398 16.442 20.444l0 818.68c0 11.11-7.555 20.444-16.442 20.444l-683.271 0zM473.112 555.916c7.173-12.253 10.857-26.603 10.857-43.044 0-25.141-7.492-46.149-22.474-62.915-15.047-16.758-36.63-26.722-65.007-29.706l0-43.107-36.058 0 0 42.915c-47.169 4.888-76.434 32.314-87.67 82.271l55.8 14.604c5.143-31.426 22.221-47.169 51.298-47.169 13.582 0 23.615 3.366 30.026 10.096 6.412 6.788 9.651 14.853 9.651 24.377 0 9.904-3.239 17.33-9.651 22.347-6.348 5.08-20.632 11.487-42.66 19.297-19.808 6.918-35.362 13.714-46.534 20.505-11.11 6.667-20.188 16.062-27.17 28.184-6.983 12.127-10.412 26.284-10.412 42.282 0 21.074 6.282 40.122 18.666 56.943 12.504 16.887 31.99 27.235 58.719 30.981l0 33.265 36.058 0 0-33.265c40.313-4.827 66.47-27.615 78.405-68.434l-49.837-20.441c-9.712 27.992-24.63 42.024-45.01 42.024-10.157 0-18.347-3.113-24.44-9.397-6.219-6.282-9.332-13.84-9.332-22.727 0-9.076 2.981-15.998 8.952-20.885 5.966-4.824 18.661-10.857 38.214-17.967 21.396-7.81 38.283-15.3 50.407-22.155 12.19-6.982 21.839-16.63 29.202-28.882l0 0 0 0 0 0z"  horiz-adv-x="1024" />

    
    <glyph glyph-name="unif053" unicode="&#58906;" d="M789.5-34.125l-468.75 0-39.375 65.625 508.125 0q114.375 0 196.875 82.5 80.625 82.5 80.625 198.75t-80.625 198.75q-82.5 82.5-196.875 82.5l-543.75 0 99.375-58.125 52.5-30q1.875 0 1.875-1.875 7.5-3.75 7.5-11.25 0-3.75-1.875-7.5l0 0 0 0-15-24.375 0-1.875q-3.75-7.5-13.125-7.5-3.75 0-5.625 1.875l-1.875 0-249.375 142.5q0 1.875-1.875 1.875-5.625 3.75-5.625 11.25l-1.875 0-13.125 26.25q-1.875 3.75-1.875 7.5 0 7.5 5.625 11.25 1.875 1.875 3.75 1.875l52.5 30 195 112.5q1.875 0 1.875 1.875l7.5 0q7.5 0 13.125-5.625l0-1.875 13.125-24.375 0-1.875q1.875-1.875 1.875-5.625 0-7.5-5.625-13.125-1.875 0-3.75-1.875l-52.5-30-97.5-56.25 558.75 0q142.5 0 243.75-101.25 99.375-101.25 99.375-245.625t-99.375-245.625q-101.25-101.25-243.75-101.25l0 0z"  horiz-adv-x="1240" />

    
    <glyph glyph-name="jiageyuce" unicode="&#58932;" d="M433.10410156 87.88505858999997l18.18105469 1.24716797c156.68349609 10.7578125 279.41923828 142.30019531 279.41923828 299.46884766 0 165.52880859-134.66601563 300.19658203-300.19306641 300.19658203-165.53144531 0-300.20185547-134.66777344-300.20185546-300.19658203 0-13.77861328 0.97294922-27.76113281 2.89160156-41.56347656l3.08759765-22.20556641h-55.47304687l-2.24208984 16.95849609c-2.04960937 15.49072266-3.08935547 31.24072266-3.08935547 46.81054688 0 195.76054687 159.26396484 355.02275391 355.02714843 355.02275391 195.75966797 0 355.02099609-159.26308594 355.0209961-355.02275391 0-22.5984375-2.17001953-45.26630859-6.4538086-67.43408203l175.46308594-102.40488281-34.80380859-59.62763672-161.07714844 94.01132812c-23.46503906-56.71933594-61.50058594-106.63681641-110.30273437-144.67060547-56.25527344-43.84511719-123.49951172-69.47314453-194.46591797-74.11289062l-20.78876953-1.36054688v54.88330078zM393.59287109 148.55595702999995v114.47841797h-88.44257812v48.40488281h88.44257812v57.21767578h-87.07236328v48.40576172h70.39423828l-106.68251953 165.81708985h63.18720703l89.64492188-141.41601563 89.65019531 141.41601563h65.36601563l-108.55371094-165.81708985h72.82177734v-48.40576172h-89.80664062v-57.21767578h88.44169922v-48.40488281h-88.44169922v-114.47841797z"  horiz-adv-x="1024" />

    
    <glyph glyph-name="duihuanjilu" unicode="&#58991;" d="M456.88888906 168.88888874999998L456.88888906 168.88888874999998c-7.11111094 0-14.22222188 3.55555594-19.55555531 8.88888844l-117.33333375 120.88888875c-10.66666687 10.66666687-10.66666687 26.66666625 0 37.33333312 10.66666687 10.66666687 26.66666625 10.66666687 37.33333312 0l99.55555594-101.33333343 216.88888875 222.22222218c10.66666687 10.66666687 26.66666625 10.66666687 37.33333313 0 10.66666687-10.66666687 10.66666687-26.66666625 0-37.33333312L476.44444438 177.77777812C471.11111094 172.44444468999995 464 168.88888874999998 456.88888906 168.88888874999998zM839.11111156 643.55555531l-37.33333312 0C794.66666656 727.11111094 727.11111125 792.88888875 643.55555563 792.88888875c-55.11111094 0-103.11111094-28.44444469-131.55555563-72.88888875C483.55555531 764.44444406 433.77777781 792.88888875 378.66666688 792.88888875c-83.55555563 0-151.11111094-65.77777781-158.22222188-149.33333344L183.11111094 643.55555531c-37.33333312 0-67.55555531-30.22222219-67.55555532-67.55555531l0-163.55555531c0-35.55555562 26.66666625-65.77777781 62.22222188-67.55555531l0-319.99999969c0-14.22222188 12.44444437-26.66666625 26.66666625-26.66666624l611.55555563 0c14.22222188 0 26.66666625 12.44444437 26.66666625 26.66666624L842.66666656 275.55555561999995c0 14.22222188-12.44444437 26.66666625-26.66666625 26.66666625s-26.66666625-12.44444437-26.66666625-26.66666625l0-223.99999968L232.88888844 51.55555593999998 232.88888844 344.88888843999996l37.33333312 0c14.22222188 0 26.66666625 12.44444437 26.66666625 26.66666625 0 14.22222188-12.44444437 26.66666625-26.66666625 26.66666625L183.11111094 398.22222188c-7.11111094 0-14.22222188 7.11111094-14.22222188 14.22222187l0 163.55555531c0 7.11111094 7.11111094 14.22222188 14.22222188 14.22222188l655.99999968 0c7.11111094 0 14.22222188-7.11111094 14.22222188-14.22222188l0-163.55555531c0-7.11111094-7.11111094-14.22222188-14.22222188-14.22222188l-85.33333312 0c-14.22222188 0-26.66666625-12.44444437-26.66666625-26.66666625 0-14.22222188 12.44444437-26.66666625 26.66666625-26.66666625l85.33333312 0c37.33333312 0 67.55555531 30.22222219 67.55555532 67.55555532l0 163.55555531C906.66666687 613.33333312 876.44444469 643.55555531 839.11111156 643.55555531zM378.66666688 739.55555531c53.33333344 0 97.7777775-42.66666656 104.88888843-96L275.55555594 643.55555531C280.88888844 698.6666662499999 325.33333344 739.55555531 378.66666688 739.55555531zM643.55555563 739.55555531c53.33333344 0 97.7777775-42.66666656 104.88888843-96L538.66666625 643.55555531C545.77777812 698.6666662499999 590.22222219 739.55555531 643.55555563 739.55555531z"  horiz-adv-x="1024" />

    
    <glyph glyph-name="zanwu" unicode="&#58891;" d="M356.509538 408.891077C390.852923 408.891077 418.697846 436.736 418.697846 471.079385 418.697846 505.422769 390.852923 533.267692 356.509538 533.267692 322.166154 533.267692 294.321231 505.422769 294.321231 471.079385 294.321231 436.736 322.166154 408.891077 356.509538 408.891077ZM667.451077 533.267692C633.107692 533.267692 605.262769 505.422769 605.262769 471.079385 605.262769 436.736 633.107692 408.891077 667.451077 408.891077 701.794462 408.891077 729.639385 436.736 729.639385 471.079385 729.639385 505.422769 701.794462 533.267692 667.451077 533.267692ZM511.960615 856.615385C250.958769 856.615385 39.384615 645.001846 39.384615 384 39.384615 122.998154 250.958769-88.615385 511.960615-88.615385 773.001846-88.615385 984.576 122.998154 984.576 384 984.576 645.001846 773.001846 856.615385 511.960615 856.615385ZM511.960615-57.501538C268.130462-57.501538 70.459077 140.169846 70.459077 384 70.459077 627.830154 268.130462 825.501538 511.960615 825.501538 755.830154 825.501538 953.501538 627.830154 953.501538 384 953.501538 140.169846 755.830154-57.501538 511.960615-57.501538ZM706.205538 199.719385C655.872 248.32 587.460923 278.291692 511.960615 278.291692 435.515077 278.291692 366.198154 247.571692 315.707077 197.868308 315.667692 197.474462 315.667692 197.12 315.628308 196.765538 310.547692 192.196923 307.278769 185.659077 307.278769 178.294154 307.278769 164.548923 318.424615 153.403077 332.169846 153.403077 343.945846 153.403077 353.713231 161.595077 356.312615 172.583385 358.124308 172.583385 359.857231 172.583385 361.668923 172.583385 401.998769 207.438769 454.498462 228.548923 511.960615 228.548923 569.462154 228.548923 621.961846 207.438769 662.291692 172.583385 664.497231 172.583385 666.663385 172.583385 668.829538 172.583385 671.625846 161.870769 681.275077 153.915077 692.854154 153.915077 706.56 153.915077 717.705846 165.060923 717.705846 178.806154 717.705846 187.588923 713.097846 195.268923 706.205538 199.719385Z"  horiz-adv-x="1024" />

    
    <glyph glyph-name="daichuli" unicode="&#58930;" d="M589.94-35.646c8.6 1.637 17.196 3.274 25.382 5.322 5.325 1.229 10.236 4.911 13.103 9.413 2.867 4.916 3.688 10.647 2.457 15.97-2.457 9.416-10.645 15.968-20.471 15.968-1.639 0-3.276-0.409-4.913-0.819-7.776-2.047-15.146-3.686-22.928-4.915-11.462-2.044-18.832-13.1-16.782-24.562 0.817-5.321 4.093-10.232 8.595-13.511 3.686-2.456 7.781-3.684 11.875-3.684C587.485-36.057 588.711-36.057 589.94-35.646zM896.992 488.798c2.045 0 4.503 0.41 6.547 1.229 11.056 3.685 17.196 15.559 13.512 26.612-2.864 8.188-5.729 16.375-9.006 24.563-3.275 8.188-11.053 13.101-19.649 13.101-2.865 0-5.322-0.41-7.78-1.639-5.32-2.045-9.415-6.141-11.463-11.053-2.047-4.913-2.457-11.053 0-15.966 2.865-7.369 5.731-14.739 8.188-22.108 1.229-4.093 4.095-7.779 7.777-10.646C888.396 490.025 892.488 488.798 896.992 488.798L896.992 488.798zM715.22 11.438c3.683 0 7.366 0.817 10.644 2.862 7.369 4.503 15.146 9.009 22.105 13.513 4.505 3.274 7.779 7.777 9.008 13.51 1.228 5.32 0 11.054-2.864 15.967-4.097 5.73-10.646 9.416-17.605 9.416-4.094 0-8.188-1.229-11.462-3.686-6.552-4.503-13.103-8.598-20.062-12.28-10.236-5.733-13.51-18.835-7.779-28.659 1.64-2.867 3.685-4.911 6.143-6.55C706.618 13.072 710.713 11.438 715.22 11.438L715.22 11.438zM905.179 356.561c3.275-2.455 7.369-3.685 11.466-3.685l0.406 0c11.466 0 20.883 9.416 20.883 20.472 0 8.597 0 17.194-0.411 25.792-0.408 11.462-9.825 20.062-20.878 20.062l-0.819 0c-11.466-0.409-20.471-10.236-20.061-21.698 0.409-7.779 0.409-15.558 0-23.337C896.174 367.206 899.45 360.656 905.179 356.561zM849.091 156.774c-3.684 2.863-8.188 4.092-12.69 4.092-6.551 0-12.691-3.275-16.784-8.598-4.505-6.142-9.417-12.281-14.738-18.424-7.368-9.008-6.552-22.107 2.456-29.479 0.407-0.407 0.817-0.815 1.638-1.226 3.686-2.458 7.778-3.687 12.282-3.687 6.14 0 11.874 2.867 15.967 7.369 5.73 6.551 11.052 13.511 16.374 20.47C860.146 136.304 858.1 149.812 849.091 156.774zM905.179 282.458c-2.046 0.819-4.093 0.819-6.142 0.819-9.414 0-17.194-5.731-20.062-14.736-2.455-7.37-4.912-14.739-7.776-22.109-3.274-9.008-0.408-19.24 7.368-24.562 1.229-0.818 2.866-1.639 4.505-2.456 2.453-0.819 4.911-1.23 7.369-1.23 8.596 0 16.375 5.322 19.65 13.513 2.866 7.778 5.731 15.968 8.597 24.562C922.375 266.902 916.234 278.774 905.179 282.458zM819.206 657.063c2.047 0 4.094 1.226 4.909 2.455 0.819 1.229 1.229 3.276 0.409 5.322l-30.702 110.54-32.343-46.672-11.872 7.779C679.19 783.566 597.72 808.542 513.382 808.542c-24.563 0-49.129-2.048-73.692-6.55-10.646-2.048-21.699-4.095-32.342-6.96l-1.229-0.41c-94.571-24.155-175.635-78.605-234.176-156.802l-0.818-1.226c0-0.41-0.41-0.41-0.41-0.819-2.048-2.867-4.096-5.322-5.731-8.188-3.276-4.503-6.141-9.008-9.008-13.511l-0.819-1.637c-48.307-74.51-71.235-160.485-67.551-248.916 0-0.41 0-0.819 0-1.229 0.408-8.187 1.229-16.785 2.047-25.383l0.41-1.639c0.819-9.006 2.048-17.604 3.687-25.792 15.146-87.61 56.497-167.033 119.136-228.854l0 0 0.41-0.41c16.785-16.375 35.207-31.933 54.449-45.442 51.177-36.025 108.492-60.184 169.493-70.827 1.229-0.408 2.455-0.408 3.685-0.408 10.235 0 18.832 7.369 20.47 17.193 0.818 5.73-0.409 11.056-3.276 15.559-3.273 4.503-8.187 7.78-13.511 8.598-32.752 5.732-64.275 15.967-94.163 29.887l-0.407 0.409c-0.41 0-0.41 0.409-0.818 0.409-6.959 3.273-13.92 6.55-20.062 10.234l0 0-0.41 0-2.048 1.229c-11.872 6.551-23.334 13.919-34.387 21.699-83.52 58.954-139.198 146.977-156.803 248.096-17.604 101.124 5.322 202.654 64.278 286.173 25.793 36.846 57.723 68.369 94.16 93.754l1.229 0.816c64.685 44.627 140.016 67.962 218.621 67.962 75.737 0 149.021-22.109 212.07-64.276l12.281-8.188-32.343-47.081L819.206 657.063zM736.506 231.283c5.321 0 10.233 2.868 12.69 7.779 3.687 6.96 0.818 15.558-6.141 19.241l-237.452 122.82L505.603 640.276c0 7.778-6.55 14.329-14.33 14.329s-14.327-6.55-14.327-14.329L476.946 363.93l253.008-131.009C732.003 231.693 734.049 231.283 736.506 231.283z"  horiz-adv-x="1024" />

    
    <glyph glyph-name="weifangtan" unicode="&#58954;" d="M516.688-43.984 516.688 364.944l188 69.52c-47.008 122.8-110.64 228.24-143.776 279.264L53.68 400.336c-39.968-25.472-42-55.872-28.56-84.912 14.64-31.968 23.408-48.832 38.656-77.04 15.28-28.256 42.384-41.264 79.744-26.016 17.072 7.008 145.488 59.536 277.904 113.6l0-370.704c-72.32-4.048-124.928-15.472-126.4-29.12l-0.128 0.512c-0.064-4.352 0-14.48 0-16.8 0-14.352 70.416-29.184 182.528-29.184 112.64 0 182.656 14.832 182.656 29.184l0 15.696C660.08-59.568 598.608-47.088 516.688-43.984zM675.264 852.064c-47.6-26.288-84.528-70.224-102.416-123.392 32.512-49.664 99.664-159.52 148.848-287.984 17.92-4.928 36.592-7.728 55.968-7.728 36.56 0 70.944 9.328 101.136 25.68C839.072 700.432 711.584 821.92 675.264 852.064zM777.664 878.64c-22.8 0-44.704-3.648-65.408-10.432 50.464-45.552 159.168-166.304 199.536-387.424 50.48 40.768 83.008 103.936 83.008 174.992C994.784 778.816 897.552 878.64 777.664 878.64z"  horiz-adv-x="1024" />

    
    <glyph glyph-name="shijian1" unicode="&#58914;" d="M511.89399218750003-35.16764437500001c-231.31548843750002 0-419.50725375 188.1840909375-419.50725375 419.50821375000004 0 231.31548843750002 188.19272531250002 419.50821375000004 419.50725375 419.50821375000004 231.3164475 0 419.50917281249997-188.19272531250002 419.50917281249997-419.50821375000004C931.4041240625 153.01644656249994 743.21139875-35.16764437500001 511.89399218750003-35.16764437500001L511.89399218750003-35.16764437500001zM511.89399218750003 767.3723934375c-211.2075215625 0-383.030865-171.8233434375-383.030865-383.030865s171.8233434375-383.030865 383.030865-383.030865c211.20848062500002 0 383.0318240625 171.8233434375 383.0318240625 383.030865S723.1034318750001 767.3723934375 511.89399218750003 767.3723934375L511.89399218750003 767.3723934375zM511.89399218750003 767.3723934375M493.65387875000005 347.86322062500005c-10.0702921875 0-18.23627625 8.167902187500001-18.23627625 18.2410725L475.4176025 676.1766243750001c0 10.069333125 8.165983124999999 18.23531625 18.23627625 18.23531625 10.074129375 0 18.2401134375-8.165983124999999 18.2401134375-18.23531625l0-310.0761684375C511.89399218750003 356.0311228124999 503.728968125 347.86322062500005 493.65387875000005 347.86322062500005L493.65387875000005 347.86322062500005zM493.65387875000005 347.86322062500005M749.0068296874999 347.86322062500005L493.65387875000005 347.86322062500005c-10.0702921875 0-18.23627625 8.167902187500001-18.23627625 18.2410725 0 10.0702921875 8.165983124999999 18.237235312499998 18.23627625 18.237235312499998l255.35199093749998 0c10.074129375 0 18.2420315625-8.166943125 18.2420315625-18.237235312499998C767.2479021874999 356.0311228124999 759.0809590625 347.86322062500005 749.0068296874999 347.86322062500005L749.0068296874999 347.86322062500005zM749.0068296874999 347.86322062500005"  horiz-adv-x="1024" />

    
    <glyph glyph-name="shouhoufuwu" unicode="&#59025;" d="M444.089307 294.016593c-29.705556 0-58.430784 9.611915-82.507132 27.881001-29.148877 22.11774-47.928592 54.270021-52.890604 90.517573-3.070942 22.295795-0.556679 45.169759 7.231705 66.152653 3.270487 8.878205 13.083993 13.372565 21.962198 10.079566 8.855692-3.292999 13.372565-13.127995 10.079566-21.962198-5.852288-15.731286-7.720845-32.887015-5.40715-49.620118 3.715625-27.212782 17.822924-51.333132 39.696094-67.932182 21.850657-16.59905 48.818869-23.675212 76.076676-19.959587 56.139601 7.698333 95.568612 59.633169 87.869257 115.794259-7.698333 56.139601-59.633169 95.479585-115.794259 87.846744-9.1678-1.356904-17.978467 5.251607-19.247366 14.618952-1.267876 9.345856 5.251607 17.956977 14.618952 19.247366C500.429477 577.049784 569.80759 524.40375 580.065212 449.595974c4.962012-36.246529-4.472871-72.249511-26.589588-101.398388-22.11774-29.126364-54.270021-47.928592-90.517573-52.890604C456.661647 294.440242 450.342732 294.016593 444.089307 294.016593zM671.071925 188.792063c-4.383844 0-8.744151 1.669012-12.082176 5.006014l-140.203182 140.203182c-6.675026 6.675026-6.675026 17.489326 0 24.164353 6.675026 6.675026 17.489326 6.675026 24.164353 0l140.203182-140.203182c6.675026-6.675026 6.675026-17.489326 0-24.164353C679.8171 190.461075 675.455769 188.792063 671.071925 188.792063zM671.077042 205.875137m-28.441772 0a27.794 27.794 0 1 0 56.883545 0 27.794 27.794 0 1 0-56.883545 0ZM671.071925 160.355407c-25.099654 0-45.525869 20.426215-45.525869 45.525869s20.426215 45.525869 45.525869 45.525869 45.525869-20.426215 45.525869-45.525869S696.17158 160.355407 671.071925 160.355407zM671.071925 217.228719c-6.252401 0-11.348466-5.095042-11.348466-11.348466 0-6.252401 5.095042-11.348466 11.348466-11.348466 6.252401 0 11.348466 5.095042 11.348466 11.348466C682.420391 212.133677 677.325349 217.228719 671.071925 217.228719zM512-68.074166c-249.278413 0-452.074166 202.795752-452.074166 452.074166S262.721587 836.074166 512 836.074166s452.074166-202.795752 452.074166-452.074166S761.278413-68.074166 512-68.074166zM512 801.896762c-230.43116 0-417.896762-187.464579-417.896762-417.896762s187.464579-417.896762 417.896762-417.896762 417.896762 187.464579 417.896762 417.896762S742.43116 801.896762 512 801.896762z"  horiz-adv-x="1024" />

    
    <glyph glyph-name="yue" unicode="&#59038;" d="M512.024559-63.403796c-247.088538 0-448.101691 201.014176-448.101691 448.101691S264.937045 832.800609 512.024559 832.800609s448.101691-201.014176 448.101691-448.101691S759.113097-63.403796 512.024559-63.403796zM512.024559 798.923034c-228.40706 0-414.225139-185.818079-414.225139-414.225139s185.818079-414.225139 414.225139-414.225139S926.249699 156.290835 926.249699 384.697895 740.431619 798.923034 512.024559 798.923034zM636.329656 259.113665 387.697973 259.113665c-9.351995 0-16.938788 7.586792-16.938788 16.938788s7.586792 16.938788 16.938788 16.938788l248.631684 0c9.351995 0 16.938788-7.586792 16.938788-16.938788S645.681652 259.113665 636.329656 259.113665zM658.980539 361.208924 365.06858 361.208924c-9.351995 0-16.938788 7.586792-16.938788 16.938788s7.586792 16.938788 16.938788 16.938788l293.91196 0c9.351995 0 16.938788-7.586792 16.938788-16.938788S668.332535 361.208924 658.980539 361.208924zM512.024559 155.540751c-9.351995 0-16.938788 7.586792-16.938788 16.938788L495.085772 448.129576c0 9.351995 7.586792 16.938788 16.938788 16.938788s16.938788-7.586792 16.938788-16.938788l0-275.650037C528.963347 163.128567 521.376555 155.540751 512.024559 155.540751zM512.024559 425.412179c-4.344958 0-8.667404 1.653663-11.975752 4.962012L388.910591 541.534919c-6.616698 6.616698-6.616698 17.33583 0 23.952528 6.639211 6.639211 17.35732 6.594185 23.952528 0L524.001335 454.327742c6.616698-6.616698 6.616698-17.33583 0-23.952528C520.692986 427.066865 516.369517 425.412179 512.024559 425.412179zM511.738034 425.412179c-4.344958 0-8.667404 1.653663-11.975752 4.962012-6.616698 6.616698-6.616698 17.33583 0 23.952528l117.467365 117.467365c6.616698 6.616698 17.33583 6.616698 23.952528 0 6.616698-6.616698 6.616698-17.33583 0-23.952528L523.714809 430.375214C520.40646 427.066865 516.082992 425.412179 511.738034 425.412179z"  horiz-adv-x="1024" />

    
    <glyph glyph-name="pingjiadengji" unicode="&#59046;" d="M512.340761-12.767536c-18.430768 0-35.805484 6.982018-48.938596 19.648502L142.876058 317.176059c-48.613184 46.685275-75.407434 108.85829-75.407434 175.029362s26.813692 128.385019 75.508741 175.171602c48.511877 46.563502 112.998587 72.219835 181.565219 72.219835 65.522296 0 121.970936-23.627117 172.593893-72.219835l2.273786-2.496867 12.564154-14.268982 18.044982 20.98801c48.755424 45.75202 104.433514 67.998697 170.137958 67.998697 68.5257 0 132.992967-25.635867 181.504844-72.200392 49.425689-47.254234 75.54865-107.822704 75.54865-175.192068 0-66.191538-26.793226-128.385019-75.447343-175.111227L561.279357 6.880967C548.146245-5.784494 530.771529-12.767536 512.340761-12.767536zM324.543607 708.419787c-60.487629 0-117.282147-22.571065-159.968341-63.532989-42.504046-40.839127-65.927525-95.075379-65.927525-152.681378s23.38357-111.780853 65.86715-152.580071l320.566016-310.336024c14.33038-13.802354 40.190351-13.802354 54.520731 0l320.525084 310.255183c42.524512 40.839127 65.907059 95.03547 65.907059 152.660912 0 58.661028-22.794146 111.435998-65.927525 152.660912l-0.020466 0.020466c-42.686195 40.960901-99.480712 63.532989-159.927409 63.532989-58.782801 0-106.524129-19.324114-150.144602-60.813041l-0.710175-0.710175-36.597523-44.289716-37.71395 42.807968C430.153924 688.325124 382.27138 708.419787 324.543607 708.419787z"  horiz-adv-x="1024" />

    
    <glyph glyph-name="add" unicode="&#59253;" d="M482.999 412.543v8.588c0 109.098-0.008 218.2 0.011 327.297 0.005 14.223 6.694 24.505 18.563 28.789 17.465 6.301 36.32-5.997 37.622-24.573 0.176-2.522 0.093-5.062 0.098-7.595 0.005-108.318 0.005-216.64 0.005-324.959v-7.544h7.938c108.514 0 217.030 0.016 325.544-0.055 4.247-0.005 8.65-0.215 12.719-1.305 12.871-3.46 20.968-15.676 19.966-29.361-0.958-13.066-11.007-23.679-24.163-25.328-3.078-0.386-6.216-0.414-9.328-0.414-107.929-0.020-215.862-0.016-323.791-0.016h-8.888v-7.817c0-109.293 0.008-218.589-0.008-327.883-0.005-15.801-8.261-26.821-22.354-30.066-16.308-3.752-32.817 8.573-33.831 25.297-0.141 2.33-0.093 4.673-0.093 7.010-0.005 108.318-0.005 216.64-0.005 324.959v8.101c-3.086 0.148-5.72 0.377-8.354 0.382-108.709 0.020-217.42 0.051-326.129-0.043-10.528-0.007-19.658 2.544-26.263 11.229-12.834 16.881-3.223 41.176 17.706 44.671 3.242 0.542 6.589 0.608 9.891 0.608 108.318 0.031 216.64 0.023 324.959 0.023h8.187z"  horiz-adv-x="1025" />

    
    <glyph glyph-name="help" unicode="&#59266;" d="M2.273103 383.037793C2.184828 665.140966 231.362207 894.30069 513.377103 894.106483 795.29931 893.912276 1024.022069 665.154207 1024.105931 383.302621 1024.189793 101.181793 795.144828-127.819034 512.979862-127.730759 231.106207-127.638069 2.356966 101.133241 2.273103 383.037793L2.273103 383.037793ZM66.070069 383.337931C65.915586 136.704 266.262069-63.726345 513.160828-63.938207 759.538759-64.150069 959.823448 136.002207 960.048552 382.658207 960.278069 629.782069 760.779034 829.682759 513.513931 830.093241 266.866759 830.503724 66.220138 630.170483 66.070069 383.337931L66.070069 383.337931ZM705.739034 478.896552C704.044138 399.121655 656.233931 329.864828 582.121931 301.011862 575.774897 298.540138 569.445517 295.940414 563.36331 292.890483 551.746207 287.059862 545.527172 277.574621 545.103448 264.408276 544.926897 258.921931 545.160828 253.281103 543.96469 247.993379 540.468966 232.549517 525.700414 222.009379 510.72 223.611586 493.810759 225.421241 482.01269 238.093241 481.37269 254.777379 479.638069 299.784828 498.401103 332.557241 539.286069 352.158897 544.825379 354.811586 550.444138 357.367172 556.217379 359.446069 611.67669 379.418483 646.404414 434.215724 640.251586 492.235034 634.067862 550.528 588.089379 597.971862 530.387862 605.523862 454.867862 615.410759 387.963586 558.472828 385.460966 482.423172 385.324138 478.260966 385.134345 473.966345 384.026483 469.998345 379.806897 454.898759 364.57931 445.007448 349.581241 447.232 333.051586 449.681655 321.390345 462.777379 321.597793 479.757241 322.171586 526.737655 336.900414 568.955586 368.322207 603.926069 419.954759 661.380414 484.859586 683.17131 559.699862 664.249379 635.264 645.146483 682.07669 594.754207 700.32331 518.775172 703.439448 505.798621 704 492.204138 705.739034 478.896552L705.739034 478.896552ZM481.399172 111.527724C481.399172 117.256828 481.257931 122.990345 481.430069 128.715034 481.946483 146.043586 495.730759 159.492414 512.93131 159.593931 530.109793 159.691034 544.384 146.414345 544.993103 129.213793 545.399172 117.768828 545.346207 106.292966 545.024 94.843586 544.529655 77.245793 530.304 63.849931 512.768 64.017655 495.505655 64.185379 481.92 77.563586 481.421241 95.002483 481.262345 100.506483 481.394759 106.01931 481.399172 111.527724L481.399172 111.527724Z"  horiz-adv-x="1029" />

    
    <glyph glyph-name="shangpu" unicode="&#58909;" d="M911.225 550.879 785.233 745.973 232.75 745.973 112.237 550.047 65 472.433l4.391-15.593c0.538-1.997 1.152-3.904 1.844-5.85 12.532-35.229 40.056-58.899 77.41-58.899 18.869 0 36.766 6.042 51.474 16.59 14.735-10.548 32.631-16.59 51.487-16.59 18.87 0 36.766 6.042 51.475 16.59 14.696-10.548 32.593-16.59 51.462-16.59 18.882 0 36.778 6.042 51.475 16.577 14.722-10.535 32.618-16.577 51.487-16.577 18.869 0 36.778 6.042 51.461 16.59 14.747-10.548 32.644-16.59 51.513-16.59s36.766 6.042 51.488 16.577c14.67-10.535 32.566-16.577 51.474-16.577 18.831 0 36.728 6.042 51.475 16.59 14.709-10.548 32.618-16.59 51.487-16.59 18.831 0 36.728 6.042 51.437 16.59 14.747-10.548 32.656-16.59 51.513-16.59 37.342 0 70.855 23.67 83.439 58.938 0.666 1.907 1.242 3.814 1.818 5.812L959 472.433 911.225 550.879zM929.377 463.945c-0.396-1.37-0.832-2.816-1.344-4.276-8.795-24.668-32.4-41.361-58.682-41.361-13.02 0-25.564 4.046-36.267 11.701l-15.271 10.919-15.26-10.945c-10.65-7.643-23.145-11.675-36.151-11.675-13.031 0-25.552 4.032-36.202 11.675l-15.26 10.945-15.271-10.919c-10.702-7.655-23.234-11.701-36.229-11.701-13.058 0-25.564 4.032-36.177 11.649l-15.271 10.971-15.285-10.945c-10.677-7.629-23.209-11.675-36.229-11.675-13.019 0-25.564 4.046-36.266 11.701l-15.285 10.932-15.259-10.971c-10.625-7.63-23.132-11.662-36.164-11.662-13.019 0-25.552 4.046-36.228 11.675l-15.272 10.933-15.259-10.945c-10.65-7.63-23.17-11.662-36.202-11.662s-25.539 4.032-36.177 11.675l-15.272 10.971-15.298-10.971c-10.651-7.643-23.158-11.675-36.19-11.675-13.019 0-25.539 4.046-36.228 11.688l-15.272 10.933-15.272-10.945c-10.651-7.643-23.158-11.675-36.189-11.675-33.028 0-47.199 25.987-52.704 41.464-0.461 1.293-0.871 2.561-1.229 3.879l-1.382 4.903 41.297 67.86 112.78 183.342L770.96 719.758l118.247-183.099 41.463-68.104L929.377 463.945zM787.281 48.258 236.706 48.258 236.706 310.417 210.488 310.417 210.488 48.258 210.488 22.027 236.706 22.027 787.281 22.04 787.281 22.027 813.499 22.027 813.499 22.04 813.499 48.258 813.499 310.417 787.281 310.417Z"  horiz-adv-x="1024" />

    
    <glyph glyph-name="ico-del-user" unicode="&#58948;" d="M959 206.263l-21.069 21.069-105.363-105.362-105.362 105.362-21.069-21.069 105.362-105.363-105.362-105.362 21.069-21.069 105.362 105.362 105.363-105.362 21.069 21.069-105.362 105.362zM810 562.8c0 148.127-120.073 268.2-268.199 268.2-148.128 0-268.201-120.073-268.201-268.2 0-88.833 43.361-167.334 109.888-216.152-185.479-61.201-318.488-214.828-318.488-409.648h29.8c0 189.611 136.268 337.957 322.169 388.521 37.308-19.673 79.738-30.92 124.832-30.92 45.092 0 87.522 11.247 124.831 30.92 11.742 6.185 22.858 13.329 33.48 21.128 66.527 48.817 109.888 127.319 109.888 216.151zM662.44 357.532c-14.608-8.614-30.135-15.802-46.504-21.186-23.368-7.654-48.251-11.946-74.136-11.946-25.887 0-50.768 4.292-74.137 11.946-16.37 5.384-31.896 12.571-46.504 21.186-70.323 41.499-117.759 117.862-117.759 205.268 0 131.452 106.948 238.4 238.4 238.4 131.452 0 238.4-106.948 238.4-238.4 0-87.406-47.435-163.769-117.76-205.268z"  horiz-adv-x="1024" />

    
    <glyph glyph-name="shuju" unicode="&#58903;" d="M382.302164 548.030025C373.395456 548.030025 366.205703 540.818798 366.205703 531.93355L366.205703-57.561673C366.205703-66.446921 373.395456-73.658075 382.302164-73.658075 391.165945-73.658075 398.398625-66.446921 398.398625-57.561673L398.398625 531.93355C398.398625 540.818798 391.165945 548.030025 382.302164 548.030025L382.302164 548.030025ZM89.239318 303.793079C80.35407 303.793079 73.142857 296.581925 73.142857 287.696677L73.142857-57.561673C73.142857-66.446921 80.35407-73.658075 89.239318-73.658075 98.124559-73.658075 105.335771-66.446921 105.335771-57.561673L105.335771 287.696677C105.335771 296.581925 98.124559 303.793079 89.239318 303.793079L89.239318 303.793079ZM968.384936 503.73259C959.499696 503.73259 952.309943 496.521362 952.309943 487.636114L952.309943-57.561673C952.309943-66.446921 959.499696-73.658075 968.384936-73.658075 977.270184-73.658075 984.502857-66.446921 984.502857-57.561673L984.502857 487.636114C984.502857 496.521362 977.270184 503.73259 968.384936 503.73259L968.384936 503.73259ZM963.448693 686.181157C972.333941 686.288457 979.480766 693.56405 979.394918 702.449298L978.19305 806.947474C978.150122 811.411602 976.218551 815.661056 972.913408 818.687195 969.608272 821.691831 965.251496 823.15125 960.723024 822.807845L856.58967 813.987035C847.72589 813.235858 841.158532 805.466624 841.888241 796.602807 842.639411 787.739063 850.558866 781.364882 859.293879 781.901385L922.585154 787.266853 675.536713 515.301157 392.81852 792.267483C386.6804 798.276827 376.958142 798.448567 370.669787 792.653824L78.894658 525.795986C72.327303 519.786642 71.876602 509.613714 77.885945 503.046363 83.895289 496.479013 94.068253 496.049737 100.614144 502.03765L381.164683 758.615186 664.95597 480.618642C667.960642 477.656869 672.016955 476.025783 676.223495 476.025783L676.695654 476.025783C681.052431 476.154514 685.194584 478.06464 688.134868 481.28395L946.472294 765.654674 947.180537 702.084462C947.287852 693.263579 954.456137 686.181157 963.298458 686.181157L963.448693 686.181157 963.448693 686.181157ZM675.34355 304.415525C666.458309 304.415525 659.247097 297.204297 659.247097 288.319049L659.247097-57.561673C659.247097-66.446921 666.458309-73.658075 675.34355-73.658075 684.228798-73.658075 691.440011-66.446921 691.440011-57.561673L691.440011 288.319049C691.440011 297.204297 684.228798 304.415525 675.34355 304.415525L675.34355 304.415525Z"  horiz-adv-x="1024" />

    
    <glyph glyph-name="fuwu" unicode="&#58925;" d="M962.736222 203.616613c-24.402874 41.734256-60.928855 63.779538-105.625509 63.779538-36.737856 0-70.259063-15.089358-87.540365-24.460658-17.280018 9.371299-50.802509 24.460658-87.540365 24.460658-44.695371 0-81.222636-22.04785-105.621657-63.779538C496.67652 67.288478 746.108713-115.898722 756.757683-123.630237c3.830445-2.781342 8.322197-4.156604 12.813948-4.156604 4.491752 0 8.986072 1.375262 12.813948 4.156604C793.033266-115.898722 1042.466744 67.288478 962.736222 203.616613L962.736222 203.616613zM769.571632-89.15495c-69.20996 53.605681-209.113006 191.021442-162.478658 270.751963 16.59303 28.383557 45.809962 49.158872 74.938292 49.158872 38.550993 0 75.028179-24.038192 75.341497-24.248783 7.383526-4.982275 17.018064-4.982275 24.40159 0 0.36083 0.238841 37.011367 24.248783 75.337645 24.248783 29.136035 0 58.346547-20.784304 74.938292-49.158872C978.684638 101.866492 838.781592-35.549269 769.571632-89.15495L769.571632-89.15495zM801.374724 573.92547c0 177.881334-145.334753 322.07453-324.582361 322.07453C297.54604 896.001284 152.215139 751.808089 152.215139 573.92547c0-126.101631 80.196647-234.988733 186.588758-287.862482C171.918238 225.658043 45.571346 62.946965 45.571346-127.727773l48.027588-0.272227c0 204.693164 166.319375 372.23371 366.018707 380.704861 5.721911-0.295341 11.378334-0.861625 17.174723-0.861625C656.039971 251.843236 801.374724 396.056977 801.374724 573.92547L801.374724 573.92547zM476.792364 298.003754c-148.923788 0-277.079966 127.641257-277.079966 275.921716 0 148.275322 128.157462 275.928136 277.079966 275.928136 148.928925 0 277.079966-127.652814 277.079966-275.928136C753.87233 425.646296 625.721288 298.003754 476.792364 298.003754L476.792364 298.003754z"  horiz-adv-x="1024" />

    
    <glyph glyph-name="iconfontzhizuobiaozhun41" unicode="&#58920;" d="M758.165004 241.656061l-41.703821 32.429597c-7.519254 5.842055-11.816117 14.651698-11.816117 24.167422l0 149.524478c0 25.994024-5.096065 51.215452-15.157211 74.986855-9.69685 22.940478-23.584138 43.538609-41.253566 61.21213-17.672498 17.687848-38.269605 31.562856-61.21827 41.261753-8.388041 3.547803-17.077957 6.505158-25.870204 8.828063l0 21.011546c-0.019443 27.077705-22.050202 49.102325-49.122791 49.102325-27.084868 0-49.117674-22.024619-49.117674-49.102325l0-20.999266c-8.783037-2.318812-17.48728-5.29254-25.875321-8.828063-22.948665-9.699919-43.527352-23.586185-61.214177-41.261753-17.685801-17.668405-31.561833-38.266535-41.269939-61.210084-10.048867-23.77345-15.159258-49.007157-15.159258-74.980715l0-149.512199c0-9.517771-4.313236-18.331507-11.81407-24.165376l-41.705867-32.43369c-8.012488-6.233981-13.626345-14.647605-16.202007-24.349571-2.349511-8.828063-2.02717-18.10024 0.963954-26.801413 2.980891-8.708336 8.414647-16.238846 15.685237-21.757536 7.986905-6.053879 17.579377-9.272177 27.746948-9.272177l435.894671 0c10.155291 0 19.757996 3.206018 27.746948 9.253758 7.274684 5.520737 12.703323 13.05534 15.689331 21.757536 2.995217 8.708336 3.324722 17.97335 0.978281 26.807552C771.789303 227.005386 766.179538 235.420033 758.165004 241.656061L758.165004 241.656061zM695.316607 246.915855l41.698704-32.426527c4.770653-3.727904 5.108345-9.048073 3.813862-12.797467-1.285273-3.753487-4.820796-7.758708-10.856255-7.758708l-435.912068 0c-6.03546 0-9.573029 4.00522-10.850116 7.758708-1.284249 3.749394-0.963954 9.069563 3.804652 12.797467l41.698704 32.426527c15.96767 12.413727 25.120121 31.133068 25.120121 51.349505l0 149.532665c0 87.218434 70.954005 158.182672 158.188812 158.182672 87.209224 0 158.164253-70.964238 158.164253-158.182672l0-149.532665C670.198533 278.036643 679.350984 259.329583 695.316607 246.915855L695.316607 246.915855zM512.022001 669.739836c8.077979 0 14.663978-6.585999 14.663978-14.659885l0-12.673647-29.339212 0 0 12.673647C497.346767 663.166117 503.921509 669.739836 512.022001 669.739836L512.022001 669.739836zM512.022001 669.739836M446.958146 128.876462c0-35.874045 29.182646-65.057715 65.063855-65.057715 35.869952 0 65.051575 29.184693 65.051575 65.057715l0 1.279133-130.11543 0L446.958146 128.876462 446.958146 128.876462zM446.958146 128.876462M342.426395 625.739716c3.578502 2.898003 5.809309 7.013741 6.29538 11.589966 0.490164 4.575202-0.838088 9.071609-3.735068 12.639878-3.295046 4.051269-8.170077 6.368034-13.405311 6.368034-3.914146 0-7.758708-1.352811-10.82044-3.825119-30.633694-24.787546-55.833633-54.782697-74.925457-89.143273-19.589151-35.299971-31.772634-73.5399-36.211736-113.687272-1.051959-9.43386 5.777587-17.955954 15.219633-19.006889 0.63752-0.075725 1.277086-0.107447 1.904373-0.107447 8.777921 0 16.126282 6.588045 17.090237 15.321964C251.702114 516.766816 286.715559 580.653869 342.426395 625.739716L342.426395 625.739716zM342.426395 625.739716M778.180873 563.367157c-19.0908 34.378995-44.296879 64.368006-74.925457 89.163739-3.049452 2.464121-6.886851 3.823072-10.824533 3.823072-5.228071 0-10.107195-2.334161-13.405311-6.385431-5.974062-7.383154-4.834098-18.249643 2.548032-24.211425 55.730279-45.103244 90.739631-108.96983 98.573039-179.850158 0.975211-8.740058 8.326643-15.329127 17.092283-15.329127 0.636496 0 1.283226 0.033769 1.909489 0.107447 4.570085 0.50142 8.671497 2.761903 11.55722 6.361895 2.873444 3.581572 4.169973 8.076956 3.669576 12.651135C809.955554 489.812931 797.772071 528.067186 778.180873 563.367157L778.180873 563.367157zM778.180873 563.367157"  horiz-adv-x="1024" />

    
    <glyph glyph-name="jinnangmiaoji" unicode="&#58933;" d="M602.482269 316.276572l-71.837118 0.347924 71.91489 100.943017c6.302543 8.847505 4.240581 21.128203-4.606925 27.431769-8.846482 6.302543-21.128203 4.239558-27.431769-4.606925l-64.817238-90.980107-65.685002 90.813309c-6.365988 8.801457-18.659989 10.776438-27.463492 4.409426-8.801457-6.365988-10.775414-18.662035-4.409426-27.463492l72.550363-100.305497-68.870554 0.333598c-0.038886 0-0.076748 0-0.115634 0-10.80816 0-19.603477-8.509814-19.665899-19.333324-0.063445-10.862395 8.691963-19.4991 19.554358-19.560498l74.019831-0.393973 0.234337-41.553395-61.660338 0c-10.737552 0-19.442818-8.705266-19.442818-19.442818s8.705266-19.442818 19.442818-19.442818l61.879326 0 0.26913-47.835472c0.061398-10.825556 8.853645-19.702738 19.665899-19.702738 0.036839 0 0.075725 0 0.112564 0 10.862395 0 19.618826 9.111518 19.557428 19.974937l-0.268106 47.563272 56.371892 0c10.737552 0 19.442818 8.705266 19.442818 19.442818s-8.705266 19.442818-19.442818 19.442818l-56.590879 0-0.233314 41.343617 77.295434-0.411369c0.038886 0 0.076748 0 0.115634 0 10.809183 0 19.603477 8.555863 19.666922 19.379373C622.099049 307.532421 613.344664 316.215174 602.482269 316.276572zM827.307757 204.905042c-3.568269 56.81703-13.704117 111.608937-30.126134 162.876578-13.269211 41.419342-30.651091 80.644715-51.662637 116.588345-34.026978 58.204633-66.532299 88.922239-71.38584 93.351108-24.485671 24.817222-51.989071 40.97625-79.360466 51.291177L699.340247 785.268036 687.921173 796.689157c-24.52558 24.530696-51.623751 36.96796-80.543408 36.96796-31.598672 0-53.094242-15.250332-55.441707-16.989953l-0.118704-0.089028c-13.887288-10.453073-28.765137-15.753799-44.219107-15.753799-15.640212 0-28.134781 5.436826-33.406854 8.157797C461.324342 825.562764 442.140421 834.291566 418.391531 834.291566c-23.855314 0-44.434002-8.836249-46.702672-9.844206l-3.342118-1.484817-2.584871-2.586918c-11.660574-11.667737-35.099403-18.187221-43.10575-19.706831l-30.746258-5.694699 121.639384-166.478615c-75.555813-44.986587-132.425032-135.324058-134.981251-139.426493l-0.188288-0.309038c-46.261627-77.406974-66.861804-160.54344-75.997881-216.655412-9.895371-60.777225-8.908904-103.115496-8.861832-104.887862l0.024559-0.599657c3.097548-54.368258 32.530904-99.910501 85.116563-131.701554 38.240953-23.119557 75.393107-30.81175 76.857459-31.107485 57.743122-11.991102 115.301026-18.070564 171.07326-18.070564 113.020076 0 182.935426 24.689309 193.191001 28.557406 56.666604 15.115256 93.206822 53.53324 105.70139 111.168915C833.689095 163.305599 828.606333 197.449233 827.307757 204.905042zM390.405129 789.570016c5.02034 1.835811 16.244986 5.384637 27.987425 5.384637 16.22145 0 22.596647-6.757914 25.980721-11.840676l2.198062-3.303232 3.307326-2.191922c2.491751-1.650593 25.275663-16.131399 57.719586-16.131399 24.13877 0 46.938032 7.934716 67.769476 23.582091 0.478907 0.335644 13.58132 9.250688 32.010041 9.250688 13.853519 0 27.494191-5.012154 40.697911-14.929014L566.403562 657.350668c-12.047384 3.287883-30.589692 6.608511-56.331983 6.608511-21.179368 0-44.285622-2.241041-68.839855-6.670933l-82.773192 113.285113C369.047706 774.859989 380.774795 781.004943 390.405129 789.570016zM787.041682 133.797541c-9.355065-43.147706-35.685757-70.64292-78.261435-81.722256l-1.178849-0.308015-1.1328-0.449231c-0.661056-0.26299-67.313082-26.243711-179.873694-26.243711-53.091172 0-107.957781 5.804193-163.139567 17.262152-0.325411 0.066515-32.895201 6.933923-65.35038 26.796296-40.862663 25.007557-62.818721 58.439994-65.264423 99.377358-0.062422 3.626597-0.49528 43.302225 8.523117 98.214882 8.611122 52.429093 27.863604 129.959887 70.675666 201.674209 1.236154 1.961678 16.420995 25.840528 40.301891 53.872978 31.609928 37.106106 63.912635 64.413032 93.556792 79.111802 5.942339 1.266853 25.809829 5.03262 51.994188 5.03262 42.411949 0 102.618169-9.832949 148.586107-56.675814l0.963954-0.917906c0.317225-0.282433 32.027437-28.945239 65.043389-85.897346 19.35379-33.385365 35.374672-69.840648 47.619554-108.351754 15.312754-48.158836 24.737404-99.718119 28.013007-153.246243l0.080841-1.326205 0.258896-1.302669C788.517289 198.392722 794.420743 167.835775 787.041682 133.797541z"  horiz-adv-x="1024" />

    
    </font>
</defs>
</svg>
