<?xml version="1.0" standalone="no"?>
<!DOCTYPE svg PUBLIC "-//W3C//DTD SVG 1.1//EN" "http://www.w3.org/Graphics/SVG/1.1/DTD/svg11.dtd" >
<!--
2013-9-30: Created.
-->
<svg>
<metadata>
Created by iconfont
</metadata>
<defs>

<font id="iconfont" horiz-adv-x="1024" >
  <font-face
    font-family="iconfont"
    font-weight="500"
    font-stretch="normal"
    units-per-em="1024"
    ascent="896"
    descent="-128"
  />
    <missing-glyph />
    
    <glyph glyph-name="x" unicode="x" horiz-adv-x="1001"
d="M281 543q-27 -1 -53 -1h-83q-18 0 -36.5 -6t-32.5 -18.5t-23 -32t-9 -45.5v-76h912v41q0 16 -0.5 30t-0.5 18q0 13 -5 29t-17 29.5t-31.5 22.5t-49.5 9h-133v-97h-438v97zM955 310v-52q0 -23 0.5 -52t0.5 -58t-10.5 -47.5t-26 -30t-33 -16t-31.5 -4.5q-14 -1 -29.5 -0.5
t-29.5 0.5h-32l-45 128h-439l-44 -128h-29h-34q-20 0 -45 1q-25 0 -41 9.5t-25.5 23t-13.5 29.5t-4 30v167h911zM163 247q-12 0 -21 -8.5t-9 -21.5t9 -21.5t21 -8.5q13 0 22 8.5t9 21.5t-9 21.5t-22 8.5zM316 123q-8 -26 -14 -48q-5 -19 -10.5 -37t-7.5 -25t-3 -15t1 -14.5
t9.5 -10.5t21.5 -4h37h67h81h80h64h36q23 0 34 12t2 38q-5 13 -9.5 30.5t-9.5 34.5q-5 19 -11 39h-368zM336 498v228q0 11 2.5 23t10 21.5t20.5 15.5t34 6h188q31 0 51.5 -14.5t20.5 -52.5v-227h-327z" />
    

    
    <glyph glyph-name="luyin" unicode="&#8243;" d="M514.048 768q79.872 0 149.504-30.208t121.856-82.432 82.432-122.368 30.208-150.016q0-78.848-30.208-148.48t-82.432-121.856-121.856-82.432-149.504-30.208-149.504 30.208-121.856 82.432-82.432 121.856-30.208 148.48q0 79.872 30.208 150.016t82.432 122.368 121.856 82.432 149.504 30.208z"  horiz-adv-x="1024" />

    
    <glyph glyph-name="student-xueshengshetuanjiling" unicode="&#4105;" d="M712.806 475.631h-54.831c0-70.663-57.276-127.94-127.935-127.94s-127.946 57.276-127.946 127.94h-54.836c0-100.943 81.841-182.771 182.782-182.771s182.766 81.827 182.766 182.771zM1060.075 285.335c0 92.762-51.846 173.454-128.274 215.088-3.521 219.033-181.894 395.576-401.762 395.576-219.892 0-398.292-176.577-401.774-395.646-76.428-41.652-128.265-122.304-128.265-215.019 0-113.224 77.377-208.256 182.385-236.417l-54.932-176.435h55.317l18.281 54.831 49.456 164.873c-1.285-0.024-2.476-0.379-3.768-0.379-105.988 0-191.905 85.921-191.905 191.914 0 62.966 30.742 118.346 77.581 153.338 20.784-146.46 120.307-267.263 254.416-318.459l-59.166-191.286h0.027l-16.985-54.831h54.831l18.284 54.831 78.613 226.016c-159.412 31.472-279.665 171.934-279.665 340.573 0 191.793 155.48 347.264 347.269 347.264s347.258-155.471 347.258-347.264c0-168.639-120.242-309.102-279.654-340.573l78.613-226.016 18.271-54.831h54.833l-17.133 54.83h0.169l-59.186 191.298c134.144 51.201 233.697 172.026 254.454 318.53 46.861-34.988 77.619-90.408 77.619-153.421 0-105.992-85.841-191.914-191.745-191.914-1.301 0-2.503 0.357-3.797 0.384l49.421-164.877h-0.14l18.274-54.831h55.389l-54.882 176.426c104.938 28.15 182.272 123.192 182.272 236.427z"  horiz-adv-x="1061" />

    
    <glyph glyph-name="shehui-xueshengpeixun" unicode="&#4120;" d="M668.8 512c0 140.8-115.2 256-256 256s-256-115.2-256-256c0-92.8 51.2-172.8 124.8-217.6-105.6-44.8-192-137.6-217.6-256-3.2-16 6.4-35.2 22.4-38.4h6.4c16 0 28.8 9.6 32 25.6 32 134.4 153.6 233.6 288 233.6h3.2c140.8 0 252.8 115.2 252.8 252.8zM220.8 512c0 105.6 86.4 192 192 192s192-86.4 192-192-86.4-192-192-192-192 86.4-192 192zM732.8 352c-19.2 0-32-16-28.8-35.2 0-16 16-28.8 32-28.8h3.2c105.6 6.4 188.8 96 188.8 201.6s-83.2 192-185.6 201.6c-19.2 0-32-12.8-35.2-28.8 0-19.2 12.8-32 28.8-35.2 70.4-6.4 128-67.2 128-137.6 0-73.6-57.6-134.4-131.2-137.6zM960 137.6c-9.6 41.6-41.6 92.8-80 118.4-16 9.6-35.2 3.2-44.8-9.6-9.6-16-3.2-35.2 9.6-44.8 22.4-12.8 44.8-51.2 51.2-76.8 3.2-16 16-25.6 32-25.6h6.4c19.2 3.2 28.8 19.2 25.6 38.4zM620.8 256l-19.2 12.8c-16 9.6-35.2 6.4-44.8-9.6s-6.4-35.2 9.6-44.8l19.2-12.8c57.6-41.6 102.4-105.6 118.4-176 3.2-16 16-25.6 32-25.6h6.4c16 3.2 28.8 22.4 22.4 38.4-22.4 89.6-73.6 166.4-144 217.6z"  horiz-adv-x="1024" />

    
    <glyph glyph-name="student-xueshengyishutuan" unicode="&#4112;" d="M748.858 399.409c58.797 42.168 95.676 109.894 95.676 181.703 0 124.101-100.139 225.048-223.23 225.048-70.798 0-133.931-33.24-175.041-84.879-16.65 4.473-34.037 7.099-52.069 7.099-112.829 0-204.614-92.107-204.614-205.345 0-65.624 29.292-124.986 77.704-162.798-84.082-42.245-139.263-127.593-139.263-222.819v-149.105c0-13.81 11.193-25.013 25.002-25.013h716.775c13.81 0 25.004 11.203 25.004 25.013v164.975c-0.001 108.26-56.815 201.192-145.945 246.12zM178.027 137.418c0 89.432 64.633 170.927 153.685 193.8 10.504 2.723 18.060 11.865 18.74 22.68 0.67 10.814-5.689 20.812-15.764 24.818-57.777 22.796-95.102 79.473-95.102 144.319 0 85.659 69.36 155.339 154.607 155.339 8.287 0 16.407-0.72 24.333-2.023-13.558-28.951-21.346-61.161-21.346-95.237 0-73.521 33.346-139.846 88.244-181.12-94.847-45.668-157.369-140.624-157.369-246.705v-139.961l-150.028 0v124.090zM844.796 13.327h-466.735v139.962c0 100.364 72.743 191.934 172.959 217.686 10.504 2.684 18.071 11.826 18.74 22.641 0.68 10.814-5.688 20.85-15.764 24.818-64.886 25.636-106.81 89.51-106.81 162.68 0 96.521 78.111 175.022 174.117 175.022 95.522 0 173.222-78.501 173.222-175.022 0-70.253-45.989-135.644-114.435-162.68-10.074-3.968-16.445-14.004-15.772-24.818 0.682-10.814 8.238-19.957 18.74-22.641 96.734-24.857 161.738-112.343 161.738-217.686l-0-139.962z"  horiz-adv-x="1024" />

    
    <glyph glyph-name="zhuiocn02" unicode="&#58893;" d="M588.664054 704.868915l308.466444-308.647569c7.316639-7.316639 9.505491-18.320251 5.545296-27.879977-3.959172-9.559727-13.287631-15.792685-23.635303-15.792685l-84.934414 0 0-216.262462c0-33.803897-13.759375-53.508681-25.302269-64.086597-21.028942-19.269879-47.996131-21.650089-60.032258-21.650089-1.936095 0-52.81181 0.12382-52.81181 0.12382-14.128789 0-25.582655 11.452843-25.582655 25.582655L630.377084 255.329479l-118.703519 0L511.673565 76.257034c0-14.129812-11.453866-25.582655-25.582655-25.582655L313.014016 50.674379c-6.509251-0.232291-34.827203 0.086981-56.985876 20.893866-11.286044 10.597359-24.740474 30.429033-24.740474 64.719001L231.287667 352.549707l-84.934414 0c-10.354835 0-19.687388 6.242168-23.642466 15.811104s-1.7519 20.578688 5.582135 27.89021l323.364759 322.341452C505.560334 772.495128 531.458167 764.899126 588.664054 704.868915z"  horiz-adv-x="1024" />

    
    <glyph glyph-name="system-xitongshezhi" unicode="&#4100;" d="M967.883 292.692c26.207 104.832-2.621 173.252-2.621 173.252l-100.272 4.922c-8.787 31.471-21.656 61.147-38.006 88.601l67.645 76.798c-55.595 92.655-124.364 120.652-124.364 120.652l-74.481-67.513c-27.746 16.14-57.76 28.643-89.507 37.109l-6.391 100.894c-104.828 26.211-173.252-2.626-173.252-2.626l-4.762-96.98c-31.289-7.864-61.060-19.47-88.58-34.787l-70.501 63.905c0 0-68.769-27.997-124.364-120.652 17.671-20.058 52.439-43.089 54.525-72.58 0.514-7.281-33.462-93.239-34.928-93.313l-90.231-4.428c0 0-28.829-68.419-2.626-173.252l89.424-5.667c8.445-35.557 21.998-69.048 39.941-99.762l-58.876-64.949c0 0 27.997-68.769 120.652-124.364l67.102 59.101c30.401-18.199 63.587-32.063 98.861-40.89l4.362-88.844c0 0 68.423-28.833 173.252-2.626l5.877 92.728c35.722 9.47 69.25 24.104 99.828 43.199l71.152-62.67c92.659 55.591 120.656 124.364 120.656 124.364l-64.814 71.502c15.968 28.692 27.952 59.81 35.792 92.573l99.506 6.304zM516.528 160.656c-118.956 0-215.389 96.433-215.389 215.393 0 118.956 96.433 215.389 215.389 215.389s215.393-96.433 215.393-215.389c0-118.961-96.437-215.393-215.393-215.393z"  horiz-adv-x="1024" />

    
    <glyph glyph-name="me-gerenbangong" unicode="&#4097;" d="M800 512c0 160-128 288-288 288s-288-128-288-288c0-108.8 57.6-201.6 147.2-249.6-121.6-48-214.4-153.6-240-288-3.2-16 6.4-35.2 25.6-38.4h6.4c16 0 28.8 9.6 32 25.6 28.8 150.4 160 259.2 313.6 262.4h6.4c156.8 0 284.8 128 284.8 288zM288 512c0 124.8 99.2 224 224 224s224-99.2 224-224c0-121.6-99.2-220.8-220.8-224h-9.6c-121.6 3.2-217.6 102.4-217.6 224zM723.2 220.8c-16 9.6-35.2 6.4-44.8-9.6-9.6-16-6.4-35.2 9.6-44.8 73.6-51.2 124.8-121.6 140.8-204.8 3.2-16 16-25.6 32-25.6h6.4c16 3.2 28.8 19.2 25.6 38.4-19.2 99.2-80 185.6-169.6 246.4z"  horiz-adv-x="1024" />

    
    <glyph glyph-name="xinli-xueyuangongzuo" unicode="&#4131;" d="M846.336-43.827h-602.931v835.174c0 14.029 11.366 25.498 25.498 25.498h480.051c14.029 0 25.498-11.366 25.498-25.498v-775.68c0-11.469 9.318-20.787 20.787-20.787s20.787 9.318 20.787 20.787v775.68c0 36.966-30.106 67.072-67.072 67.072h-480.154c-36.966 0-67.072-30.106-67.072-67.072v-835.277h-30.31c-11.469 0-20.787-9.318-20.787-20.787s9.318-20.787 20.787-20.787h674.918c11.469 0 20.787 9.318 20.787 20.787s-9.318 20.89-20.787 20.89zM455.475 718.234c0 19.149-15.565 34.714-34.714 34.714h-75.162c-19.149 0-34.714-15.565-34.714-34.714v-75.162c0-19.149 15.565-34.714 34.714-34.714h75.162c19.149 0 34.714 15.565 34.714 34.714v75.162zM432.333 642.97c0-6.349-5.222-11.571-11.571-11.571h-75.162c-6.349 0-11.571 5.222-11.571 11.571v75.162c0 6.349 5.222 11.571 11.571 11.571h75.162c6.349 0 11.571-5.222 11.571-11.571v-75.162zM455.475 536.986c0 19.149-15.565 34.714-34.714 34.714h-75.162c-19.149 0-34.714-15.565-34.714-34.714v-75.162c0-19.149 15.565-34.714 34.714-34.714h75.162c19.149 0 34.714 15.565 34.714 34.714v75.162zM432.333 461.722c0-6.349-5.222-11.571-11.571-11.571h-75.162c-6.349 0-11.571 5.222-11.571 11.571v75.162c0 6.349 5.222 11.571 11.571 11.571h75.162c6.349 0 11.571-5.222 11.571-11.571v-75.162zM705.229 717.21c0 19.149-15.565 34.714-34.714 34.714h-75.162c-19.149 0-34.714-15.565-34.714-34.714l0-75.162c0-19.149 15.565-34.714 34.714-34.714h75.162c19.149 0 34.714 15.565 34.714 34.714l-0 75.162zM682.086 642.048c0-6.349-5.222-11.571-11.571-11.571h-75.162c-6.349 0-11.571 5.222-11.571 11.571v75.162c0 6.349 5.222 11.571 11.571 11.571h75.162c6.349 0 11.571-5.222 11.571-11.571v-75.162zM705.229 535.962c0 19.149-15.565 34.714-34.714 34.714h-75.162c-19.149 0-34.714-15.565-34.714-34.714l0-75.162c0-19.149 15.565-34.714 34.714-34.714h75.162c19.149 0 34.714 15.565 34.714 34.714l-0 75.162zM682.086 460.8c0-6.349-5.222-11.571-11.571-11.571h-75.162c-6.349 0-11.571 5.222-11.571 11.571v75.162c0 6.349 5.222 11.571 11.571 11.571h75.162c6.349 0 11.571-5.222 11.571-11.571v-75.162zM420.762 383.283h-75.162c-19.149 0-34.714-15.565-34.714-34.714v-75.162c0-19.149 15.565-34.714 34.714-34.714h75.162c19.149 0 34.714 15.565 34.714 34.714v75.162c0 19.149-15.565 34.714-34.714 34.714zM432.333 273.408c0-6.349-5.222-11.571-11.571-11.571h-75.162c-6.349 0-11.571 5.222-11.571 11.571v75.162c0 6.349 5.222 11.571 11.571 11.571h75.162c6.349 0 11.571-5.222 11.571-11.571v-75.162zM670.515 382.362h-75.162c-19.149 0-34.714-15.565-34.714-34.714v-75.162c0-19.149 15.565-34.714 34.714-34.714h75.162c19.149 0 34.714 15.565 34.714 34.714v75.162c-0 19.149-15.667 34.714-34.714 34.714zM682.086 272.486c0-6.349-5.222-11.571-11.571-11.571h-75.162c-6.349 0-11.571 5.222-11.571 11.571v75.162c0 6.349 5.222 11.571 11.571 11.571h75.162c6.349 0 11.571-5.222 11.571-11.571v-75.162z"  horiz-adv-x="1024" />

    
    <glyph glyph-name="open-question" unicode="&#4152;" d="M281.841551 374.360456c44.423769-134.923946 168.184467-134.688585 212.497719 0 14.627139 7.702426 29.65132 30.490431 32.155351 49.337685 2.595105 19.706831 1.034563 45.937239-18.854417 45.937239-4.308119 63.243393-39.060621 116.743888-117.881804 116.743888-77.086679 0-116.362194-46.381353-121.205503-116.743888-19.87363 0-21.449521-26.230408-18.854417-45.937239C252.205581 404.85191 267.221576 382.06288099999995 281.841551 374.360456zM543.031249 264.90353100000004l-50.26787 10.477632L388.088364 66.81805699999995 283.41028 275.381164 233.163899 264.90353100000004c-68.74571-14.364149-117.78459-72.652693-117.78459-140.059919l0-142.265144 545.532721 0L660.91203 124.84361200000001C660.91203 192.25083800000004 611.777983 250.53938200000005 543.031249 264.90353100000004zM713.678814 779.797441c-110.74936 0-200.520943-77.270874-200.520943-172.573427 0-52.959166 27.78481-100.284007 71.432912-131.884726l22.732747-68.308759c1.90028-5.703909 6.182816-10.255575 11.713786-12.559037 5.544273-2.220574 11.781324-1.99954 17.132192 0.721431l77.509305 39.497573c110.754476 0 200.541409 77.259618 200.541409 172.534542C914.219199 702.526567 824.43329 779.797441 713.678814 779.797441zM678.983617 523.456169c0 35.999912 53.111638 37.123502 53.798277 0C732.781894 487.094006 678.983617 486.872972 678.983617 523.456169zM726.759737 564.937932l-39.971363 0c-0.783853 20.859074-0.159636 33.946137 17.430998 55.013965 44.327578 52.570309-9.207709 57.719586-34.264385 40.260959l-10.208503 32.780591c35.632545 20.803815 107.884103 19.040658 107.884103-34.55705C767.630586 612.664933 726.759737 617.189993 726.759737 564.937932z"  horiz-adv-x="1024" />

    
    <glyph glyph-name="xinli-zhongxingongzuo" unicode="&#4130;" d="M652.8 531.2c57.6-38.4 96-102.4 102.4-179.2 19.2 0 38.4-6.4 57.6-12.8-6.4 102.4-57.6 192-140.8 243.2-6.4-12.8-6.4-32-19.2-51.2zM614.4 108.8c-32-12.8-64-25.6-102.4-25.6s-70.4 6.4-102.4 25.6c-12.8-19.2-25.6-32-38.4-44.8 44.8-25.6 89.6-38.4 140.8-38.4 51.2 0 102.4 12.8 140.8 38.4-12.8 12.8-25.6 25.6-38.4 44.8zM268.8 352c6.4 76.8 44.8 140.8 102.4 179.2-6.4 19.2-12.8 38.4-19.2 57.6-83.2-51.2-134.4-147.2-140.8-249.6 19.2 6.4 38.4 12.8 57.6 12.8zM275.2 256c38.4 0 64-25.6 64-64s-25.6-64-64-64-64 25.6-64 64 25.6 64 64 64M275.2 320c-70.4 0-128-57.6-128-128s57.6-128 128-128 128 57.6 128 128-57.6 128-128 128v0zM512 672c38.4 0 64-25.6 64-64s-25.6-64-64-64-64 25.6-64 64 32 64 64 64M512 736c-70.4 0-128-57.6-128-128s57.6-128 128-128 128 57.6 128 128-57.6 128-128 128v0zM748.8 256c38.4 0 64-25.6 64-64s-25.6-64-64-64-64 25.6-64 64 32 64 64 64M748.8 320c-70.4 0-128-57.6-128-128s57.6-128 128-128 128 57.6 128 128-57.6 128-128 128v0zM275.2 256c38.4 0 64-25.6 64-64s-25.6-64-64-64-64 25.6-64 64 25.6 64 64 64M275.2 320c-70.4 0-128-57.6-128-128s57.6-128 128-128 128 57.6 128 128-57.6 128-128 128v0z"  horiz-adv-x="1024" />

    
    <glyph glyph-name="tongjifenxi-copy" unicode="&#4182;" d="M676.290787 34.20017199999995M814.764582 695.404356c58.331523 0.150426 107.410312-44.778856 112.073518-102.595656 4.732791-58.675354-35.993772-109.919459-94.686523-119.620401-13.500479-2.231831-26.830065-1.951445-39.966247 1.061169-5.16872 1.186012-7.121188-0.344854-9.400091-4.288676C741.561349 398.600533 700.368158 327.22287900000003 658.750295 256.09286499999996c-4.304026-7.355525 0.980327-8.477069 4.554736-11.31265 28.588105-22.681582 41.845037-52.385091 37.131689-88.423889-4.928243-37.679158-26.244734-64.049758-61.882396-77.621868-38.08541-14.503319-80.629365-2.654456-106.494453 28.616758-25.993001 31.425733-29.54899 74.771961-8.444323 109.862153 3.595898 5.978155 3.711532 8.576329-2.366907 13.07069-58.269102 43.084261-116.259864 86.547145-174.169785 130.113383-4.851495 3.650133-8.470929 4.41352-14.196327 1.664919-13.242606-6.355755-27.601638-8.804527-42.143842-6.649444-6.30152 0.934279-8.892531-1.134847-11.697413-6.039553-17.295921-30.242791-34.720779-60.413951-52.438303-90.411149-3.288906-5.568832-3.432169-8.886391 0.933255-14.514575 19.535939-25.185612 22.013363-52.696176 7.312546-81.019245-13.507642-26.0237-43.275619-41.754986-72.219835-37.880749-31.021527 4.152577-52.531424 21.215184-62.250786 51.261501-16.954137 52.410674 28.735461 104.043634 83.006506 93.973278 6.109138-1.133823 8.905834 0.588401 11.794627 5.66707 16.398482 28.825512 32.93204 57.579393 49.897434 86.074378 3.684926 6.188956 3.610224 9.411347-2.081405 14.57802-26.867928 24.387433-34.610262 62.104453-20.337187 94.78783 14.214746 32.55137 47.297212 52.40965 83.313497 50.007951 34.186613-2.278903 63.98529-26.685779 73.725118-60.553121 6.553253-22.785959 3.731998-44.592614-8.292873-64.895009-3.172249-5.355985-2.2656-7.699356 2.346441-11.128455 58.697867-43.633776 117.284193-87.416955 175.805028-131.289162 3.859911-2.89391 6.684236-3.868097 11.406794-1.209548 16.202007 9.119705 33.905204 12.71458 52.349275 10.883885 6.590092-0.653893 9.295714 1.766226 12.3247 7.024997 40.633443 70.539566 81.431637 140.986011 122.486682 211.279984 3.680832 6.30152 3.844561 9.411347-2.437515 14.312984-37.376259 29.161157-51.609425 79.043241-36.098149 123.969453C724.972533 664.860712 767.57277 695.283606 814.764582 695.404356z"  horiz-adv-x="1024" />

    
    <glyph glyph-name="xiangmuguanli" unicode="&#4161;" d="M161.706427 80.73092799999995c-24.14184 0-43.711548 19.570731-43.711548 43.712571L117.994879 577.44785c0 24.14184 19.569708 43.712571 43.711548 43.712571l668.812465 0c24.140817 0 43.711548-19.570731 43.711548-43.712571l0-100.586906c19.205411-11.886725 37.309744-25.968441 53.767578-41.877783l0 198.429305c0 65.657372-59.803038 59.620889-59.803038 59.620889s-357.361037-0.366344-338.522993 0c-20.481474-0.550539-30.53955 10.790764-30.53955 10.790764s-14.265912 24.50409-39.868009 63.095014c-26.888394 40.600697-57.795311 34.018791-57.795311 34.018791L137.931954 800.937924c-72.971965 0-73.887824-70.229504-73.887824-70.229504l0-634.614595c0-78.274738 59.072397-68.581981 59.072397-68.581981l327.184761 0c-11.7056 16.641005-21.766746 34.564213-30.1773 53.402257L161.706427 80.73092799999995 161.706427 80.73092799999995zM958.171224 237.46664599999997c-2.009773 10.970866-12.617365 22.12695-23.587208 24.685215l-8.235568 1.830695c-19.197224 5.854335-36.392862 18.654872-47.180556 37.310767-10.791787 18.837021-13.533224 40.416502-8.777921 59.987233l0 0 2.558265 7.67889c3.290953 10.609639-0.915859 25.418926-9.509585 32.737612 0 0-7.679913 6.580882-29.441543 19.020192-21.766746 12.435217-31.096229 15.908318-31.096229 15.908318-10.602476 3.839445-25.417903 0.183172-33.098839-8.046257l-5.671163-6.219655c-14.630209-13.899568-34.385135-22.311145-56.145741-22.311145-21.762653 0-41.698704 8.4126-56.329936 22.494317l-5.482875 5.853311c-7.68503 8.229428-22.494317 11.885701-33.103956 8.046257 0 0-9.510608-3.474125-31.273261-15.908318-21.762653-12.618389-29.445636-19.204387-29.445636-19.204387-8.594749-7.131421-12.801561-21.762653-9.510608-32.553417l2.379187-7.865131c4.572132-19.75288 2.192945-40.966017-8.777921-59.985186-10.791787-18.839067-28.163433-31.822776-47.550992-37.492916l-7.864108-1.826602c-10.79281-2.562359-21.579481-13.538341-23.593348-24.691355 0 0-1.829671-9.876951-1.829671-34.930557 0-25.056676 1.829671-34.93465 1.829671-34.93465 2.013867-11.151991 12.618389-22.12695 23.593348-24.687262l7.680936-1.828648c19.384489-5.672186 36.759205-18.654872 47.734164-37.492916 10.787694-18.839067 13.534248-40.418548 8.777921-59.987233l0 0-2.196015-7.680936c-3.290953-10.608615 0.915859-25.418926 9.510608-32.737612 0 0 7.679913-6.579859 29.445636-19.019169 21.762653-12.619412 31.090089-15.909341 31.090089-15.909341 10.608615-3.839445 25.418926-0.184195 33.103956 8.046257l5.482875 5.852288c14.815427 13.900591 34.567283 22.494317 56.329936 22.494317 21.76163 0 41.698704-8.593725 56.33096-22.494317l0 0 5.485945-5.852288c7.680936-8.230452 22.49534-11.885701 33.098839-8.046257 0 0 9.511631 3.474125 31.278377 15.909341 21.762653 12.621459 29.442566 19.019169 29.442566 19.019169 8.593725 7.135514 12.800537 21.946848 9.509585 32.737612l-2.375094 7.863085c-4.573155 19.570731-2.197038 40.966017 8.776897 59.805084 10.788717 18.837021 28.344558 31.82073 47.732118 37.492916l0 0 7.684006 1.828648c10.787694 2.560312 21.579481 13.535271 23.589254 24.687262 0 0 1.830695 9.876951 1.830695 34.93465C959.818747 227.58867099999998 958.171224 237.46664599999997 958.171224 237.46664599999997L958.171224 237.46664599999997 958.171224 237.46664599999997zM707.801966 101.75987099999998c-55.415101 0-100.587929 44.995797-100.587929 100.587929 0 55.414077 44.989657 100.409874 100.587929 100.409874 55.414077 0 100.586906-44.995797 100.586906-100.587929C808.388872 146.75566800000001 763.400239 101.75987099999998 707.801966 101.75987099999998L707.801966 101.75987099999998 707.801966 101.75987099999998zM707.801966 101.75987099999998"  horiz-adv-x="1024" />

    
    <glyph glyph-name="shijian" unicode="&#4145;" d="M512 832c-256 0-460.8-208-460.8-460.8s208-460.8 460.8-460.8 460.8 208 460.8 460.8-204.8 460.8-460.8 460.8zM512-44.8c-227.2 0-412.8 185.6-412.8 412.8s185.6 412.8 412.8 412.8 412.8-185.6 412.8-412.8-182.4-412.8-412.8-412.8zM809.6 352h-278.4v281.6c0 12.8-9.6 22.4-22.4 22.4-12.8 0-22.4-9.6-22.4-22.4v-307.2c0-12.8 9.6-22.4 22.4-22.4 0 0 3.2 0 3.2 0h297.6c12.8 0 22.4 9.6 22.4 22.4-0 16-9.6 25.6-22.4 25.6z"  horiz-adv-x="1024" />

    
    <glyph glyph-name="system-jigouyonghu" unicode="&#4099;" d="M586.946 382.419c55.067 27.963 92.912 85.126 92.912 150.998 0 93.339-75.938 169.276-169.277 169.276s-169.275-75.938-169.275-169.276c0-65.872 37.845-123.034 92.911-150.998-95.653-32.016-164.779-122.455-164.779-228.744 0-11.316 9.174-20.492 20.492-20.492s20.492 9.175 20.492 20.492c0 110.369 89.791 200.161 200.161 200.161s200.16-89.792 200.16-200.161c0-11.316 9.174-20.492 20.492-20.492s20.492 9.175 20.492 20.492c-0.001 106.289-69.126 196.727-164.779 228.744zM382.288 533.417c0 70.742 57.553 128.294 128.293 128.294 70.742 0 128.294-57.553 128.294-128.294 0-70.741-57.553-128.293-128.294-128.293-70.74-0.001-128.293 57.552-128.293 128.293zM827.871 699.872c-84.373 84.371-196.551 130.838-315.871 130.838s-231.499-46.466-315.871-130.838c-84.373-84.374-130.838-196.551-130.838-315.871s46.465-231.499 130.838-315.872 196.551-130.838 315.871-130.838 231.498 46.465 315.871 130.838 130.838 196.552 130.838 315.872-46.465 231.498-130.838 315.871zM512-21.727c-223.718 0-405.727 182.007-405.727 405.728 0 223.718 182.008 405.727 405.727 405.727s405.727-182.007 405.727-405.727c0-223.72-182.008-405.728-405.727-405.728z"  horiz-adv-x="1024" />

    
    <glyph glyph-name="shehui-jiaoshipeixun" unicode="&#4128;" d="M827.169 162.107c3.681 10.975 5.679 22.714 5.679 34.912l0 293.474c0 60.681-49.367 110.049-110.049 110.049h-67.811v121.006c0 60.68-49.367 110.048-110.049 110.048h-44.188c-60.681 0-110.049-49.367-110.049-110.049v-121.005h-73.329c-60.681 0-110.049-49.367-110.049-110.049v-293.475c0-12.61 2.139-24.728 6.060-36.020-18.454-5.133-36.625-14.039-52.089-25.871-28.853-22.076-44.743-50.652-44.743-80.462v-10.145c0-61.385 49.94-111.325 111.325-111.325h570.128c61.385 0 111.325 49.94 111.325 111.325v10.145c-0.001 51.296-34.876 94.592-82.159 107.442zM500.75 791.579h44.188c25.167 0 47.268-13.35 59.615-33.334l-163.417-0c12.347 19.985 34.448 33.334 59.614 33.334zM544.938 511.341h-44.188c-39.126 0-70.031 38.883-70.031 89.202s0 117.794 0 117.794h184.251c0 0 0-68.999 0-117.794s-34.129-89.202-70.032-89.202zM247.34 490.493c0 38.614 31.417 70.031 70.031 70.031h75.319c9.771-50.746 54.505-89.202 108.060-89.202h44.188c53.555 0 98.289 38.456 108.060 89.202h69.801c38.614 0 70.031-31.417 70.031-70.031v-293.475c0-38.614-31.417-70.031-70.031-70.031h-31.233c-43.125 0-90.927 6.032-109.178 31.31-5.354 7.414-6.978 15.64-7.15 21.78h114.59c11.050 0 19.866 8.954 19.866 20.004l0 114.051c0 11.050-8.905 20.009-19.954 20.009s-19.954-8.959-19.954-20.009v-94.145h-111.745c-8.451 0-15.989-5.257-18.838-13.214-4.999-13.965-8.476-44.624 10.198-71.144 2.128-3.023 4.473-5.901 7.027-8.641h-63.183c2.549 2.732 4.888 5.604 7.013 8.618 18.689 26.512 15.244 57.187 10.262 71.148-2.843 7.964-10.388 13.231-18.845 13.231l-111.484 0v94.145c0 11.050-9.415 20.009-20.466 20.009s-20.466-8.959-20.466-20.009v-114.051c0-11.050 9.372-20.004 20.423-20.004h114.794c-0.184-6.14-1.769-14.071-6.925-21.387-18.047-25.601-79.031-31.702-109.499-31.702h-40.682c-19.191 0-36.599 7.765-49.261 20.311-6.433 6.792-8.836 9.675-12.816 17.362-5.069 9.687-7.954 20.688-7.954 32.358v293.475zM156.568 44.521v10.145c0 33.551 40.497 63.811 77.858 70.108 20.19-23.15 49.887-37.804 82.945-37.804h280.253c-1.979-12.202-7.061-21.56-15.419-28.396-24.71-20.214-73.578-15.839-90.313-12.451-5.894 1.212-11.898-0.288-16.561-4.088-4.662-3.801-7.134-9.496-7.134-15.511v-53.311l-240.321-0c-39.32 0.001-71.307 31.99-71.307 71.308zM869.31 44.521c0-39.318-31.989-71.307-71.307-71.307h-289.899v30.633c5.117-0.432 12.305-0.686 19.412-0.617 33.866 0.428 60.617 8.596 79.854 24.275 17.801 14.508 28.052 34.475 30.578 59.466h84.849c33.387 0 63.346 14.948 83.545 38.5 35.4-4.145 62.966-34.307 62.966-70.804v-10.146z"  horiz-adv-x="1024" />

    
    <glyph glyph-name="gerenfill" unicode="&#8244;" d="M639.318734 533.5285719999999c0 70.606081-57.443293 128.049375-128.049375 128.049375-70.606081 0-128.049375-57.44227-128.049375-128.049375s57.44227-128.049375 128.049375-128.049375C581.874417 405.48022 639.318734 462.922491 639.318734 533.5285719999999zM829.599452 700.3356679999999c-84.647889 84.647889-197.194174 131.265626-316.904627 131.265626-119.710452 0-232.256738-46.61876-316.90565-131.265626C111.14231 615.6867560000001 64.523549 503.141494 64.523549 383.43104200000005c0-119.709429 46.61876-232.256738 131.265626-316.904627 84.648912-84.649935 197.194174-131.266649 316.90565-131.266649 119.709429 0 232.256738 46.617737 316.904627 131.266649 84.649935 84.647889 131.266649 197.194174 131.266649 316.904627C960.866101 503.141494 914.248364 615.6867560000001 829.599452 700.3356679999999zM732.928738 132.04564100000005c-11.048637 0-20.007683 8.958022-20.007683 20.007683 0 111.192452-90.460268 201.652719-201.652719 201.652719s-201.651696-90.460268-201.651696-201.652719c0-11.048637-8.958022-20.007683-20.007683-20.007683-11.04966 0-20.007683 8.958022-20.007683 20.007683 0 107.004059 69.912279 197.973934 166.45201 229.668797-55.802934 27.762297-94.256734 85.364203-94.256734 151.806451 0 93.447299 76.025511 169.471786 169.471786 169.471786s169.471786-76.025511 169.471786-169.471786c0-66.442248-38.452777-124.045177-94.256734-151.806451 96.53973-31.695886 166.45201-122.664737 166.45201-229.668797C752.936421 141.00366399999996 743.978399 132.04564100000005 732.928738 132.04564100000005z"  horiz-adv-x="1024" />

    
    <glyph glyph-name="xinli-chengzhangfudao" unicode="&#4129;" d="M150.359 110.562c-11.038-0.107-19.888-9.134-19.797-20.173 0.093-10.99 9.045-19.84 20.018-19.84 0.047 0 0.096 0 0.142 0 1.458-0.035 146.866-0.144 237.259-101.373 3.953-4.426 9.43-6.68 14.93-6.68 4.742 0 9.503 1.676 13.319 5.084 8.243 7.361 8.958 20.008 1.597 28.251-102.709 115.016-260.823 114.815-267.469 114.731zM877.038 110.691c-6.542 0.084-161.247 0.318-267.59-114.533-7.507-8.107-7.020-20.766 1.089-28.274 3.849-3.564 8.724-5.326 13.59-5.326 5.377 0 10.743 2.157 14.685 6.414 93.234 100.692 233.99 101.704 237.781 101.704 0.164-0.002 0.172 0 0.247 0 10.953 0 19.89 8.824 20.002 19.802 0.112 11.051-8.752 20.101-19.802 20.212zM832.011 308.315c33.931 57.639 55.545 124.548 62.507 193.496 6.768 67.042-1.354 132.323-22.872 183.819-3.056 7.314-10.141 12.133-18.065 12.29-71.067 1.401-136.524-12.479-195.010-41.286-17.704 30.627-45.025 69.123-65.693 96.125-59.398 77.602-72.582 77.602-81.309 77.602-8.7 0-21.851 0-81.134-76.573-20.68-26.711-48.060-64.869-65.808-95.27-57.463 27.503-121.541 40.743-190.748 39.4-7.927-0.155-15.014-4.974-18.072-12.29-21.519-51.495-29.64-116.781-22.867-183.831 6.964-68.949 28.579-135.861 62.51-193.503 59.256-100.668 151.187-163.301 259.23-176.777 1.628-0.584 3.341-0.961 5.105-1.108 0.77-0.063 14.835-1.217 33.642-1.773l-0-174.869c0-11.049 8.958-20.008 20.008-20.008s20.008 8.958 20.008 20.008v174.903c18.716 0.566 33.254 1.666 34.068 1.728 1.831 0.14 3.601 0.528 5.271 1.132 108.055 13.502 199.981 76.136 259.23 176.784zM702.587 223.155c-40.972-29.073-87.71-46.707-138.916-52.408-1.261-0.141-2.484-0.395-3.655-0.754-8.44-0.547-27.712-1.637-47.321-1.637-19.374 0-37.317 1.065-45.277 1.614-1.196 0.371-2.445 0.635-3.73 0.778-51.176 5.702-97.888 23.33-138.841 52.399-37.433 26.57-69.366 62.047-94.913 105.448-59.377 100.875-75.903 234.082-41.93 329.38 64.233-0.666 123.157-15.347 175.319-43.705 4.78-2.598 10.412-3.142 15.597-1.496 5.186 1.642 9.48 5.326 11.893 10.202 23.422 47.345 95.158 140.219 120.698 163.796 25.57-23.852 97.456-117.946 120.867-165.839 2.415-4.941 6.757-8.669 12.006-10.31 5.24-1.641 10.94-1.049 15.738 1.636 53.090 29.707 113.358 45.063 179.328 45.719 33.98-95.302 17.456-228.496-41.922-329.363-25.555-43.405-57.497-78.886-94.942-105.459z"  horiz-adv-x="1024" />

    
    <glyph glyph-name="xiangxia" unicode="&#4136;" d="M850.657047 525.6931159999999c-6.28003 0-12.564154-2.334161-17.393135-7.014764L508.756119 204.22761400000002 181.673689 518.741797c-9.797134 9.42158-25.494651 9.242502-35.063587-0.394996-9.56996-9.645684-9.385764-25.099654 0.407276-34.513048l344.478635-331.243193c9.657964-9.28548 25.094538-9.261944 34.720779 0.067538l341.836459 331.240123c9.757225 9.453303 9.881045 24.90625 0.271176 34.512025C863.47191 523.2627640000001 857.063967 525.6931159999999 850.657047 525.6931159999999L850.657047 525.6931159999999 850.657047 525.6931159999999zM252.258281 674.456255c-4.29277 0-8.586562-1.63422-11.824303-4.900613-6.379291-6.423293-6.255471-16.727986 0.272199-23.003923L497.272577 399.84692c6.427386-6.183839 16.692171-6.179746 23.115464 0.008186L775.356037 645.58367c6.519484 6.29231 6.631024 16.588817 0.243547 23.00904-6.383384 6.423293-16.85283 6.52767-23.372314 0.243547L508.812401 434.235125 263.814478 669.823747c-3.218298 3.093455-7.387247 4.632507-11.552104 4.632507L252.258281 674.456255 252.258281 674.456255zM252.258281 674.456255"  horiz-adv-x="1024" />

    
    <glyph glyph-name="gangweizhize" unicode="&#4176;" d="M761.62995125 804.59611594L260.82645594 804.59611594c-45.46261594 0-82.31507062-36.21064875-82.31507063-80.88468l0-677.3334075c0-44.668275 36.85245375-80.88372094 82.31507063-80.88372094l500.80253625 0c45.46165688 0 82.31507062 36.21544594 82.31507062 80.88372094L843.94406187 723.712395C843.94502094 768.38546625 807.09160812 804.59611594 761.62995125 804.59611594L761.62995125 804.59611594zM817.81137969 65.36547374999998c0-42.11832375-33.96097406-76.25389969-75.84905438-76.25389969L280.49791813-10.888425940000047c-41.8919175 0-75.8519325 34.14133219-75.8519325 76.25389969L204.64598562 703.9449975c0 42.11352656 33.96097406 76.25485875 75.85193251 76.25485875l461.46536624 0c41.88712031 0 75.84905438-34.14133219 75.84905438-76.25485875L817.81233969 65.36547374999998 817.81137969 65.36547374999998zM817.81137969 65.36547374999998M750.78930125 341.4451725c7.21718719 0 13.07113781-5.87985375 13.07113781-13.13157656l0 0c0-7.24692656-5.85395063-13.12582031-13.07113781-13.12582032L390.72718344 315.18777468999997c-7.21334906 0-13.06538156 5.87889375-13.06538157 13.12582031l0 0c0 7.25268281 5.8520325 13.13157656 13.06538157 13.13157656L750.78930125 341.4451725 750.78930125 341.4451725zM750.78930125 341.4451725M750.78930125 219.89942063c7.21718719 0 13.07113781-5.87505656 13.07113781-13.12678032l0 0c0-7.24692656-5.85395063-13.12678031-13.07113781-13.12678031L390.72718344 193.64585999999997c-7.21334906 0-13.06538156 5.87313844-13.06538157 13.12678031l0 0c0 7.24692656 5.8520325 13.12678031 13.06538157 13.12678031L750.78930125 219.89942063 750.78930125 219.89942063zM750.78930125 219.89942063M750.78930125 102.24670875000004c7.21718719 0 13.07113781-5.87985375 13.07113781-13.12678031l0 0c0-7.25172375-5.85395063-13.12678031-13.07113781-13.12678031L390.72718344 75.99314905999995c-7.21334906 0-13.06538156 5.87505656-13.06538157 13.12678031l0 0c0 7.24692656 5.8520325 13.12678031 13.06538157 13.12678032L750.78930125 102.24670875000004 750.78930125 102.24670875000004zM750.78930125 102.24670875000004M751.16344719 462.49781812c3.84315469 0 6.96104062-5.87505656 6.96104062-13.12678031l0 0c0-7.24692656-3.11788594-13.12773937-6.96104062-13.12773937l-191.76438375 0c-3.84315469 0-6.95624344 5.88081281-6.95624344 13.12773937l0 0c0 7.25172375 3.11308969 13.12678031 6.95624344 13.12678031L751.16344719 462.49781812 751.16344719 462.49781812zM751.16344719 462.49781812M751.16344719 585.0134728099999c3.84315469 0 6.96104062-5.87505656 6.96104062-13.12773937l0 0c0-7.24692656-3.11788594-13.12486125-6.96104062-13.12486125l-191.76438375 0c-3.84315469 0-6.95624344 5.87793469-6.95624344 13.12486125l0 0c0 7.25268281 3.11308969 13.12773937 6.95624344 13.12773937L751.16344719 585.0134728099999 751.16344719 585.0134728099999zM751.16344719 585.0134728099999M419.03662906 716.14792406c0-12.28255219-9.90720281-22.23580406-22.13315343-22.23580406l-39.97897407 0c-12.22115437 0-22.13315344 9.95325187-22.13315343 22.23580406l0 0c0 12.27679594 9.912 22.23004781 22.13315343 22.23004782l39.97897407 0C409.12942625 738.37797188 419.03662906 728.42472 419.03662906 716.14792406L419.03662906 716.14792406 419.03662906 716.14792406zM419.03662906 716.14792406M441.88545781 432.86830688l-63.39190031-75.59482688-65.0554125 75.59482688 45.91926656 268.67831625 34.05786844-1e-8L441.88545781 432.86830688zM441.88545781 432.86830688"  horiz-adv-x="1024" />

    
    <glyph glyph-name="tubiao112" unicode="&#8249;" d="M897.7934375 523.05c-3.6 27.3375-4.10625 74.475 21.2625 90.28125 0.45 0.28125 0.84375 0.675 1.18125 1.06875 20.75625 6.6375 35.15625 15.975 23.85 28.51875l-306.45 92.3625L141.3996875 666.2625c0 0-56.86875-8.1-51.75-96.4125C92.4059375 521.8125 107.4809375 498.1875 120.6434375 486.6L79.9184375 474.3375C68.6121875 461.79375 83.0121875 452.45625 103.7684375 445.81875c0.39375-0.39375 0.73125-0.7875 1.18125-1.125C130.3746875 428.8875 129.8684375 381.75 126.2684375 354.4125c-91.2375-25.875-58.5-34.36875-58.5-34.36875l19.96875-4.8375c-14.0625-12.7125-28.0125-36.84375-25.425-82.575 5.11875-88.25625 51.75-94.33125 51.75-94.33125l324.73125-105.58125 490.21875 118.74375c0 0 32.7375 8.4375-58.5 34.36875-3.65625 27.3375-4.1625 74.41875 21.2625 90.28125 0.50625 0.28125 0.84375 0.73125 1.18125 1.06875 20.75625 6.6375 35.1 15.975 23.85 28.51875l-21.31875 6.4125c14.23125 8.55 35.55 30.99375 38.86875 89.1 2.30625 39.99375-8.15625 63.45-20.19375 77.23125l42.13125 10.18125C956.2934375 488.68125 989.0309375 497.11875 897.7934375 523.05L897.7934375 523.05zM487.7871875 524.175l82.4625 16.93125 278.55 57.2625 41.5125 8.55c-13.275-24.3-12.76875-57.4875-10.575-78.80625 0.50625-4.8375 1.06875-9.28125 1.575-12.6l-45.45-11.30625L484.3559375 416.7375 487.7871875 524.175 487.7871875 524.175zM133.7496875 438.225l41.45625-8.49375 267.525-55.0125L466.1309375 369.9375l0 0 0 0L536.2184375 355.5375l3.4875-107.49375L178.2996875 337.98749999999995 142.6934375 346.81875c0.5625 3.375 1.125 7.7625 1.575 12.6C146.4621875 380.73749999999995 147.0246875 413.98125 133.7496875 438.225L133.7496875 438.225zM117.6059375 574.125C117.0996875 597.58125 121.3184375 614.56875 129.7559375 623.175 135.1559375 628.74375 141.5121875 629.86875 145.8434375 629.86875c2.30625 0 3.9375-0.3375 4.05-0.3375l213.8625-69.69375 106.65-34.7625L466.9184375 416.85l-299.25 83.925L151.8621875 505.1625C151.2996875 505.33125 150.5121875 505.44375 149.8934375 505.5 148.6559375 505.55625 119.0684375 508.25625 117.6059375 574.125L117.6059375 574.125zM439.5809375 79.57500000000005l-315.05625 88.3125c-0.61875 0.16875-1.35 0.28125-1.96875 0.3375-1.2375 0.05625-30.88125 2.8125-32.2875 68.625-0.50625 23.5125 3.65625 40.5 12.15 49.10625 5.4 5.5125 11.75625 6.69375 16.0875 6.69375 2.30625 0 3.9375-0.3375 4.10625-0.3375l0 0 320.45625-104.5125L439.5809375 79.57500000000005 439.5809375 79.57500000000005zM852.4559375 190.83749999999998c0.50625-4.8375 1.06875-9.28125 1.575-12.6l-397.06875-98.775 3.54375 107.4375 84.88125 17.49375 12.54375-3.0375 46.96875 15.24375 216.61875 44.49375 41.5125 8.55C849.6996875 245.39999999999998 850.2621875 212.15625 852.4559375 190.83749999999998L852.4559375 190.83749999999998zM874.2809375 336.86249999999995c-0.73125 0-1.40625-0.1125-2.08125-0.3375l-29.925-8.38125-285.13125-79.93125L553.6559375 356.4375l93.54375 30.4875 226.4625 73.85625c0.05625 0 11.925 2.64375 20.64375-6.1875 8.38125-8.60625 12.65625-25.65 12.15-49.10625C904.9934375 339.67499999999995 875.4059375 336.975 874.2809375 336.86249999999995L874.2809375 336.86249999999995zM874.2809375 336.86249999999995"  horiz-adv-x="1025" />

    
    <glyph glyph-name="shehui-xueshenglixiang" unicode="&#4118;" d="M771.2 512c0 160-128 288-288 288s-288-128-288-288c0-108.8 57.6-201.6 147.2-249.6-121.6-48-214.4-153.6-240-288-3.2-16 6.4-35.2 25.6-38.4h6.4c16 0 28.8 9.6 32 25.6 28.8 150.4 160 259.2 313.6 262.4h6.4c153.6 0 284.8 131.2 284.8 288zM259.2 512c0 124.8 99.2 224 224 224s224-99.2 224-224c0-121.6-99.2-220.8-220.8-224h-9.6c-121.6 6.4-217.6 105.6-217.6 224zM704 224c0-19.2 12.8-32 32-32h160c19.2 0 32 12.8 32 32s-12.8 32-32 32h-160c-16 0-32-12.8-32-32zM896 131.2h-256c-19.2 0-32-12.8-32-32s12.8-32 32-32h256c19.2 0 32 12.8 32 32s-12.8 32-32 32zM896 3.2h-252.8c-19.2 0-32-12.8-32-32s12.8-32 32-32h252.8c19.2 0 32 12.8 32 32s-16 32-32 32z"  horiz-adv-x="1024" />

    
    <glyph glyph-name="shehui-zhidaolaoshilixiang" unicode="&#4119;" d="M448 490.667c0 70.692-57.308 128-128 128s-128-57.308-128-128c0-70.692 57.308-128 128-128 70.692 0 128 57.308 128 128zM243.2 490.667c0 42.415 34.385 76.8 76.8 76.8s76.8-34.385 76.8-76.8c0-42.415-34.385-76.8-76.8-76.8-42.415 0-76.8 34.385-76.8 76.8zM130.809 227.2v-26.667h414.228v26.667c0 99.44-95.982 186.667-207.114 186.667-6.621 0-13.207-0.28-19.744-0.836-14.25-1.213-24.846-14.095-23.669-28.773 1.178-14.678 6.328-19.726 20.577-18.513 5.118 0.436 17.637-5.212 22.835-5.212 83.879 0 155.336-45.316 155.336-106.667h-310.671c0 18.884 20.276 53.818 58.324 78.863 12.048 7.931 15.573 24.42 7.874 36.83-7.7 12.41-23.708 16.041-35.756 8.11-52.359-34.466-82.22-85.902-82.22-150.47zM128.187 71.619c-42.56 0-76.953 33.734-76.953 75.567v570.528h845.485c42.318 0 76.718-33.802 76.718-75.323v-493.445c0-13.886 11.469-25.143 25.617-25.143 14.148 0 25.617 11.257 25.617 25.143v493.445c0 69.28-57.325 125.609-127.952 125.609h-896.718v-620.814c0-69.614 57.34-125.853 128.187-125.853h784.027c14.148 0 25.617 11.257 25.617 25.143 0 13.886-11.469 25.143-25.617 25.143h-784.027zM871.608 490.667c13.471 0 24.392 9.551 24.392 21.333s-10.921 21.333-24.392 21.333h-292.549c-13.471 0-24.392-9.551-24.392-21.333 0-11.782 10.921-21.333 24.392-21.333h292.549zM807.059 384c13.775 0 24.941 9.551 24.941 21.333 0 11.782-11.167 21.333-24.941 21.333h-227.451c-13.775 0-24.941-9.551-24.941-21.333 0-11.782 11.167-21.333 24.941-21.333h227.451z"  horiz-adv-x="1025" />

    
    <glyph glyph-name="zice" unicode="&#4181;" d="M359.0703125 671.353125l-25.8046875-7.228125L314.421875 457.3640625l26.65546875 7.4671875 3.66328125 56.165625 77.78671875 21.796875 33.39140625-45.79453125 26.65546875 7.46015625L359.0703125 671.353125zM346.4140625 544.24921875l6.23671875 85.528125c0.28125 3.346875 0.05625 7.9734375-0.646875 13.84453125l0.59765625 0.17578125c2.784375-5.88515625 4.95703125-9.9703125 6.5671875-12.21328125l49.95-69.778125L346.4140625 544.24921875zM279.490625 391.67109375c0.8015625 0 1.6453125 0.09140625 2.4890625 0.26015625L485.084375 435.328125c6.53203125 1.38515625 10.6734375 7.78359375 9.26015625 14.29453125-1.3640625 6.48984375-7.57265625 10.575-14.2453125 9.26015625l-203.09765625-43.396875c-6.53203125-1.38515625-10.6734375-7.78359375-9.26015625-14.29453125C268.915625 395.55234375 273.94296875 391.67109375 279.490625 391.67109375zM516.39453125 416.73046875c-2.3484375 6.25078125-9.21796875 9.35859375-15.51796875 7.0734375L275.2578125 339.48515625000005c-6.20859375-2.32734375-9.35859375-9.26015625-7.05234375-15.48984375 1.83515625-4.84453125 6.39140625-7.82578125 11.28515625-7.82578125 1.41328125 0 2.81953125 0.23203125 4.2328125 0.75234375l225.61875 84.31875C515.55078125 403.56796875 518.70078125 410.50078125 516.39453125 416.73046875zM849.57734375 533.84296875l-28.66640625 29.69296875c-13.33828125 13.809375-32.80078125 16.64296875-43.48125 6.328125L653.40546875 450.0796875l-42.32109375 249.11015625c0 40.4296875-32.81484375 73.321875-75.12890625 73.321875-0.09140625 0-0.18984375 0-0.28125 0l-376.2984375-61.284375c-40.528125 0-73.48359375-32.95546875-73.29375-75.48046875l91.96171875-541.321875c0-40.5 32.95546875-73.4625 73.48359375-73.4625l0.984375 0 377.240625 61.425c40.528125 0 73.48359375 32.95546875 73.29375 75.5015625L675.884375 317.765625l178.509375 172.40625C865.07421875 500.4796875 862.915625 520.040625 849.57734375 533.84296875zM679.1609375 155.87109375c0-27.24609375-22.14140625-49.40859375-51.3421875-49.57734375l-377.240625-61.25625c-26.79609375 0.4921875-48.4734375 22.49296875-48.65625 51.4125L109.96015625 637.76484375c0 27.21796875 22.14140625 49.3875 51.3421875 49.55625l376.2984375 61.284375c27.2671875 0 49.40859375-22.16953125 49.5984375-51.43359375l45.39375-267.1875-69.03984375-66.67734375c-10.68046875-10.31484375-8.521875-29.86875 4.81640625-43.678125l28.6734375-29.6859375c13.33828125-13.809375 32.80078125-16.64296875 43.48125-6.328125l14.5546875 14.0625L679.1609375 155.87109375zM946.86171875 628.24453125l-30.5296875 32.63203125c-13.71796875 14.66015625-36.72421875 15.4265625-51.384375 1.715625l-32.63203125-30.5296875c-14.66015625-13.71796875-15.4265625-36.72421875-1.715625-51.384375l30.5296875-32.63203125c13.71796875-14.66015625 36.72421875-15.43359375 51.384375-1.715625l32.63203125 30.5296875C959.81328125 590.578125 960.5796875 613.584375 946.86171875 628.24453125zM501.1578125 221.80312500000002L600.71328125 253.66875000000005 531.94765625 320.76796875Z"  horiz-adv-x="1024" />

    
    <glyph glyph-name="jiatingjingjikunnanshenqing" unicode="&#4183;" d="M448.10872345 275.64384938c-4.02918 20.52962906-18.89877094 31.0822425-36.4544822 39.23653407-11.32007625 5.27630625-23.02388343 9.97701562-33.2886975 16.88418092-12.3753375 8.44209094-11.70380719 22.16048813 0 31.56190688 9.68921719 7.77056062 35.68701937 9.59328469 46.71929625 3.16578375 12.18347156-7.00309781 14.96552438-6.04376906 19.76216625 7.19496375 0.28779844 0.76746281 0.57559689 1.43899313 0.86339531 2.20645594 1.91865657 5.18037375 0.38373094 10.07294906-4.89257531 12.27940406-5.66003812 2.30238844-11.60787469 4.79664281-17.55571125 5.27630625-6.3315675 0.57559689-10.16888156 2.87798531-13.23873281 8.25022501-4.89257531 8.63395594-18.80283844 7.96242656-24.17507719-0.57559689-1.91865657-3.06985125-4.50884345-6.04376906-7.48276219-7.96242656-6.235635-4.1251125-13.33466531-6.90716531-19.37843531-11.32007625-9.11362031-6.71529937-16.5963825-15.06145687-17.55571125-27.14899593-0.95932875-11.70380719-2.01459001-23.50354781 6.04376906-33.67242938 11.79974063-15.06145687 28.58798812-22.64015156 45.37623656-30.21884719 5.94783655-2.68611937 11.99160563-5.46817219 17.17197938-9.30548625 6.1397025-4.50884345 11.79974063-10.74447844 9.49735219-19.09063687-2.30238844-8.44209094-7.57869469-15.63705375-16.40451657-18.22724063-15.92485219-4.79664281-31.27410844-3.45358219-45.664035 5.56410469-1.63085813 0.95932875-5.66003812 0.86339531-6.52343343-0.19186594-2.78205281-3.64544813-4.89257531-7.96242656-6.61936688-12.27940406-2.39832094-6.04376906-0.28779844-10.64854594 5.94783656-12.75906844 6.42750094-2.01459001 12.95093437-3.74138063 19.66623375-4.60477688 7.48276219-1.05526125 13.43059875-3.45358219 17.84350969-10.16888156 5.27630625-7.86649312 9.97701562-7.19496375 14.19806157 1.43899313 2.59018687 5.18037375 5.94783655 8.3461575 11.79974062 10.64854594 22.64015156 8.63395594 34.63175812 21.29709187 35.01548906 45.75996843l0 0C448.68432125 270.17567719 448.58838781 272.95772998999996 448.10872345 275.64384938zM526.77365844 822.17327906C293.75277313 822.17327906 104.95692969 633.37743562 104.95692969 400.35655031s188.89177594-421.81672875 421.81672875-421.81672875 421.81672875 188.89177594 421.81672875 421.81672875S759.69861125 822.17327906 526.77365844 822.17327906zM516.221045 293.96702345000006c-2.30238844-25.71000281-11.70380719-49.02168469-29.16358594-68.40012002-6.61936687-7.38682969-13.52653125-14.77365844-21.48895781-20.52962906-8.44209094-6.04376906-18.22724063-10.16888156-27.53272687-15.15738937-3.54951563-1.91865657-7.00309781-3.93324656-10.64854594-5.75597063-1.53492563-0.76746281-3.35764969-1.15119375-5.08444125-1.15119375-9.11362031-0.0959325-18.32317406 0-27.43679438 0 0-0.0959325 0-0.0959325 0-0.19186593l0 0c-3.16578375 0-6.42750094 0.38373094-9.49735218-0.0959325-17.07604687-2.49425437-31.178175 5.46817219-45.5681025 12.47127-20.721495 10.16888156-35.78295187 26.76526406-48.63795375 45.37623656-4.60477689 6.81123187-7.29089625 14.96552438-10.93634438 22.44828656-1.82272406 3.83731406-4.02918 7.38682969-5.85190406 11.22414281-0.67153031 1.34305969-1.05526125 4.70070938-1.34305969 6.1397025-3.54951563 16.692315-7.67462812 28.30018969 0.47966438 53.24272969 0.95932875 2.87798531 2.97391781 5.85190406 4.31697843 8.92175438 3.54951563 7.96242656 6.42750094 16.21265156 10.3607475 23.98321218 11.70380719 22.44828656 28.77985406 39.4284 51.8037375 50.74847626 21.68082375 10.55261344 44.41690781 15.44518875 68.11232157 12.3753375 12.5672025-1.63085813 24.75067406-6.71529937 36.93414656-10.74447844 13.14280031-4.31697844 23.69541281-12.85500187 33.38463092-22.35235313 15.92485219-15.54112125 26.8611975-33.96022781 33.48056345-55.44918562C516.89257531 325.52892938 517.66003812 309.70000969 516.221045 293.96702345000006zM712.11591875 200.91216187999999c-0.0959325-5.46817219-2.78205281-11.03227781-4.98850781-16.30858407-0.47966438-1.24712719-3.74138063-1.82272406-5.66003813-1.82272406-21.10522594-0.19186594-42.11451938-0.0959325-63.21974625-0.0959325-8.3461575 0-16.692315 0.0959325-25.03847344 0.0959325-3.26171719 0-4.89257531 0.95932875-6.71529937 4.1251125-3.83731406 6.61936687-4.31697844 13.23873281-4.31697844 20.52962906 0.38373094 33.38463094 0.28779844 66.76926187 0.38373094 100.24982531 0 11.22414281-5.75597062 16.98011437-17.45977781 17.26791282-9.97701562 0.19186594-19.85809969-0.0959325-29.83511532-0.0959325-10.55261344 0.0959325-13.62246469 2.78205281-15.82891968 13.14280031-6.71529937 31.37004094-21.68082375 58.23123844-45.37623657 79.91206125-8.05835906 7.29089625-17.07604687 13.43059875-25.90186875 19.85809969-7.00309781 5.08444125-7.29089625 8.3461575-0.86339531 13.91026312 21.00929344 18.13130813 42.01858687 36.26261625 63.12381375 54.39392438 8.05835906 6.90716531 14.10212813 7.09903031 22.25642063 0 15.15738937-13.04686687 30.02698125-26.57339906 44.99250562-39.71619844 11.79974063-10.3607475 23.79134625-20.52962906 35.59108594-30.79444406 17.74757625-15.54112125 35.39922094-31.178175 53.0508647-46.81522969 6.90716531-6.235635 14.29399406-12.18347156 19.95403218-19.47436781 3.45358219-4.50884345 5.75597062-11.12821031 5.94783656-16.88418094 0.57559689-25.23033844 0.28779844-50.46067781 0.28779844-75.78694875 0 0 0 0 0 0C712.40371719 251.37283875000003 712.69151563 226.14250030999995 712.11591875 200.91216187999999zM771.2105525 377.42860031c-8.63395594-4.31697844-17.74757625-3.16578375-25.23033844 3.06985125-13.81432969 11.60787469-27.14899594 23.79134625-40.77145968 35.68701938-20.33776313 17.74757625-40.67552719 35.49515344-60.91735783 53.33866312-18.03537563 15.82891969-36.07075031 31.75377281-54.01019249 47.678625-13.62246469 12.08753906-27.24492844 24.27101063-40.96332562 36.35854875-5.46817219 4.79664281-9.78515062 4.89257531-15.34925533 0.19186594-11.79974063-10.07294906-23.50354781-20.14589812-35.20735499-30.41071219-23.40761438-20.52962906-46.81522969-41.05925812-70.03097813-61.87668656-5.56410469-4.98850781-11.79974063-6.61936687-18.70690499-5.46817219-13.52653125 2.30238844-26.95712999 1.15119375-40.29179531-1.24712719-3.26171719-0.57559689-6.42750094-1.91865657-9.68921719-2.78205281-2.49425437-0.67153031-4.98850781-1.72679156-7.48276219-1.72679156-1.91865657 0-4.41291094 1.15119375-5.37223968 2.59018687-0.67153031 0.95932875 0.47966438 3.74138063 1.53492562 5.18037375 2.20645594 2.78205281 4.70070938 5.46817219 7.38682969 7.77056063 18.99470343 16.21265156 38.18127281 32.23343625 57.17597719 48.54202031 17.65164375 15.15738937 35.11142156 30.41071219 52.5712003 45.75996844 16.88418094 14.77365844 33.76836187 29.45138437 50.55661032 44.41690781 4.02918 3.64544813 7.48276219 7.96242656 11.32007626 11.89567313 0.76746281 0.76746281 1.82272406 1.24712719 2.8779853 1.72679156 0.67153031 0.28779844 1.63085813 0.0959325 2.39832094 0.19186594 12.85500187 1.53492563 22.92794999-1.05526125 32.61716813-11.60787469 13.14280031-14.48586 29.45138437-25.99780125 44.22504281-38.94873563 8.82582188-7.67462812 17.26791281-15.82891969 25.99780125-23.50354781 1.63085813-1.43899313 4.31697844-3.06985125 5.94783656-2.59018687 1.63085813 0.47966438 3.26171719 3.35764969 3.54951563 5.46817218 1.05526125 6.52343344 4.89257531 10.07294906 10.93634437 10.84041188 5.85190406 0.67153031 11.89567313 0.67153031 17.84350969 0.76746281 8.53802345 0.0959325 17.07604687 0.38373094 25.61407031 0.0959325 12.27940406-0.28779844 17.26791281-5.46817219 17.36384531-17.65164375 0.0959325-9.59328469 0-19.09063689 0-28.68392156-0.19186594 0-0.38373094 0-0.57559687 0 0-9.30548625 0.57559689-18.706905-0.19186594-28.01239125-0.86339531-11.41600875 6.61936687-17.07604687 13.81432969-23.50354781 15.25332281-13.62246469 29.83511531-28.01239125 45.85590094-40.67552719 7.67462812-6.04376906 8.63395594-12.5672025 8.05835906-20.721495 0-0.57559689-0.0959325-1.24712719 0-1.82272405C786.65574125 386.44628719 779.07704562 381.26591343999996 771.2105525 377.42860031z"  horiz-adv-x="1024" />

    
    <glyph glyph-name="fudaoqi" unicode="&#8247;" d="M774.89085957-2.987821879999956l-565.57254199 1e-8c-55.43031797 0-102.76882295 43.44234609-102.76882295 98.83578955L106.5494955 552.24892763c0 53.73137021 46.39774219 97.71964629 102.76882296 97.7196463l234.50250761 0 0-35.9756086L209.31741846 613.99296445c-36.77966367 0-66.79321435-27.64635557-66.79321435-61.7440377l0-456.40185995c0-34.93501435 31.82042549-62.86018096 66.79321435-62.86018096l565.57254199 0c34.7965084 0 61.06409824 27.32257529 61.06409824 62.86018096L835.95405958 343.27740996l35.97560858 0 0-247.42944316C871.92966729 40.45362422000005 829.54320576-2.987821879999956 774.89085957-2.987821879999956zM731.18769102 421.76269658c-105.63877705 0-191.58540469 85.94393027-191.58540469 191.58540469 0 105.63877705 85.94572852 191.58270732 191.58540469 191.58270732s191.5809082-85.94393027 191.5809082-191.58270732C922.76859922 507.70662685 836.82646807 421.76269658 731.18769102 421.76269658zM731.18769102 768.92102373c-85.78383838 0-155.5747207-69.7890832-155.57472071-155.57292159S645.40385176 457.77338145 731.18769102 457.77338145s155.57112247 69.79178145 155.57112246 155.57472069S816.9715294 768.92102373 731.18769102 768.92102373zM138.02725391 226.35668203l715.91460995 0 0-35.97560859-715.91460995 0 0 35.97560859Z"  horiz-adv-x="1024" />

    
    <glyph glyph-name="xueyuan" unicode="&#4164;" d="M529.57812473 665.24999973L283.48437527 665.24999973c-10.546875 0-17.57812473-7.03124973-17.57812473-17.57812473 0-10.546875 7.03124973-17.57812473 17.57812473-17.57812473l246.09375027 0c10.546875 0 17.57812473 7.03124973 17.57812473 17.57812473C547.15625027 658.21875 540.12499973 665.24999973 529.57812473 665.24999973zM529.57812473 524.62500027L283.48437527 524.62500027c-10.546875 0-17.57812473-7.03124973-17.57812473-17.57812472s7.03124973-17.57812473 17.57812473-17.57812472l246.09375027 0c10.546875 0 17.57812473 7.03124973 17.57812473 17.57812471S540.12499973 524.62500027 529.57812473 524.62500027zM529.57812473 348.84374973L283.48437527 348.84374973c-10.546875 0-17.57812473-7.03124973-17.57812473-17.57812473s7.03124973-17.57812473 17.57812473-17.57812473l246.09375027 0c10.546875 0 17.57812473 7.03124973 17.57812473 17.57812473S540.12499973 348.84374973 529.57812473 348.84374973zM529.57812473 173.0625L283.48437527 173.0625c-10.546875 0-17.57812473-7.03124973-17.57812473-17.57812473s7.03124973-17.57812473 17.57812473-17.57812473l246.09375027 0c10.546875 0 17.57812473 7.03124973 17.57812473 17.57812473S540.12499973 173.0625 529.57812473 173.0625zM916.29687527-2.718749730000013l-52.734375 0L863.56250027 594.9375c0 38.67187473-31.640625 70.31249973-70.31249973 70.31249973l-140.62500027 0L652.62500027 735.56250027c0 38.67187473-31.640625 70.31249973-70.31249972 70.31249973L230.75000027 805.875C192.07812473 805.875 160.43749973 774.234375 160.43749973 735.56250027l0-738.28125L107.70312473-2.718749730000013c-10.546875 0-17.57812473-7.03124973-17.57812473-17.57812473 0-10.546875 7.03124973-17.57812473 17.57812473-17.57812471l52.734375 0 457.03125027 0 35.15625027 0 210.9375 0 52.734375 0c10.546875 0 17.57812473 7.03124973 17.57812473 17.57812471C933.875-9.750000269999987 926.84375027-2.718749730000013 916.29687527-2.718749730000013zM195.59375-2.718749730000013L195.59375 735.56250027c0 19.33593777 15.8203125 35.15625027 35.15625027 35.15625027l351.56250027 0c19.33593777 0 35.15625027-15.8203125 35.15625029-35.15625027l0-70.31249973 0 0 0-667.96875027L195.59375-2.718749730000013zM652.62500027-2.718749730000013L652.62500027 630.09375027l140.62500027 0c19.33593777 0 35.15625027-15.8203125 35.15625029-35.15625027l0-597.65624973L652.62500027-2.718749730000013z"  horiz-adv-x="1024" />

    
    <glyph glyph-name="xiangshang" unicode="&#8240;" d="M173.343 263.64c6.281 0 12.564 2.333 17.393 7.015l324.508 314.451 327.082-314.514c9.797-9.422 25.495-9.243 35.064 0.395 9.57 9.646 9.386 25.099-0.407 34.513l-344.479 331.243c-9.658 9.285-25.095 9.262-34.721-0.069l-341.837-331.24c-9.757-9.453-9.881-24.906-0.271-34.512 4.853-4.853 11.26-7.283 17.667-7.282v0 0zM771.742 114.87699999999995c4.294 0 8.587 1.633 11.824 4.901 6.379 6.423 6.254 16.728-0.272 23.004l-256.566 246.705c-6.427 6.184-16.692 6.18-23.115-0.008l-254.968-245.729c-6.52-6.292-6.631-16.589-0.244-23.009 6.383-6.423 16.853-6.528 23.372-0.244l243.414 234.601 244.998-235.589c3.218-3.094 7.386-4.633 11.552-4.634h0.004zM771.742 114.87699999999995z"  horiz-adv-x="1024" />

    
    <glyph glyph-name="shehui-xuexiaotuanweilixiang" unicode="&#4116;" d="M213.183-32.61h220.409c13.73 0 25.293 11.562 25.293 25.293s-11.562 25.293-25.293 25.293h-220.409c-26.738 0-49.14 21.68-49.14 49.14v99.726h359.159c13.73 0 25.293 11.562 25.293 25.293s-11.562 25.293-25.293 25.293h-359.159v504.412c0 26.738 21.68 49.14 49.14 49.14h389.51c26.738 0 49.14-21.68 49.14-49.14v-327.362c0-13.73 11.562-25.293 25.293-25.293s25.293 11.562 25.293 25.293v327.362c0 54.922-44.805 99.726-99.726 99.726h-389.51c-54.922 0-99.726-44.805-99.726-99.726v-654.724c0-55.644 44.805-99.726 99.726-99.726zM372.889 119.87c-13.73 0-25.293-11.562-25.293-25.293s11.562-25.293 25.293-25.293h70.097c13.73 0 25.293 11.562 25.293 25.293s-11.562 25.293-25.293 25.293h-70.097zM584.627 218.874c0-34.687 15.176-65.761 39.023-88.164-65.039-26.016-113.457-84.55-125.742-157.538-2.168-13.73 7.227-26.738 20.957-28.906 13.73-2.168 26.738 7.227 28.906 20.957 12.285 75.879 77.324 130.8 153.925 130.8h5.781c76.601 0 141.64-54.922 153.925-130.8 2.168-12.285 13.008-20.957 24.57-20.957h4.336c13.73 2.168 23.125 15.176 20.957 28.906-12.285 72.988-60.703 131.523-125.742 157.538 23.848 21.68 39.023 53.476 39.023 88.164 0 66.484-53.476 119.96-119.96 119.96-66.484 0-119.96-54.199-119.96-119.96zM704.587 288.248c38.301 0 69.375-31.074 69.375-69.375s-31.074-69.375-69.375-69.375-69.375 31.074-69.375 69.375 31.074 69.375 69.375 69.375zM284.725 687.153c0-15.166 12.295-27.461 27.461-27.461s27.461 12.295 27.461 27.461c0 15.166-12.295 27.461-27.461 27.461-15.166 0-27.461-12.295-27.461-27.461zM380.838 687.153c-0-0.002-0-0.003-0-0.005 0-15.166 12.295-27.461 27.461-27.461 15.166 0 27.461 12.295 27.461 27.461 0 0.002-0 0.004-0 0.006 0 0.001 0 0.003 0 0.005 0 15.166-12.295 27.461-27.461 27.461-15.166 0-27.461-12.295-27.461-27.461 0-0.002 0-0.004 0-0.006zM476.951 687.153c-0-0.002-0-0.003-0-0.005 0-15.166 12.295-27.461 27.461-27.461 15.166 0 27.461 12.295 27.461 27.461 0 0.002-0 0.004-0 0.006 0 0.001 0 0.003 0 0.005 0 15.166-12.295 27.461-27.461 27.461-15.166 0-27.461-12.295-27.461-27.461 0-0.002 0-0.004 0-0.006z"  horiz-adv-x="1024" />

    
    <glyph glyph-name="student-wenhuayishulei" unicode="&#4101;" d="M1017.699 422.166c-13.059 55.777-35.499 108.65-66.699 157.151-30.601 47.569-68.756 89.611-113.408 124.958-45.033 35.65-95.343 63.425-149.532 82.552-56.051 19.785-114.929 29.817-175.002 29.817-60.882 0-120.509-10.297-177.224-30.606-54.825-19.632-105.598-48.107-150.909-84.635-44.957-36.241-83.146-79.278-113.506-127.915-30.996-49.653-52.89-103.67-65.074-160.552-8.402-39.226 12.374-79.122 49.402-94.864l361.066-153.499-60.12-23.106c-22.345-8.589-34.667-31.268-29.297-53.927 8.942-37.738 32.205-71.887 65.505-96.155 32.946-24.010 74.431-37.233 116.817-37.233 42.393 0 82.339 12.551 115.519 36.296 33.001 23.617 56.45 56.988 66.025 93.965 5.848 22.581-6.523 46.168-28.776 54.867l-65.128 25.457 371.86 160.787c37.418 16.179 57.808 56.823 48.483 96.644zM666.931 726.966c47.569-16.791 91.732-41.171 131.26-72.463 49.285-39.321 89.653-87.529 119.14-142.45l-262.296-28.387c-34.905 19.731-72.157 32.188-110.298 36.868l-1.442 231.654c42.355-2.721 83.821-11.169 123.636-25.222zM224.766 651.982c39.773 32.063 84.342 57.058 132.468 74.292 39.47 14.133 80.573 22.724 122.579 25.695l1.437-230.857c-38.557-4.026-76.257-15.987-111.631-35.374l-159.752 153.686c44.562 39.391 97.643 70.311 156.018 89.599zM80.584 376.492c-9.094 3.866-14.209 13.601-12.165 23.147 15.35 71.666 48.968 138.639 96.874 194.579l150.776-145.051c-40.506-33.645-75.541-77.692-102.777-129.094l-132.709 56.418zM588.294 42.070c-22.022-15.76-49.927-24.438-78.575-24.438-52.351 0-98.607 28.726-115.861 70.111l114.010 43.816 116.882-45.687c-7.508-16.883-20.093-32.092-36.455-43.802zM515.578 198.535c-2.417-1.067-5.236-1.688-8.2-1.688-2.92 0-5.699 0.603-8.219 1.691l-227.2 96.594c24.859 45.528 56.59 83.8 92.965 111.848 44.272 34.138 94.603 52.182 145.548 52.182 50.422 0 100.297-17.695 144.231-51.173 35.958-27.4 67.478-64.816 92.355-109.365l-231.48-100.089zM944.023 383.791l-138.443-59.861c-26.223 48.432-59.426 90.183-97.576 122.607l153.175 147.359c42.407-49.285 74.519-108.71 92.216-174.061-28.515 82.749-8.907 36.562 2.495-12.14 2.313-9.877-2.677-19.931-11.867-23.904z"  horiz-adv-x="1024" />

    
    <glyph glyph-name="kecheng" unicode="&#57440;" d="M200.4651705 365.91146426c-1.64318555 0-3.25399394-0.22484795-4.86480146-0.58100626C96.89948808 341.74484883 89.19800967 256.90177237 89.09907646 201.50922891000005v-1.74032052c0-4.80094453 0.06565518-9.34466396 0.13131123-13.63475566l0.06295781-99.08312167c0-56.87473886 43.62941953-93.61123154 111.17092588-93.61123155h70.15153711c11.43844453 0 20.75252959 9.28350615 20.75252959 20.75163047 0 11.4735208-9.31408506 20.78580761-20.75252959 20.78580762H200.46427138c-20.94769776 0-69.60290888 5.0581705-69.60290976 52.07289433l-0.12861211 99.60386836c-0.80405508 62.64162862 4.18935938 120.25836474 72.21203965 137.69034609h64.51236123c11.47082256 0 20.74983135 9.31228594 20.74983135 20.7534296 0 11.46812432-9.27900879 20.81278916-20.74983135 20.81278828h-66.99197989v0.0009zM251.1530044 526.99944609c0 54.49045518 44.37141592 98.82949394 98.86277109 98.82949394 54.55071474 0 98.89514912-44.37411416 98.89514912-98.82949394 0-54.55431211-44.34443437-98.89425-98.89514912-98.89424911-54.49135518 0-98.86277109 44.33993789-98.86277109 98.89424911M439.78930859 774.99280693c-54.71530313 0-99.2504083-44.50092803-99.2504083-99.21892939v-8.92464961c-72.98551582-4.86480146-130.9251331-65.63749746-130.92513222-139.84978184 0-77.46807656 62.99688779-140.43168721 140.39841005-140.43168721 77.46807656 0 140.46136699 62.99598867 140.46136699 140.43168721 0 66.34891582-46.36536416 121.96630722-108.3648287 136.53013272v12.24429872c0 31.80693516 25.87005967 57.68149219 57.67879394 57.68149132H828.76028662c31.80513604 0 57.68149219-25.90513594 57.68149219-57.68149132v-469.52486279c0-31.77995362-25.88085263-57.68149219-57.68149219-57.6814913H610.83533955l0.06115869 37.63678183c0.48297217 37.76269658 1.09275908 98.34832002-36.44598955 139.97479746l105.85373115 223.66845264c4.86660059 10.40594502 0.45509151 22.78065498-9.92657021 27.67693536-10.33759073 4.86749971-22.78245322 0.45059414-27.67693447-9.89059484L540.74855849 352.08873603999996c-10.47429844 5.47638662-22.4919501 9.98682891-36.28589852 13.27949648a20.79120323 20.79120323 0 0 1-4.83242344 0.57650889h-67.05673507c-11.44114277 0-20.75073135-9.30778945-20.75073134-20.75252959 0-11.50140234 9.3095877-20.81368828 20.75073134-20.81368828h64.50786299c68.1234126-17.43377959 73.11592705-75.0487166 72.27769571-137.66336456l-0.09803321-58.67531806c0-0.09353672-0.02788066-0.1600919-0.02788066-0.22484707 0-0.0980332 0.02788066-0.13131123 0.02788066-0.22484796l-0.02788066-40.53911484c0-47.00932734-48.72086719-52.07289434-69.63348868-52.07289433h-70.15333623c-11.43574629 0-20.7471331-9.31228594-20.7471331-20.78041114 0-11.4735208 9.31408506-20.75252959 20.7471331-20.75252959h70.15333623c67.51002832 0 111.17002675 36.73199531 111.17002677 93.60673506v19.97995343h218.01938291c54.69011982 0 99.22342676 44.53420605 99.22342587 99.21803026V675.7738775299999c0 54.71800136-44.53420605 99.2189294-99.22342587 99.2189294H439.78930859z"  horiz-adv-x="1024" />

    
    <glyph glyph-name="wodekaoshi" unicode="&#4180;" d="M171.03271484-25.56646728999999c-14.84555054 0-26.92749023 11.9847107-26.92749023 26.70913697v74.10003662c0 147.9611206 89.70199585 279.19473266 228.52853393 334.32440185l16.77200318 6.66348267-14.23580933 11.10470581c-52.03564453 40.66479492-81.88000488 101.38760376-81.88000488 166.59530639C293.28994751 710.7965698200001 389.01931763 805.875 506.69854737 805.875c117.66934204 0 213.39459229-95.07843018 213.39459227-211.94439697 0-47.78805542-16.47125244-94.46044922-46.45568847-131.70574951h-78.43414307c44.2515564 29.2651062 71.03485107 78.17623901 71.03485107 131.70574951 0 87.41958618-71.57043458 158.53848266-159.5396118 158.53848267s-159.53549195-71.11889648-159.53549195-158.53848267c0-58.79223633 32.30969238-112.00698852 84.56616211-139.7477417v-81.44577026c-137.83859253-34.24850464-233.75088501-156.00723266-233.75088501-297.49520875v-47.39089966h230.64038086v-53.41827392H171.03271484v0.00082397zM571.90542602 164.83676147999995h139.21875v-41.76315308h-139.21875v41.76315308z m0 167.06414795h185.62417603v-41.76727295H571.90542602v41.76727294z m0-83.53372193h185.62417603v-41.76315308H571.90542602v41.76315308z m287.71957398 167.06414795H557.98519898c-27.84622193 0-51.04934693-23.203125-51.04934693-51.04934693v-287.71463013h-60.32730103v-46.40624999c0-27.84622193 23.203125-51.04934693 51.046875-51.04934692h287.71710205c27.84622193 0 51.04934693 23.203125 51.04934693 51.04934692v287.7154541h74.24835205v46.40625c-0.00082398 32.484375-23.203125 51.04852295-51.04522705 51.04852295z m-139.21875-394.45230103H502.296875c-9.28207398 0-13.92269898 4.63897705-13.92269898 9.28207398v13.92105102h232.03289796v-4.64309692l-0.00082398-18.56002808z m32.48107911 4.63897706v9.28207397l4.64309691 46.40625H548.703125V369.02508545c0 9.28207398 4.63897705 13.92105102 13.92105102 13.92105103h232.03042603v-343.40707398c0-9.27795411-4.63897705-13.92105102-13.92105103-13.92105102h-27.84622192z m120.65872191 334.125l-37.12417602-4.63897706v4.63897706c0 4.63897705 0 23.203125 9.2779541 23.203125h13.9251709c4.63897705 0 13.92105102-18.56414795 13.92105102-23.203125z"  horiz-adv-x="1024" />

    
    <glyph glyph-name="me-gerenxinxi" unicode="&#4098;" d="M789.333 541.867c0 157.867-130.133 288-288 288s-288-130.133-288-288c0-117.333 70.4-217.6 170.667-262.4-132.267-40.533-238.933-153.6-275.2-296.533-2.133-12.8 4.267-23.467 17.067-25.6h4.267c10.667 0 19.2 6.4 21.333 17.067 40.533 164.267 183.467 281.6 343.467 281.6h6.4c157.867-2.133 288 128 288 285.867zM256 541.867c0 134.4 110.933 245.333 245.333 245.333s245.333-110.933 245.333-245.333-110.933-245.333-245.333-245.333-245.333 110.933-245.333 245.333zM853.333 234.667h-234.667c-36.267 0-64-27.733-64-64v-170.667c0-36.267 27.733-64 64-64h234.667c36.267 0 64 27.733 64 64v170.667c0 34.133-29.867 64-64 64zM874.667 0c0-12.8-8.533-21.333-21.333-21.333h-234.667c-12.8 0-21.333 8.533-21.333 21.333v170.667c0 12.8 8.533 21.333 21.333 21.333h234.667c12.8 0 21.333-8.533 21.333-21.333v-170.667zM663.467 108.8h40.533c12.8 0 21.333 8.533 21.333 21.333s-8.533 21.333-21.333 21.333h-40.533c-12.8 0-21.333-8.533-21.333-21.333s8.533-21.333 21.333-21.333zM810.667 64h-147.2c-12.8 0-21.333-8.533-21.333-21.333s8.533-21.333 21.333-21.333h147.2c12.8 0 21.333 8.533 21.333 21.333s-10.667 21.333-21.333 21.333z"  horiz-adv-x="1024" />

    
    <glyph glyph-name="shitiku" unicode="&#4178;" d="M896.50176 669.44a25.6 25.6 0 0 0-25.6-25.6h-64a25.6 25.6 0 0 0-25.6 25.6v23.04a25.6 25.6 0 0 0 25.6 25.6h64a25.6 25.6 0 0 0 25.6-25.6v-23.04z m-305.9712-636.86144l-402.72384-4.41856c-19.7632 0-46.86336 20.49536-46.86336 40.25856v19.2512h444.8768v-19.2512c0-12.3904 1.6384-24.41728 4.7104-35.84zM848.13824 763.84256H298.60352c-48.06144 0-87.02464-38.9632-87.02464-87.02464v-538.38336H100.0192v-70.44608c0-48.06144 38.9632-87.02976 87.02464-87.02976H704.9216s5.39136 0.11776 9.54368 0.5376c43.56608 4.75136 77.47584 41.6512 77.47584 86.49216V606.37696h143.22176V676.81792c-0.00512 48.06144-38.9632 87.02464-87.02464 87.02464zM187.04896 32.12800000000004a35.8912 35.8912 0 0 0-35.85536 35.86048v19.2768h434.63168v-19.2768c0-12.40064 1.63328-24.4224 4.71552-35.86048H187.04896z m553.73312 35.86048c0-19.76832-16.09216-35.86048-35.86048-35.86048h-60.19072a86.64576 86.64576 0 0 0-7.73632 35.86048v70.44608H262.74816V676.81792c0 19.77344 16.08704 35.86048 35.85536 35.86048h442.17856v-644.68992z m143.2064 589.55264h-91.96032v19.2768a35.7376 35.7376 0 0 0 31.88224 35.63008l2.08896 0.22528h22.13888a35.8912 35.8912 0 0 0 35.85024-35.85536v-19.2768zM338.39104 222.72000000000003c-10.25024 0-18.59584 7.66976-18.59584 17.92 0 10.25536 8.34048 17.92 18.59584 17.92h168.05376c10.25024 0 18.59072-7.66976 18.59072-17.92s-8.34048-17.92-18.59072-17.92H338.39104z m0 168.96c-10.25024 0-18.59584 7.66976-18.59584 17.92s8.34048 17.92 18.59584 17.92h316.5184c10.25024 0 18.59072-7.66976 18.59072-17.92 0-10.25536-8.34048-17.92-18.59584-17.92H338.39104z m9.58976 163.84c-10.25024 0-18.59584 10.22976-18.59584 20.48s8.34048 20.48 18.59584 20.48h297.33376c10.25536 0 18.59584-10.22976 18.59584-20.48s-8.34048-20.48-18.59584-20.48H347.9808z"  horiz-adv-x="1024" />

    
    <glyph glyph-name="shehui-xueyuanlixiang" unicode="&#4117;" d="M618.667 640h-211.2c-12.8 0-21.333-8.533-21.333-21.333s8.533-21.333 21.333-21.333h211.2c12.8 0 21.333 8.533 21.333 21.333s-10.667 21.333-21.333 21.333zM618.667 512h-211.2c-12.8 0-21.333-8.533-21.333-21.333s8.533-21.333 21.333-21.333h211.2c12.8 0 21.333 8.533 21.333 21.333s-10.667 21.333-21.333 21.333zM258.133 256h512c12.8 0 21.333 8.533 21.333 21.333s-8.533 21.333-21.333 21.333h-42.667v469.333c0 12.8-8.533 21.333-21.333 21.333h-384c-12.8 0-21.333-8.533-21.333-21.333v-469.333h-42.667c-12.8 0-21.333-8.533-21.333-21.333s8.533-21.333 21.333-21.333zM343.467 746.667h341.333v-448h-341.333v448zM885.333 590.933c0 19.2 0 70.4-44.8 70.4h-27.733c-12.8 0-21.333-8.533-21.333-21.333s8.533-21.333 21.333-21.333h25.6c0-2.133 4.267-6.4 4.267-29.867l25.6-460.8h-712.533l27.733 462.933c0 19.2 8.533 27.733 10.667 27.733h21.333c12.8 0 21.333 8.533 21.333 21.333s-8.533 21.333-21.333 21.333h-21.333c-29.867 0-53.333-29.867-53.333-68.267l-32-541.867c0-40.533 27.733-72.533 59.733-72.533h695.467c32 0 51.2 27.733 51.2 74.667l-29.867 537.6zM864 21.333h-695.467c-6.4 0-17.067 12.8-17.067 29.867l2.133 34.133h718.933l2.133-34.133c0-19.2-6.4-29.867-10.667-29.867z"  horiz-adv-x="1024" />

    
    <glyph glyph-name="gangweihuchiguanli" unicode="&#4177;" d="M444.446092 749.933222c-90.785447 0-164.445236-73.659789-164.445237-164.445237 0-83.001057 61.49668-151.406383 141.383981-162.693748 7.687085 0.486524 38.33812 0.486524 46.025206 0 79.984606 11.287365 141.481286 79.692691 141.481286 162.693748 0 90.785447-73.659789 164.445236-164.445236 164.445237z m98.277922-341.345497c23.254648-7.39517 45.148245-17.320267 65.48618-29.580681l-26.370837-32.887831C541.264441 369.56847100000005 494.168882 383.093848 444.446092 383.093848c-142.55164 0-269.631805-109.566504-265.642305-252.992671 2.821841-102.75273 123.090665-113.846702 265.642305-113.846702 77.454679 0 148.973761 2.627232 198.307332 21.893597l54.39464-21.796292c-3.212277-2.529927-6.227512-4.962549-9.827792-7.492475-42.036922-29.191462-121.437699-30.552514-121.437698-30.552514H307.830049S239.619333-18.386060000000043 186.101652 24.42930100000001C156.520971 47.975864 140.854886 81.44752400000004 140.854886 131.07422599999995c0 134.086116 85.920203 239.757992 205.313283 277.610804-62.080509 34.54323-104.116215 100.710544-104.116214 176.802955 0 111.8033 90.590837 202.394137 202.394137 202.394137 111.802083 0 202.394137-90.590837 202.394137-202.394137 0-76.092411-42.036922-142.259725-104.116215-176.90026z m23.809286-73.661005h-45.409752v-45.408536c25.133849 0 45.409752 20.274687 45.409752 45.408536z m121.081319 0H657.349155c0-75.220316-61.006507-136.226823-136.226823-136.226823v-30.265465c92.022435 0.001216 166.492288 74.607295 166.492287 166.492288z m-60.529712 0h-30.265465c0-41.776631-33.897369-75.674-75.674-75.674001v-30.265464c58.55564-0.021894 105.939465 47.361931 105.939465 105.939465z m0-272.453646h30.265464c0 75.220316 61.006507 136.226823 136.226823 136.226823v30.265464c-91.883776 0-166.492288-74.608512-166.492287-166.492287z m121.083752 0h45.408535v45.408535c-25.132633 0-45.408536-20.274687-45.408535-45.408535z m-60.55404 0h30.265465c0 41.776631 33.897369 75.674 75.674 75.674v30.265464c-58.554424 0.02311-105.939465-47.361931-105.939465-105.939464z"  horiz-adv-x="1024" />

    
    <glyph glyph-name="gangweixinxiguanli" unicode="&#4168;" d="M574.084766 453.500006c-15.573645 0-28.420321-13.386718-28.420321-28.419105 0-15.033603 12.819917-28.414239 28.420321-28.414239h45.869518c15.62473 0 28.413023 13.380636 28.413023 28.414239 0 15.032387-12.789509 28.419105-28.413023 28.419105h-45.869518m0 0zM494.939415 683.941056c4.158567 0 8.292808 1.712566 11.233848 4.65239s4.651173 7.071632 4.651172 11.228982c0 4.165865-1.710133 8.296457-4.651172 11.237497s-7.075281 4.651173-11.233848 4.651173c-4.157351 0-8.291592-1.710133-11.232631-4.651173a16.07963 16.07963 0 0 1-4.65239-11.237497c0-4.157351 1.712566-8.289159 4.65239-11.228982 2.94104-2.939823 7.075281-4.652389 11.232631-4.65239m0 0zM256.482875 235.872791c0-35.181793 28.448296-66.550452 63.543732-66.550452h95.372155c35.091786 0 63.655632 31.368659 63.655632 66.550452 0 23.815368-13.274817 45.724776-32.68349 56.666709 10.572175 20.463215 16.740087 45.892627 16.740087 72.668496 0 70.244388-42.683999 127.565473-95.397698 127.565473-52.688156 0-95.372156-56.779826-95.42689-127.02908 0-26.740596 6.277381-52.829248 16.82158-73.291247-19.46584-10.940717-32.625108-32.764984-32.625108-56.580351m111.230418 218.164824c32.283324 0 58.513069-39.33063 58.513069-87.694801 0-48.424987-26.172578-87.69845-58.513069-87.69845-32.314949 0-58.457119 39.272247-58.457119 87.69845 0 48.394579 26.142171 87.694801 58.457119 87.694801m-53.594308-192.95678c14.605462-15.996921 33.306242-25.602129 53.594308-25.602129 20.399967 0 39.104396 9.603991 53.652691 25.602129 9.859416-4.376287 16.768062-19.012156 16.768062-30.377365 0-15.600404-12.65085-32.966891-28.192871-32.966892h-84.403463c-15.60162 0-28.132055 17.366487-28.132056 32.966892 0 11.365209 6.880671 26.001079 16.713329 30.377365m0 0zM399.568476 538.756104H590.366304c8.784197 0 16.001786 5.422314 16.001787 14.235703-0.030408 8.779332-7.192046 14.17732-15.942187 14.17732h-8.607833V699.854052c0 43.882065-41.353355 79.513894-85.231771 79.513894-44.017076 0-85.277991-35.631828-85.277991-79.513894V567.169127h-11.738617c-8.806091 0-15.885021-5.424747-15.885021-14.208945-0.001216-8.836499 7.077713-14.204079 15.883805-14.204078m96.961874 200.090444c38.623953 0 28.444647-22.342415 28.444647-49.876046V595.5906640000001h-56.834561v93.379838c0 27.53363-10.259583 49.876046 28.389914 49.876046m0 0zM790.982195 598.962278c3.617309 0.681134 7.040008 1.330644 9.901987 1.330644 6.710387 0 9.838739-3.726777 9.838739-11.72767v-176.647267c15.355925-3.27066 22.31444-7.308812 30.32628-11.952688 5.823697-3.391075 12.37718-7.188398 23.383578-11.248443v221.02802c0 28.050562-21.407072 41.108876-67.37876 41.108876H611.794054v-53.687963h164.51335c5.160807 0 10.217012 0.945074 14.674791 1.796491m0 0zM517.118845 82.49963300000002H212.522966c-18.393054 0-30.124373 28.062726-30.124372 47.374094V588.565252c0 5.461236 0.902503 11.738617 7.969269 11.738617 2.240445 0 4.861595-0.563152 7.908453-1.21996 4.150053-0.90007 8.848662-1.918122 14.24665-1.918122h168.79963v53.687963H192.771293C161.08761 650.85375 128.691169 646.0724319999999 128.691169 610.592643v-499.131431c0-36.091594 31.074311-82.661706 64.080124-82.661706h350.698928c-4.590357 11.210738-8.899747 17.822604-12.733559 23.703467-5.18635 7.94251-9.678186 14.842642-13.617817 29.99666m0 0zM878.010457 232.45982300000003h-16.574668a20.183463 20.183463 0 0 0-17.90653 13.13859l-9.467764 23.091663a19.884251 19.884251 0 0 0 3.274309 21.894813l11.776322 11.709425c5.312846 5.42353 5.312846 14.104341 0 19.526655l-19.59112 19.459759c-5.395555 5.387041-14.1311 5.387041-19.526655 0l-11.709425-11.709425a19.782081 19.782081 0 0 0-21.893597-3.208629l-23.095312 9.470197a19.846545 19.846545 0 0 0-13.168998 17.87004V370.249605c-0.018245 7.598294-6.183725 13.751611-13.786884 13.751611H698.739607c-7.601943 0-13.766207-6.153317-13.784451-13.751611v-16.545477a19.8879 19.8879 0 0 0-13.201839-17.87004l-22.996791-9.537094a19.981556 19.981556 0 0 0-21.927653 3.274309l-11.739833 11.743482c-5.395555 5.383392-14.1311 5.383392-19.527872 0l-19.526655-19.493816a13.758909 13.758909 0 0 1 0-19.462191l11.743482-11.708208c5.317711-5.417449 6.813774-15.213617 3.242685-21.925221l-9.503038-23.126936a20.014396 20.014396 0 0 0-17.873689-13.13859h-16.571019a13.782019 13.782019 0 0 1-13.786885-13.784452v-27.538496c0-7.525316 6.195888-13.786884 13.751612-13.786884H563.643953a19.91101 19.91101 0 0 0 17.777601-13.199406l9.567502-23.030847a19.908577 19.908577 0 0 0-3.246334-21.925221l-11.833489-11.708209c-5.317711-5.425963-5.317711-14.105558 0-19.529088l19.587471-19.459758c2.578579-2.584661 6.081555-4.034503 9.730487-4.034504 3.652582 0 7.151908 1.449843 9.730488 4.034504l11.744698 11.709425a19.810056 19.810056 0 0 0 21.858323 3.274309l23.094096-9.567502a19.789379 19.789379 0 0 0 13.201838-17.838416V39.59548199999995c0-7.525316 6.194672-13.751611 13.81486-13.751612h27.606609c7.459635 0 13.751611 6.195888 13.751611 13.751612v16.479796c0 7.555723 5.903973 15.566347 13.168998 17.838416l23.126936 9.567502a19.879386 19.879386 0 0 0 21.89238-3.274309l11.708209-11.709425c5.396772-5.387041 14.132317-5.387041 19.527872 0l19.462191 19.459758c5.385825 5.397988 5.385825 14.133533 0 19.529088l-11.709425 11.708209a19.857492 19.857492 0 0 0-3.243901 21.894813l9.503037 23.061255a19.852627 19.852627 0 0 0 17.873689 13.102101h16.540612c7.622621 0.070546 13.76864 6.261569 13.786884 13.882973v27.538496a13.655523 13.655523 0 0 1-13.656739 13.785668zM781.449966 204.95416699999998c0-38.11067-30.782397-68.923475-68.897932-68.923474-38.026745 0-68.855361 30.831049-68.855361 68.85901 0 38.030394 30.829833 68.861443 68.855361 68.861443a68.759273 68.759273 0 0 0 68.897932-68.796979z"  horiz-adv-x="1024" />

    
    <glyph glyph-name="kunnan" unicode="&#4166;" d="M874.88 624.96c-1.92 0.96-3.84 1.44-5.76 1.92-132.48 25.92-240.48 89.28-347.04 170.4-6.72 5.28-20.16 5.28-26.88 0-48.48-37.44-98.88-73.92-152.16-104.16-58.56-33.12-130.08-48.48-194.88-65.76-17.28-4.32-21.6-20.64-17.28-34.08 5.28-122.88 25.44-251.52 76.8-363.36 54.24-118.08 181.44-206.4 295.2-260.16 3.84-1.92 7.68-2.88 11.52-2.88 4.8-0.48 10.08 0 15.36 2.88 113.76 56.16 230.88 144 288.48 260.16 54.72 110.4 72 247.2 76.8 370.08 0 14.4-9.12 23.04-20.16 24.96z m-102.72-368.16c-47.52-104.16-155.52-182.88-256.32-234.72-100.8 49.92-203.52 123.84-257.28 223.68-52.8 97.92-69.12 224.16-74.4 336 57.12 15.36 114.24 31.68 168.48 55.68 55.68 24.96 107.52 63.84 156.48 101.76 102.24-73.92 206.88-133.92 331.68-161.28-5.76-108.48-24-222.72-68.64-321.12zM456.32 538.0799999999999c6.72-0.96 11.04 3.36 13.44 13.44l11.52 37.92h58.08l-6.72-21.6h39.84v21.6h59.52v-21.6h49.44v-51.36H632v-51.36h51.36v-52.8H632v-49.44h49.44v-51.36H632v-51.36h49.44v-49.44h-215.04v273.12h-24.96l-28.32-129.12 26.4-89.28c0.96-6.72 3.84-9.6 8.16-8.16h4.8v-46.56h-33.12c-12-0.96-19.68 4.8-23.04 18.24l-10.08 29.76-8.16-31.68c-2.4-12-9.6-17.76-21.6-16.32h-44.64v44.64h13.44c5.28-0.96 8.64 2.4 10.08 10.08l21.6 89.28-46.56 157.44h52.8l18.24-59.52 13.44 84.48H310.4v49.44h142.56v-48h3.36z m66.24-72.96h51.36v51.36h-51.36v-51.36z m51.36-51.36h-51.36v-51.36h51.36v51.36z m0-154.08v51.36h-51.36v-51.36h51.36z"  horiz-adv-x="1024" />

    
    <glyph glyph-name="shehui-xuexiaotuanyuanpeixun" unicode="&#4115;" d="M341.333 426.667h-0.064c-117.867 0-213.269-95.467-213.269-213.333 0-117.845 95.424-213.333 213.141-213.333h11.2c4.586 66.471 49.11 121.446 109.561 141.384-34.335 18.097-56.548 53.086-56.548 93.263 0 58.91 47.756 106.667 106.667 106.667 58.91 0 106.667-47.756 106.667-106.667 0-40.177-22.213-75.166-55.027-93.356 60.629-21.385 104.474-76.884 108.091-143.094l10.915 1.802c117.824 0 213.333 95.509 213.333 213.333 0 0.094 0 0.205 0 0.316 0 33.186-7.611 64.594-21.183 92.575-0.755 1.42-1.52 4.575-1.52 7.909 0 11.784 9.553 21.337 21.337 21.337 8.45 0 15.753-4.912 19.208-12.036 15.686-32.207 24.824-69.921 24.824-109.769 0-0.117-0-0.233-0-0.349 0-141.358-114.624-255.982-256-255.982-11.782 0-21.333 9.551-21.333 21.333 0 11.782 9.551 21.333 21.333 21.333h0.192v-42.667h-341.739c-141.269 0-255.787 114.603-255.787 256 0 141.44 114.496 256 255.936 256h11.093c4.579 66.461 49.084 121.432 109.517 141.384-34.334 18.097-56.546 53.086-56.546 93.263 0 58.91 47.756 106.667 106.667 106.667 58.91 0 106.667-47.756 106.667-106.667 0-40.177-22.213-75.166-55.027-93.356 60.648-21.371 104.51-76.875 108.134-143.094l10.957 1.803v-42.667h-0.064c-11.782 0-21.333 9.551-21.333 21.333s9.551 21.333 21.333 21.333c32.085-0 63.36-5.909 92.672-17.28 8.037-3.182 13.617-10.886 13.617-19.893 0-11.786-9.554-21.34-21.34-21.34-2.778 0-5.433 0.531-7.867 1.497-22.672 9.064-49.115 14.35-76.794 14.35-0.101 0-0.203-0-0.304-0l-341.318 0c-117.824 0-213.333-95.509-213.333-213.333s95.509-213.333 213.333-213.333v-42.667c-141.376 0-256 114.624-256 256s114.624 256 256 256v-42.667zM628.864 0c-5.555 60.131-55.754 106.849-116.864 106.849s-111.309-46.718-116.829-106.387l233.693-0.462zM628.864 469.333c-5.555 60.131-55.754 106.849-116.864 106.849s-111.309-46.718-116.829-106.387l233.693-0.462zM512 640c35.346 0 64 28.654 64 64s-28.654 64-64 64c-35.346 0-64-28.654-64-64 0-35.346 28.654-64 64-64zM512 170.667c35.346 0 64 28.654 64 64s-28.654 64-64 64c-35.346 0-64-28.654-64-64 0-35.346 28.654-64 64-64z"  horiz-adv-x="1024" />

    
    <glyph glyph-name="basic-xueshenggongzuoganbujibenxinxi" unicode="&#4137;" d="M256 768h-128.213c-23.381 0-42.453-19.093-42.453-42.667v-682.667c0-23.68 19.157-42.667 42.773-42.667h767.787c0.013-0 0.028-0 0.043-0 23.577 0 42.694 19.095 42.731 42.663l0 682.67c0 23.68-19.029 42.667-42.517 42.667h-128.149v-42.667h128.149c-0.064 0-0.149-682.667-0.149-682.667 0 0.043-767.893 0-767.893 0-0.149 0-0.107 682.667-0.107 682.667h128v42.667zM298.667 789.397c0 11.733 9.472 21.269 21.333 21.269 11.776 0 21.333-9.664 21.333-21.269v-128.128c0-11.733-9.472-21.269-21.333-21.269-11.776 0-21.333 9.664-21.333 21.269v128.128zM384 768h256v-42.667h-256v42.667zM682.667 789.397c0 11.733 9.472 21.269 21.333 21.269 11.776 0 21.333-9.664 21.333-21.269v-128.128c0-11.733-9.472-21.269-21.333-21.269-11.776 0-21.333 9.664-21.333 21.269v128.128zM362.667 298.667c-61.653 0-111.147 60.309-111.147 134.101-0 73.792 49.493 121.899 111.147 121.899s111.147-48.107 111.147-121.899c0-73.813-49.493-134.101-111.147-134.101zM362.667 512c-39.552 0-68.48-30.613-68.48-79.232 0-52.053 32.512-91.435 68.48-91.435s68.48 39.381 68.48 91.435c-0 48.619-28.907 79.232-68.48 79.232zM548.8 169.6c4.608-22.976-10.944-41.6-34.389-41.6h-303.403c-23.595 0-40.491 18.923-34.389 41.6 0 0-7.616 107.733 186.091 107.733s186.091-107.733 186.091-107.733zM229.867 196.267c-8.341-10.112-10.816-19.627-10.624-24.683 0 0.384 0 0.384-0.064 1.024l0.512-7.168-1.877-6.933c1.579 5.867-3.755 12.16-6.805 12.16h303.403c-3.307 0-8.149-5.845-7.445-9.451l-1.131 5.653 0.427 5.739c-0.064-0.64-0.064-0.64-0.064-1.024 0.171 5.056-2.283 14.571-10.667 24.661-18.88 22.848-59.797 38.421-132.8 38.421s-113.92-15.573-132.821-38.4zM597.333 469.333h234.667v-42.667h-234.667v42.667zM597.333 341.333h170.667v-42.667h-170.667v42.667z"  horiz-adv-x="1024" />

    
    <glyph glyph-name="student-huodongliebiao" unicode="&#4114;" d="M149.461 320h213.077c11.861 0 21.461-9.6 21.461-21.461v-213.077c-0-11.861-9.6-21.461-21.461-21.461h-213.077c-11.861 0-21.461 9.6-21.461 21.461v213.077c0 11.861 9.6 21.461 21.461 21.461zM85.333 85.461c-0-0.006-0-0.014-0-0.021 0-35.405 28.702-64.107 64.107-64.107 0.008 0 0.015 0 0.023 0l213.076-0c0.006-0 0.014-0 0.021-0 35.405 0 64.107 28.702 64.107 64.107 0 0.008-0 0.015-0 0.023l0 213.076c0 0.006 0 0.014 0 0.021 0 35.405-28.702 64.107-64.107 64.107-0.008 0-0.015-0-0.023-0l-213.076 0c-0.006 0-0.014 0-0.021 0-35.405 0-64.107-28.702-64.107-64.107 0-0.008 0-0.015 0-0.023l-0-213.076zM85.333 469.461c-0-0.006-0-0.014-0-0.021 0-35.405 28.702-64.107 64.107-64.107 0.008 0 0.015 0 0.023 0l213.076-0c0.006-0 0.014-0 0.021-0 35.405 0 64.107 28.702 64.107 64.107 0 0.008-0 0.015-0 0.023l0 213.076c0 0.006 0 0.014 0 0.021 0 35.405-28.702 64.107-64.107 64.107-0.008 0-0.015-0-0.023-0l-213.076 0c-0.006 0-0.014 0-0.021 0-35.405 0-64.107-28.702-64.107-64.107 0-0.008 0-0.015 0-0.023l-0-213.076zM149.461 704h213.077c11.861 0 21.461-9.6 21.461-21.461v-213.077c0-11.861-9.6-21.461-21.461-21.461h-213.077c-11.861 0-21.461 9.6-21.461 21.461v213.077c0 11.861 9.6 21.461 21.461 21.461zM917.504 640c11.782 0 21.333 9.551 21.333 21.333s-9.551 21.333-21.333 21.333h-426.667c-11.782 0-21.333-9.551-21.333-21.333s9.551-21.333 21.333-21.333h426.667zM917.504 256c11.782 0 21.333 9.551 21.333 21.333s-9.551 21.333-21.333 21.333h-426.667c-11.782 0-21.333-9.551-21.333-21.333s9.551-21.333 21.333-21.333h426.667zM917.504 469.333c11.782 0 21.333 9.551 21.333 21.333s-9.551 21.333-21.333 21.333h-426.667c-11.782 0-21.333-9.551-21.333-21.333s9.551-21.333 21.333-21.333h426.667zM917.504 85.333c11.782 0 21.333 9.551 21.333 21.333s-9.551 21.333-21.333 21.333h-426.667c-11.782 0-21.333-9.551-21.333-21.333s9.551-21.333 21.333-21.333h426.667z"  horiz-adv-x="1024" />

    
    <glyph glyph-name="xinli-xinlizixunyuyue" unicode="&#4134;" d="M725.333-21.333c106.039 0 192 85.961 192 192s-85.961 192-192 192c-106.039 0-192-85.961-192-192 0-106.039 85.961-192 192-192zM725.333-64c-129.6 0-234.667 105.067-234.667 234.667s105.067 234.667 234.667 234.667 234.667-105.067 234.667-234.667-105.067-234.667-234.667-234.667zM170.667 768h682.667v-320h42.667v341.483c0 11.52-9.557 21.184-21.333 21.184h-725.333c-11.627 0-21.333-9.557-21.333-21.376v-810.581c0-11.776 9.557-21.376 21.333-21.376h298.667v42.667h-277.333v768zM298.667 554.667h384v-42.667h-384v42.667zM298.667 426.667h213.333v-42.667h-213.333v42.667zM298.667 298.667h128v-42.667h-128v42.667zM746.667 298.667c0 11.782-9.551 21.333-21.333 21.333s-21.333-9.551-21.333-21.333v-128c0.006-7.728 4.121-14.494 10.278-18.232l106.756-64.050c2.969-1.666 6.516-2.647 10.292-2.647 11.782 0 21.333 9.551 21.333 21.333 0 7.454-3.823 14.015-9.614 17.829l-96.379 57.863v115.904z"  horiz-adv-x="1024" />

    
    <glyph glyph-name="student-xiaoyuanwangluowenhua" unicode="&#4104;" d="M512.8 753.6l255.2-183.2v-506.4h-512v506.4l256.8 183.2M512.8 824.8c-6.4 0-12.8-1.6-18.4-5.6l-390.4-278.4c-12.8-8.8-6.4-28.8 9.6-28.8h78.4v-496c0-8.8 7.2-16 16-16h608c8.8 0 16 7.2 16 16v496h78.4c15.2 0 21.6 20 9.6 28.8l-388.8 277.6c-5.6 4-12 6.4-18.4 6.4zM704 256h-128v-128h128v128zM448 256h-128v-128h128v128zM576 448h-128v-128h128v128z"  horiz-adv-x="1024" />

    
    <glyph glyph-name="student-xueshengcaojiakechuangjiling" unicode="&#4103;" d="M926.4 336l-774.4 412.8c-11.2 5.6-24.8-3.2-23.2-15.2l60-714.4c0.8-11.2 12-17.6 22.4-13.6l249.6 104.8 136.8-155.2c8.8-9.6 24-5.6 27.2 6.4l64.8 246.4 235.2 99.2c12 4.8 12.8 22.4 1.6 28.8zM237.6 69.6l-56 544 256-456-200-88zM157.6 725.6l488-504-48-192M685.6 261.6l-400 384 560-320-160-64z"  horiz-adv-x="1024" />

    
    <glyph glyph-name="shehui-xueyuanpeixun" unicode="&#4121;" d="M832 0v683.2c0 8.8-7.2 16-16 16h-176v116.8c0 8.8-7.2 16-16 16h-416c-8.8 0-16-7.2-16-16v-816h-64v-64h768v64h-64zM768 635.2v-603.2h-128v96h64v64h-64v64h64v64h-64v64h64v64h-64v64h64v64h-64v59.2h128zM256 768h320v-736h-320v736zM320 704h64v-64h-64v64zM448 704h64v-64h-64v64zM320 576h64v-64h-64v64zM448 576h64v-64h-64v64zM320 448h64v-64h-64v64zM448 448h64v-64h-64v64zM320 320h64v-64h-64v64zM448 320h64v-64h-64v64zM320 192h64v-64h-64v64zM448 192h64v-64h-64v64z"  horiz-adv-x="1024" />

    
    <glyph glyph-name="student-guangaotaijiaoliu" unicode="&#4102;" d="M768.8 704c35.2 0 64-28.8 64-64s-28.8-64-64-64-64 28.8-64 64 28.8 64 64 64M255.2 704c35.2 0 64-28.8 64-64s-28.8-64-64-64-64 28.8-64 64 28.8 64 64 64M768 384c35.2 0 64-28.8 64-64v-256h-128v256c0 35.2 28.8 64 64 64M256 384c35.2 0 64-28.8 64-64v-256h-128v256c0 35.2 28.8 64 64 64M768.8 768c-70.4 0-128-57.6-128-128s57.6-128 128-128 128 57.6 128 128-57.6 128-128 128zM255.2 768c-70.4 0-128-57.6-128-128s57.6-128 128-128 128 57.6 128 128-56.8 128-128 128zM768 448c-70.4 0-128-57.6-128-128v-51.2l-128.8-74.4-127.2 73.6v48.8c0 62.4-43.2 117.6-104 128.8-80.8 15.2-152-47.2-152-125.6v-288c0-17.6 14.4-32 32-32h192c17.6 0 32 14.4 32 32v162.4l110.4-64c0.8 0 0.8-0.8 1.6-0.8 4.8-3.2 10.4-4 16-4s10.4 1.6 16 4l112 65.6v-163.2c0-17.6 14.4-32 32-32h192c17.6 0 32 14.4 32 32v288c0 70.4-57.6 128-128 128z"  horiz-adv-x="1024" />

    
    <glyph glyph-name="student-zhiyuanfuwujingli" unicode="&#4113;" d="M384 0h-64v70.4c0 15.2-10.4 28-24.8 31.2-136 26.4-231.2 149.6-231.2 298.4v32h64v-32c0-118.4 73.6-215.2 179.2-236 44.8-8.8 76.8-48 76.8-94.4v-69.6zM704 0h-64v70.4c0 45.6 32 85.6 76.8 94.4 105.6 20 179.2 116.8 179.2 235.2v32h64v-32c0-148.8-95.2-272-231.2-298.4-14.4-3.2-24.8-16-24.8-31.2v-70.4zM512.8 256l-41.6 37.6c-147.2 133.6-244 208-244 316.8 0 88 68.8 156.8 156.8 156.8 49.6 0 97.6-23.2 128.8-60 31.2 36.8 79.2 60 128.8 60 88 0 156.8-68.8 156.8-156.8 0-108-96.8-183.2-244-316.8l-41.6-37.6z"  horiz-adv-x="1024" />

    
    <glyph glyph-name="Raidobox-xuanzhong" unicode="&#8245;" d="M512 804C280.25 804 92 615.75 92 384s188.25-420 420-420 420 188.25 420 420S743.75 804 512 804z m0-600c-99.75 0-180 80.25-180 180s80.25 180 180 180 180-80.25 180-180-80.25-180-180-180zM512 804C280.25 804 92 615.75 92 384s188.25-420 420-420 420 188.25 420 420S743.75 804 512 804z m0-600c-99.75 0-180 80.25-180 180s80.25 180 180 180 180-80.25 180-180-80.25-180-180-180z"  horiz-adv-x="1024" />

    
    <glyph glyph-name="xinli-xinlizixunguanli" unicode="&#4133;" d="M511.2 768.8c176.8 0 320-143.2 320-320 0-149.6-106.4-281.6-252-312.8l-28-5.6-14.4-24.8-24.8-42.4-24 42.4-14.4 24.8-28 5.6c-147.2 30.4-254.4 162.4-254.4 313.6 0 176 143.2 319.2 320 319.2M511.2 832.8c-212 0-384-172-384-384 0-184.8 131.2-340 305.6-376l80-138.4 80 138.4c172.8 37.6 302.4 191.2 302.4 375.2 0 212.8-172 384.8-384 384.8zM320 512c-35.2 0-64-28.8-64-64s28.8-64 64-64 64 28.8 64 64-28.8 64-64 64zM512 512c-35.2 0-64-28.8-64-64s28.8-64 64-64 64 28.8 64 64-28.8 64-64 64zM704 512c-35.2 0-64-28.8-64-64s28.8-64 64-64 64 28.8 64 64-28.8 64-64 64z"  horiz-adv-x="1024" />

    
    <glyph glyph-name="jiangli" unicode="&#4165;" d="M512 797.4375C344.88265625 797.4375 209.40171875 661.96078125 209.40171875 494.8434375S344.88265625 192.249375 512 192.249375c167.113125 0 302.59828125 135.47671875 302.59828125 302.5940625S679.113125 797.4375 512 797.4375m0-564.84421875c-144.83390625 0-262.2459375 117.41203125-262.2459375 262.25015625 0 144.838125 117.41203125 262.25015625 262.2459375 262.25015625s262.25015625-117.41203125 262.25015625-262.25015625c0-144.838125-117.41625-262.25015625-262.25015625-262.25015625m0 0zM512 716.74546875c-122.5546875 0-221.90203125-99.34734375-221.90203125-221.90203125 0-122.5546875 99.34734375-221.90203125 221.90203125-221.90203125 122.5546875 0 221.90203125 99.34734375 221.90203125 221.90203125 0 122.5546875-99.34734375 221.90203125-221.90203125 221.90203125m0-403.46015625c-100.27546875 0-181.55390625 81.28265625-181.55390625 181.558125S411.72453125 676.4015625 512 676.4015625c100.2796875 0 181.558125-81.28265625 181.558125-181.558125S612.2796875 313.28531250000003 512 313.28531250000003m0 0zM700.2321875 293.094375l76.97953125-149.17921875c-31.26515625 12.21328125-67.3734375 11.5509375-99.545625-5.045625-32.1721875-16.605-53.63296875-45.65109375-61.79625-78.2071875l-76.9753125 149.17078125-26.89453125-13.8796875 113.6109375-220.15125 2.7-5.2396875 26.8903125 13.8796875-2.70421875 5.23546875c-22.98796875 44.5584375-5.518125 99.31359375 39.03609375 122.3015625 44.56265625 22.98375 99.309375 5.50546875 122.30578125-39.04875l2.7-5.23125 26.89453125 13.87125-2.71265625 5.2396875-113.6025 220.15125-26.88609375-13.86703125m0 0zM311.103125 268.56234374999997l-64.31484375-124.6471875c31.2609375 12.21328125 67.36921875 11.5509375 99.545625-5.04140625 32.16796875-16.60921875 53.62875-45.6553125 61.79625-78.21140625l68.93015625 133.5825 33.02859375-1.98703125-111.69984375-216.455625-2.7-5.2396875-26.8903125 13.8796875 2.7 5.2396875c22.9921875 44.55421875 5.518125 99.309375-39.031875 122.29734375-44.56265625 22.98796875-99.31359375 5.5096875-122.31-39.04453125l-2.7-5.23125-26.89453125 13.86703125 2.7084375 5.2396875 105.27046875 203.9934375 22.561875-22.24125m0 0z"  horiz-adv-x="1024" />

    
    <glyph glyph-name="xinli-richangzhongguangguanli" unicode="&#4132;" d="M938.667 448v255.957c0 0.013 0 0.028 0 0.043 0 23.549-19.078 42.642-42.622 42.667l-128.045 0v-42.667l128-0.043v-213.291h-768v213.291l128 0.043v42.667h-128.043c-0.019 0-0.042 0-0.064 0-23.505 0-42.56-19.055-42.56-42.56 0-0.053 0-0.105 0-0.158l-0-703.907c-0-0.013-0-0.028-0-0.043 0-23.542 19.066-42.63 42.599-42.667l362.734-0v42.688l-362.667 0.021v447.957h810.667zM298.667 810.667h42.667v-170.667h-42.667v170.667zM682.667 810.667h42.667v-170.667h-42.667v170.667zM384 746.667h256v-42.667h-256v42.667zM746.667-21.333c0.004-0 0.008-0 0.013-0 94.257 0 170.667 76.41 170.667 170.667 0 94.257-76.41 170.667-170.667 170.667-0.005 0-0.009-0-0.014-0-94.25-0.007-170.653-76.415-170.653-170.667 0-94.252 76.403-170.659 170.653-170.667zM746.667-64c-117.824 0-213.333 95.509-213.333 213.333s95.509 213.333 213.333 213.333 213.333-95.509 213.333-213.333-95.509-213.333-213.333-213.333zM768 136.768v119.296c0 11.605-9.557 21.269-21.333 21.269-11.861 0-21.333-9.515-21.333-21.269v-128.128c-0-0.041-0-0.089-0-0.137 0-5.774 2.331-11.003 6.103-14.798l60.628-60.628c3.829-3.806 9.107-6.159 14.934-6.159 5.901 0 11.239 2.413 15.080 6.306 3.862 3.863 6.249 9.195 6.249 15.086 0 5.816-2.327 11.088-6.101 14.936l-54.226 54.226z"  horiz-adv-x="1024" />

    
    <glyph glyph-name="fudaozhongxin" unicode="&#8246;" d="M685.225 271.40599999999995H335.524l3.35872 7.2704c30.8531 66.7597 98.1709 109.896 171.489 109.896s140.636-43.136 171.489-109.896l3.36384-7.2704Zm-333.486 10.24h317.271c-30.592 58.9926-91.991 96.6861-158.633 96.6861s-128.046-37.6934-158.638-96.6861ZM962.401 654.761c0 1.6896-0.06656 3.36896-0.128 5.0432-2.70336 66.3654-57.2826 118.354-124.247 118.354H185.974c-62.6125 0-115.656-46.464-123.382-108.073a121.242 121.242 0 0 1-0.99328-15.3242v-541.532c0-2.89792 0.13824-5.77536 0.33792-8.63232 4.5056-64.3482 58.9875-114.76 124.037-114.76h652.052c68.5824 0 124.375 55.3523 124.375 123.392V654.761Zm-40.96-541.532c0-45.5731-37.4221-82.6573-83.415-82.6573H185.974c-45.993 0-83.415 37.079-83.415 82.6573V654.761c0 45.5834 37.4221 82.6675 83.415 82.6675h652.052c45.993 0 83.415-37.0842 83.415-82.6675v-541.532ZM788.321 271.40599999999995h-74.9722l-1.19296 3.44064c-19.6301 56.5453-62.4589 102.6-117.504 126.362l-7.90528 3.40992 6.77376 5.31968c32.9421 25.8509 51.8298 64.553 51.8298 106.199 0 74.4243-60.5491 134.973-134.973 134.973S375.398 590.5609999999999 375.398 516.137c0-41.6461 18.8877-80.3482 51.8298-106.199l6.77376-5.31968-7.90528-3.40992c-55.0554-23.7619-97.879-69.8163-117.504-126.362l-1.18784-3.44064H226.401c-11.2947 0-20.48-9.18528-20.48-20.48s9.18528-20.48 20.48-20.48h12.9075v-82.6829c0-11.2947 9.18528-20.48 20.48-20.48s20.48 9.18528 20.48 20.48v82.6829h454.19v-82.6829c0-11.2947 9.18528-20.48 20.48-20.48s20.48 9.18528 20.48 20.48v82.6829h12.9075c11.2947 0 20.48 9.18528 20.48 20.48s-9.1904 20.48-20.4851 20.48ZM412.815 516.137c0 53.7958 43.7658 97.5616 97.5616 97.5616s97.5616-43.7658 97.5616-97.5616c0-53.7498-43.7299-97.5155-97.4848-97.5514-53.9085 0.03584-97.6384 43.8016-97.6384 97.5514Zm-65.751-244.731l3.36384 7.2704c28.7488 62.1926 91.4688 102.426 159.78 102.492 68.6387-0.06656 131.359-40.2944 160.108-102.492l3.36384-7.2704H347.064Z"  horiz-adv-x="1024" />

    
    <glyph glyph-name="basic-xueshengjibenxinxi" unicode="&#4135;" d="M771.2 512c0 160-128 288-288 288s-288-128-288-288c0-108.8 57.6-201.6 147.2-249.6-121.6-48-214.4-153.6-240-288-3.2-16 6.4-35.2 25.6-38.4h6.4c16 0 28.8 9.6 32 25.6 28.8 150.4 160 259.2 313.6 262.4h6.4c153.6 0 284.8 131.2 284.8 288zM259.2 512c0 124.8 99.2 224 224 224s224-99.2 224-224c0-121.6-99.2-220.8-220.8-224h-9.6c-121.6 6.4-217.6 105.6-217.6 224zM704 224c0-19.2 12.8-32 32-32h160c19.2 0 32 12.8 32 32s-12.8 32-32 32h-160c-16 0-32-12.8-32-32zM896 131.2h-256c-19.2 0-32-12.8-32-32s12.8-32 32-32h256c19.2 0 32 12.8 32 32s-12.8 32-32 32zM896 3.2h-252.8c-19.2 0-32-12.8-32-32s12.8-32 32-32h252.8c19.2 0 32 12.8 32 32s-16 32-32 32z"  horiz-adv-x="1024" />

    
    <glyph glyph-name="duigou-weigouxuan" unicode="&#8242;" d="M512 704c176.768 0 320-143.274667 320-320 0-176.768-143.274667-320-320-320-176.768 0-320 143.274667-320 320 0 176.768 143.274667 320 320 320z m0-41.28c-153.962667 0-278.72-124.757333-278.72-278.72S358.037333 105.27999999999997 512 105.27999999999997 790.72 230.037333 790.72 384 665.962667 662.72 512 662.72z"  horiz-adv-x="1024" />

    
    <glyph glyph-name="jihua" unicode="&#4162;" d="M460.08240031 802.50377437c77.61425719 12.78141375 159.0371325 3.55918687 231.10635-28.33822687 91.55648438-39.844665 167.39018906-114.43793063 208.472415-205.49459437 44.02167375-95.6970375 48.15838875-208.76789531 11.99954438-307.64421751-32.02308844-88.37144437-95.56752563-164.74142531-176.61529407-212.31844781-79.06383469-47.33238844-174.50952281-65.45162344-265.56906468-52.29798187-86.38463156 12.16359281-168.09435188 53.57871375-229.61456156 115.30518281-58.04544562 57.79505531-98.2191675 133.42537781-112.94614219 214.05583031-17.37573937 94.66093969-0.86821125 195.52791188 48.11809594 278.64212063C234.52492812 708.29948531 341.88573781 783.22372594 460.08240031 802.50377437z m20.48019469-49.52258343C386.23454938 740.57200406 297.98686062 688.43903062 241.84668406 611.5692281199999c-44.18572219-59.52955875-69.13264781-133.17306844-69.62959125-207.35285437-1.94460188-79.06479375 24.90663375-158.16796219 73.23003-220.63792781 46.747185-60.98201438 113.39991469-106.49259844 187.53748969-126.8471175 79.35451781-21.76092562 166.44235219-15.72086156 241.32342281 18.6171375 79.39481063 35.57651906 144.6795075 101.40228937 179.76292032 181.04365218 34.00606406 75.62840438 39.136665 163.4184825 15.88778812 242.854545-24.03938156 83.98433906-80.42611125 158.208255-154.98004312 203.75721188-69.2141925 43.19471438-153.65422219 61.06931531-234.41610563 49.97731594zM810.33996594 532.01228812c15.96933281 3.14762625 31.94154375-12.16455281 29.54125031-28.29697499-2.0683575-13.90193437-14.52071531-22.29816187-23.41676344-31.85616188-51.09207938-52.16751-101.98461469-104.5470375-153.19949062-156.63396187-8.85383719-9.01980469-16.71570656-20.43894281-29.20643813-24.66103969-9.39395062-3.473805-19.36159312 1.1176425-26.56151062 7.07904-50.22962438 38.14469812-100.49666344 76.28651813-150.67832063 114.4360125-62.22724969-46.34042156-124.40653219-92.80076062-186.71532656-138.97233656-12.90708937-10.29765844-35.74440562-5.04617906-39.92141344 11.83357687-4.96463438 11.08720313 0.61974 24.04034062 10.38399938 30.36725063 64.7896725 48.44619375 129.82493906 96.56045156 194.57431875 145.05269437 9.844845 9.26443875 25.81609687 14.89198312 37.0683075 4.54923562 51.09303938-38.10344625 101.6488425-76.90913531 152.41474312-115.47019124 55.06378688 56.5152825 110.46334594 112.69959 165.24028688 169.45950656 5.87313844 5.54312156 11.95445531 12.08013 20.4763575 13.11334968z"  horiz-adv-x="1024" />

    
    <glyph glyph-name="pingshen" unicode="&#4163;" d="M620.53376 805.74236445l-75.35957333-74.69283556c-39.92803555-38.78343111-64.70314667-92.9792-64.70314667-152.96170667 0-0.08647111 0-0.17294222 0-0.25941333 0-0.03299555 0-0.08874667 0-0.14336 0-59.98136889 24.77511111-114.17827555 64.65080889-152.91050667 39.97013333-39.26129778 94.74389333-63.46524445 155.16785778-63.46524444 0.32768 0 0.65422222 0.00113778 0.98190222 0.00341333 0.21959111-0.00227555 0.54158222-0.00227555 0.86357333-0.00227556 60.43079111 0 115.20796445 24.20508445 155.16785778 63.44817778l76.0832 74.43911112-312.80924445 306.54691555zM818.28067555 463.04597333c-29.96110222-29.43544889-71.07356445-47.60803555-116.4288-47.60803555-0.22072889 0-0.44145778 0.00113778-0.6656 0.00227555-0.16384-0.00113778-0.39822222-0.00227555-0.63260444-0.00227555-45.34385778 0-86.44494222 18.17258667-116.41628444 47.62965333-29.96451555 29.10549333-48.57514667 69.81176889-48.57514667 114.86208 0 45.09582222 18.64590222 85.83395555 48.64796445 114.93148444l36.54428444 36.18816 234.51761778-229.8106311-36.99143112-36.19157334zM625.68561778 114.44223999999997l-416.98986667-75.35957333 159.86915556 148.14549333c16.56490667-9.77009778 36.01521778-15.45443555 56.75235555-15.45443555 60.83925333 0 110.35420445 48.58197333 110.35420445 108.26524444 0 59.72878222-49.47057778 108.31075555-110.35420445 108.31075556-60.83925333 0-110.35420445-48.58197333-110.35420444-108.31075556 0-19.71768889 5.41809778-38.27939555 14.87644444-54.17756444l-171.99217777-159.42428445 44.98432 386.26076445 235.89546666 128.60529777-26.77873778 47.33838223-260.67399111-142.10503112-61.10549333-523.96942222 576.19228444 104.13624889 88.23808 230.92110222-51.68924444 19.00544-77.26990222-202.23317333zM425.31498667 334.17329778c30.464 0 55.19928889-24.29269333 55.19928888-54.13432889s-24.73528889-54.13319111-55.19928888-54.13319111c-0.13312-0.00113778-0.28899555-0.00227555-0.44600889-0.00227556-30.02823111 0-54.40853333 24.19256889-54.70776889 54.15139556 0 29.82684445 24.73528889 54.11726222 55.15377778 54.11726222z"  horiz-adv-x="1024" />

    
    </font>
</defs>
</svg>
